<svg xmlns="http://www.w3.org/2000/svg" xml:space="preserve" x="0" y="0" version="1.1" viewBox="6 0 46 57"><path d="M31 16h-6C14 14 5 15 6 35c0 10 9 24 20 21h5c10 3 20-11 20-21 0-20-9-21-20-19z" fill="#d13834"/><path d="m11 30-1-1c0-6 4-10 9-10a1 1 0 1 1 0 2c-4 0-7 3-7 8l-1 1z" fill="#f75b57"/><path d="m28 20-1-1c0-4-1-10-6-12a1 1 0 1 1 1-1c5 2 7 8 7 13l-1 1z" fill="#4c312c"/><path d="m28 24-4-2a1 1 0 1 1 1-2 4 4 0 0 0 6 0 1 1 0 1 1 2 2l-5 2z" fill="#994530"/><path d="m27 13 1-4c1-4 4-8 8-8l4-1v4c-1 4-4 8-9 8l-4 1z" fill="#659c35"/></svg>