<svg xmlns="http://www.w3.org/2000/svg" viewBox="0 0 540 160"><g transform="scale(4.00216 4.0011)"><path d="M134 35.3a3.8 3.8 0 0 1-3.8 3.8H4.7A3.8 3.8 0 0 1 1 35.3V4.7A3.8 3.8 0 0 1 4.7 1h125.5a3.8 3.8 0 0 1 3.8 3.8v30.6z" fill="#FFF"/><path d="M130.2 40H4.7A4.7 4.7 0 0 1 0 35.3V4.7A4.7 4.7 0 0 1 4.7 0h125.5a4.7 4.7 0 0 1 4.7 4.7v30.6c0 2.6-2 4.7-4.7 4.7z" fill="#A6A6A6"/><path d="M134 35.3a3.8 3.8 0 0 1-3.8 3.8H4.7A3.8 3.8 0 0 1 1 35.3V4.7A3.8 3.8 0 0 1 4.7 1h125.5a3.8 3.8 0 0 1 3.8 3.8v30.6z"/><path d="M30.1 19.8c0-3.2 2.7-4.8 2.8-4.9a6 6 0 0 0-4.7-2.5c-2-.2-3.9 1.2-4.9 1.2-1 0-2.5-1.2-4.2-1.2a6.2 6.2 0 0 0-5.2 3.2c-2.3 4-.6 9.7 1.6 13 1 1.5 2.3 3.2 4 3.1 1.6 0 2.2-1 4.2-1s2.5 1 4.2 1c1.7 0 2.8-1.6 3.9-3.1 1.2-1.8 1.7-3.6 1.7-3.7 0 0-3.3-1.3-3.4-5.1zM27 10.3c1-1 1.5-2.6 1.3-4-1.2 0-2.8.8-3.7 1.9-.8 1-1.5 2.4-1.4 3.9 1.5.1 3-.7 3.8-1.8z" fill="#FFF"/><linearGradient id="a" x1="-23.2" x2="-23.2" y1="97.4" y2="61.4" gradientTransform="matrix(4.0022 0 0 4.0011 192 -349.7)" gradientUnits="userSpaceOnUse"><stop offset="0" stop-color="#1a1a1a" stop-opacity=".1"/><stop offset=".1" stop-color="#212121" stop-opacity=".2"/><stop offset=".3" stop-color="#353535" stop-opacity=".2"/><stop offset=".5" stop-color="#575757" stop-opacity=".3"/><stop offset=".8" stop-color="#858585" stop-opacity=".4"/><stop offset="1" stop-color="#b3b3b3" stop-opacity=".5"/></linearGradient><path d="M130.2 0H63l26.3 40h40.9a4.7 4.7 0 0 0 4.7-4.7V4.7a4.7 4.7 0 0 0-4.7-4.7z" fill="url(#a)"/><path d="M53.7 31.5h-2.3l-1.3-4h-4.3l-1.2 4h-2.2l4.3-13.3h2.7l4.3 13.3zm-4-5.5-1-3.5L48 20l-.7 2.5-1 3.5h3.5zm15 .6c0 1.6-.5 3-1.4 3.9a4 4 0 0 1-3 1.2c-1.2 0-2.1-.4-2.7-1.3v5h-2V25l-.2-3.2h1.9l.1 1.5a3.6 3.6 0 0 1 3.3-1.7c1.1 0 2 .5 2.8 1.4.8.8 1.2 2 1.2 3.5zm-2.2 0a4 4 0 0 0-.6-2.2c-.5-.7-1.1-1-1.9-1-.5 0-1 .2-1.4.5-.5.4-.7.8-.9 1.4a2.8 2.8 0 0 0 0 .7v1.6c0 .7.1 1.2.6 1.7.4.5 1 .7 1.6.7.8 0 1.5-.3 2-.9a4 4 0 0 0 .6-2.4zm13.2 0c0 1.6-.4 3-1.3 3.9a4 4 0 0 1-3 1.2c-1.3 0-2.2-.4-2.7-1.3v5h-2.2V21.9h1.8l.2 1.5a3.6 3.6 0 0 1 3.2-1.7c1.2 0 2.1.5 2.9 1.4.7.8 1.1 2 1.1 3.5zm-2.2 0a4 4 0 0 0-.6-2.2c-.5-.7-1-1-1.9-1-.5 0-1 .2-1.4.5-.4.4-.7.8-.8 1.4l-.1.7v1.6c0 .7.2 1.2.6 1.7.4.5 1 .7 1.7.7.8 0 1.4-.3 1.9-.9a4 4 0 0 0 .6-2.4zM88 27.9c0 1.1-.4 2-1.1 2.7-1 .8-2.1 1.2-3.7 1.2-1.4 0-2.5-.3-3.4-.8l.5-1.8c1 .5 2 .8 3 .8a3 3 0 0 0 2-.5c.4-.4.6-.9.6-1.5 0-.5-.2-1-.5-1.3-.4-.4-1-.7-1.9-1-2.3-1-3.5-2.2-3.5-3.9 0-1 .4-2 1.3-2.7.8-.7 1.9-1 3.2-1 1.2 0 2.2.2 3 .6l-.5 1.8c-.7-.4-1.6-.6-2.5-.6-.8 0-1.4.1-1.8.5-.4.3-.5.7-.5 1.2s.2 1 .6 1.3c.3.3 1 .7 1.9 1 1.1.5 2 1 2.5 1.7.6.6.8 1.4.8 2.3zm7.1-4.3h-2.3v4.7c0 1.2.4 1.7 1.2 1.7h1v1.6l-1.7.2c-.8 0-1.5-.3-2-.8-.4-.5-.6-1.3-.6-2.6v-4.8h-1.4V22h1.4v-1.8l2-.6V22h2.4v1.6zm10.6 3.1c0 1.5-.4 2.7-1.3 3.7s-2 1.4-3.5 1.4c-1.4 0-2.5-.4-3.4-1.4-.8-1-1.2-2-1.2-3.5s.4-2.7 1.3-3.7c.8-1 2-1.4 3.5-1.4 1.4 0 2.5.5 3.4 1.4a5 5 0 0 1 1.2 3.5zm-2.2 0a4 4 0 0 0-.6-2.2c-.4-.7-1-1.1-2-1.1-.8 0-1.4.3-1.9 1.1-.3.6-.5 1.4-.5 2.3 0 .9.2 1.7.5 2.3.5.7 1.1 1.1 2 1.1.8 0 1.4-.4 1.9-1.1.4-.7.6-1.4.6-2.3zm9.1-2.8a3.7 3.7 0 0 0-.6 0 2 2 0 0 0-1.8.8c-.3.5-.5 1.1-.5 1.9v5h-2.2V25a67.4 67.4 0 0 0 0-3h1.8l.1 1.8c.3-.6.7-1 1.1-1.5a2.6 2.6 0 0 1 1.6-.5h.5v2zm9.6 2.5a5 5 0 0 1-.1 1h-6.4c0 .9.3 1.6 1 2 .4.5 1.1.8 2 .8a7 7 0 0 0 2.6-.5l.3 1.5a8 8 0 0 1-3.2.6 5 5 0 0 1-3.5-1.3c-.8-1-1.3-2-1.3-3.6 0-1.4.4-2.6 1.2-3.6a4 4 0 0 1 3.4-1.5c1.4 0 2.4.5 3.1 1.5.6.8.9 1.9.9 3zm-2-.6c0-.6-.2-1.2-.5-1.6a2 2 0 0 0-1.7-1 2 2 0 0 0-1.7 1c-.3.4-.6 1-.6 1.6h4.4zm-75-12.3h-1.5V7a11.6 11.6 0 0 1 1.8-.2C47.9 6.8 49 8 49 10c0 2.3-1.4 3.5-3.9 3.5zm.4-5.8h-.9v5h.7c1.6 0 2.5-1 2.5-2.7 0-1.5-.8-2.3-2.3-2.3zm7 5.8c-1.4 0-2.3-1-2.3-2.4s1-2.5 2.3-2.5c1.4 0 2.3 1 2.3 2.4 0 1.5-1 2.5-2.3 2.5zm0-4.1c-.8 0-1.2.7-1.2 1.7s.5 1.7 1.2 1.7 1.2-.8 1.2-1.7c0-1-.5-1.7-1.2-1.7zm10.2-.7-1.5 4.7h-1l-.6-2a15.5 15.5 0 0 1-.4-1.5c0 .5-.2 1-.4 1.5l-.6 2h-1L56 8.7h1l.5 2.3.4 1.5c0-.4.2-1 .4-1.5l.6-2.3h.9l.6 2.2.4 1.6.4-1.6.5-2.2h1zm5.4 4.7h-1v-2.7c0-.8-.4-1.2-1-1.2s-1 .5-1 1.1v2.8h-1v-3.3L64 8.7h.9v.7c.3-.5 1-.8 1.6-.8 1 0 1.6.8 1.6 2v2.8zm2.9 0h-1V6.6h1v6.8zm3.8.1c-1.4 0-2.3-1-2.3-2.4s1-2.5 2.4-2.5c1.3 0 2.3 1 2.3 2.4 0 1.5-1 2.5-2.4 2.5zm0-4.1c-.7 0-1.2.7-1.2 1.7s.5 1.7 1.2 1.7c.8 0 1.3-.8 1.3-1.7 0-1-.5-1.7-1.3-1.7zm6.5 4V13h-.1c-.3.4-.8.6-1.4.6-.8 0-1.4-.6-1.4-1.3 0-1.2 1-1.8 2.7-1.8v-.1c0-.6-.3-1-1-1-.4 0-.8.2-1.2.4l-.2-.7a3 3 0 0 1 1.6-.4c1.2 0 1.9.7 1.9 2v2.8h-1zm-.2-2.3c-1.1 0-1.7.3-1.7 1 0 .4.3.7.7.7.6 0 1-.4 1-1v-.7zm6.2 2.3v-.7h-.1c-.3.5-.8.8-1.5.8-1.2 0-2-1-2-2.4s.9-2.5 2-2.5c.7 0 1.1.2 1.4.7V6.6h1v6.8h-.8zm-.2-2.7c0-.7-.4-1.3-1.1-1.3-.8 0-1.3.7-1.3 1.7s.5 1.6 1.3 1.6c.6 0 1.1-.6 1.1-1.3v-.7zm7.7 2.8c-1.4 0-2.3-1-2.3-2.4s1-2.5 2.4-2.5c1.3 0 2.3 1 2.3 2.4 0 1.5-1 2.5-2.4 2.5zm0-4.1c-.7 0-1.2.7-1.2 1.7s.5 1.7 1.2 1.7c.8 0 1.3-.8 1.3-1.7 0-1-.5-1.7-1.3-1.7zm8 4h-1v-2.7c0-.8-.4-1.2-1-1.2s-1 .5-1 1.1v2.8h-1.1V8.7h.9v.7c.3-.5 1-.8 1.5-.8 1 0 1.7.8 1.7 2v2.8zm7-3.9h-1.1v2.3c0 .6.2.9.6.9h.5v.7l-.8.1c-.9 0-1.3-.4-1.3-1.6V9.5h-.7v-.8h.7V8l1-.4v1.2h1.1v.8zm5.6 4h-1v-2.8c0-.8-.4-1.2-1-1.2s-1 .3-1 1v3h-1.1v-7h1v2.9c.4-.5.9-.8 1.5-.8 1 0 1.6.8 1.6 2v2.8zm5.7-2.2H118c0 1 .6 1.4 1.5 1.4.5 0 1 0 1.3-.2l.1.7a4 4 0 0 1-1.5.3c-1.5 0-2.4-1-2.4-2.4s1-2.5 2.2-2.5c1.3 0 2 1 2 2.3a2 2 0 0 1 0 .4zm-1-.7c0-.7-.4-1.3-1-1.3s-1.1.6-1.2 1.3h2.2z" fill="#FFF"/></g></svg>