<svg xmlns="http://www.w3.org/2000/svg" xml:space="preserve" x="0" y="0" version="1.1" viewBox="0 90 512 332"><path d="M454 173C261 365 26 157 26 157s-5-1-17 14c-12 16-8 20-8 20 122 283 475 178 499 26l-2-30-8-28-6-4c-16 15-8 17-8 17l-22 1z" fill="#f6bb42"/><path d="M21 171c1-4-1-7-3-9a98 98 0 0 0-14 16l6 3c6 0 11-5 11-10z" fill="#434a54"/><path d="M438 169C296 400 34 263 34 263s-4 0-13 18c-8 18-4 21-4 21 186 247 504 61 492-91 0 0-4-24-8-29s11-70 11-70l-54-22c0 34-2 65-7 69l-13 10z" fill="#ffce54"/><path d="M18 290h4a11 11 0 0 0 5-20 99 99 0 0 0-9 20z" fill="#434a54"/><path d="M458 90c0 34-2 65-7 69 23 1 50 23 50 23-4-5 11-70 11-70l-54-22z" fill="#f6bb42"/></svg>