<svg xmlns="http://www.w3.org/2000/svg" aria-hidden="true" class="iconify iconify--noto" preserveAspectRatio="xMidYMid meet" role="img" viewBox="4 6 119 117"><path d="m21 24-7-1-2 1s0-3 2-5l4-2 1-1c0-2 0-5 2-6 2-2 4-1 5 0h2l3-3c2-2 5-1 5-1s-2 2-2 7l-1 2-8 6a136 136 0 0 1-4 3z" fill="#3f51b5"/><circle fill="#3f51b5" cx="44" cy="39" r="30"/><path d="M61 15c2 3 4 5 2 14-1 8-7 16-20 17-11 0-19-6-21-13s-1-13 3-17c-11 7-11 20-11 23a30 30 0 1 0 47-24z" fill="#303f9f"/><circle fill="#5064c9" cx="90" cy="60" r="33"/><path d="M123 61c-5 14-18 26-39 20-16-6-25-25-20-41a33 33 0 0 0-5 10 33 33 0 1 0 64 11z" fill="#4054b0"/><path d="M100 46s4 8 9 6c4-1 3-7 3-7s9 0 9-4c-1-4-7-5-7-5s0-6-2-8c-3-2-8 2-8 2s-3-6-8-5c-4 1-1 10-1 10s-6 0-4 4c3 5 9 7 9 7z" fill="#8092f2"/><ellipse fill="#2f3e82" cx="104" cy="39" rx="6" ry="7" transform="rotate(-63 104 39)"/><circle fill="#5064c9" cx="104" cy="40" r="6" transform="rotate(-56 104 40)"/><circle fill="#6678d9" cx="39" cy="88" r="34"/><path d="M71 77c0 1 1 35-34 36-14 1-23-9-28-19-4-11 1-24 1-24l-4 7a34 34 0 0 0 33 45 34 34 0 0 0 32-45z" fill="#5366cf"/><path d="M35 82s-4 8-11 6c-3-1-2-7-2-7s-5 0-6-4c-2-4 6-5 6-5s-3-6 1-9 7 3 7 3 3-9 7-6 3 11 3 11 7 1 4 6c-2 5-9 5-9 5z" fill="#9aa7ed"/><ellipse fill="#2c3f9e" cx="30" cy="75" rx="8" ry="7" transform="rotate(-12 30 75)"/><ellipse fill="#5366cf" cx="31" cy="76" rx="7" ry="6" transform="rotate(-12 31 76)"/></svg>