<svg xmlns="http://www.w3.org/2000/svg" xml:space="preserve" x="0" y="0" version="1.1" viewBox="0 45 575 485"><path d="M129 475c11 6 28 3 37-6L555 93c9-9 7-18-6-21L413 45c-13-2-30 3-40 12L6 392c-9 8-8 20 4 25l119 58zm-29-49c-8 8-20 11-26 5-5-6-2-17 7-26 8-8 20-11 26-5 5 6 2 17-7 26zM416 85c0-2 3-4 5-3l39 8a5 5 0 0 1-2 10l-39-9c-2 0-4-3-3-6zm-63 11 144 32-303 293-126-62L353 96z"/><path d="m575 119-9-19-4 5-389 376a44 44 0 0 1-48 8L6 431H5l2 8c3 10 12 20 21 24l116 65c9 4 21 2 28-4l392-376c7-7 12-20 11-29zm-235 31c-1 2 1 2 4 1l18-3 12-3c5-1 9-3 11-5 7-6 8-12 1-15h-12c-4 1-5 1-5-1 1-3-1-5-4-6-8-3-17 0-24 6-3 3-5 6-5 8l2 7 2 11zm-38 48h2l33-9c2-1 2-2 1-2l-37-11c-1-1-3 0-2 1l1 20 2 1zm-30 0 23-6-2-14c0-1-1-1-2 1l-20 18c-2 1-1 2 1 1z"/><path d="m271 203 36 12c2 0 3-1 3-2l-1-13-5 1h-6c-1 0-3-1-3-3v-3l-23 6c-2 1-2 2-1 2zm47 9 20-19c1-1 1-2-1-1l-23 6 1 14h3zm-109 48 31 11c3 1 7 0 9-2l17-15c3-2 3-4 0-5l-18-7c3-2 3-5 0-6l-7-2c-3-1-7 0-10 2l-22 18c-2 2-2 5 0 6zm186-96h3l18-3 4 10 1 1c1 0 4 0 5-2h1l7-13 18-3 3-2c2-1 1-2 0-3l-14-4 7-11c1-1 1-3-1-3-1-1-4 0-5 1l-15 9-13-4c-2 0-4 0-6 2v2l4 10-16 9-1 1v3zm-27 35-4 1-20 19h-8c-4 2-8 5-8 7 1 2 5 3 9 2a16 16 0 0 0 7-4l2-2 15-14 15 4-7 7h-7c-5 1-9 4-8 6 0 3 4 3 9 2a16 16 0 0 0 6-3l3-4 12-11 3-3-1-2-18-5zm11 9-2 1-12-4-1-1h3l12 3v1zm-49 56-23-8c-2 0-5 0-6 2l-29 25c-2 1-2 3 0 4l23 8c2 0 5 0 7-2l28-25c2-2 2-3 0-4zm-5 4-21 18h-1l-20-7c-1 0-1 0 0 0l20-19h2l20 7v1z"/><path d="m309 271-11 5-1-1v-1h-1l-9 4c-1 0-1 0 0 0l16 6h1l6-13h-1zm-4-3v-2h-4v3l4-1z"/></svg>