<svg xmlns="http://www.w3.org/2000/svg" xml:space="preserve" x="0" y="0" version="1.1" viewBox="0 84 490 323"><path d="M447 174a178 178 0 0 0-167-20c-11-19-27-36-49-48-25-15-55-22-86-22-38 0-74 11-102 32-28 22-43 51-43 81 0 28 13 55 36 75v68c0 4 2 7 5 9 4 2 8 1 10 0l70-39 24 1c23 0 45-4 66-12 7 14 18 27 32 38a167 167 0 0 0 126 31l70 37c4 2 7 2 10 0s5-5 5-9v-65c23-21 36-47 36-75 0-31-15-60-43-82zM145 291c-8 0-16 0-24-2l-8 2-57 32v-56l-4-7a82 82 0 0 1-32-63c0-51 56-93 125-93 51 0 97 24 116 59l-18 11c-28 22-43 51-43 82l3 24c-18 7-38 11-58 11zm293 27a10 10 0 0 0-4 8v54l-57-30c-2-2-5-3-8-2l-24 1c-57 0-104-28-120-66v-1c-3-8-5-17-5-26 0-34 23-63 58-79l1-1c19-9 42-14 66-14 69 0 125 42 125 94 0 23-11 45-32 62z"/><path d="M404 222H286a10 10 0 1 0 0 20h118a10 10 0 0 0 0-20zm0 45H286a10 10 0 1 0 0 20h118a10 10 0 0 0 0-20z"/><path d="M447 174a178 178 0 0 0-167-20c-11-19-27-36-49-48-25-15-55-22-86-22-38 0-74 11-102 32-28 22-43 51-43 81 0 28 13 55 36 75v68c0 4 2 7 5 9 4 2 8 1 10 0l70-39 24 1c23 0 45-4 66-12 7 14 18 27 32 38a167 167 0 0 0 126 31l70 37c4 2 7 2 10 0s5-5 5-9v-65c23-21 36-47 36-75 0-31-15-60-43-82zM145 291c-8 0-16 0-24-2l-8 2-57 32v-56l-4-7a82 82 0 0 1-32-63c0-51 56-93 125-93 51 0 97 24 116 59l-18 11c-28 22-43 51-43 82l3 24c-18 7-38 11-58 11zm293 27a10 10 0 0 0-4 8v54l-57-30c-2-2-5-3-8-2l-24 1c-57 0-104-28-120-66v-1c-3-8-5-17-5-26 0-53 57-94 125-94s125 42 125 94c0 23-11 45-32 62z"/><path d="M404 222H286a10 10 0 1 0 0 20h118a10 10 0 0 0 0-20zm0 45H286a10 10 0 1 0 0 20h118a10 10 0 0 0 0-20z"/></svg>