<svg xmlns="http://www.w3.org/2000/svg" xml:space="preserve" x="0" y="0" version="1.1" viewBox="25 0 440 490"><path d="M59 388c23 36 56 65 95 83-10-25-18-53-24-83H59zm61-107H25c2 31 10 60 23 86h79c-5-27-7-56-7-86zm115 107h-84a402 402 0 0 0 30 93c17 5 35 8 54 9V388zm82 75c9-22 17-47 22-75h-84v102c19-1 37-4 54-9l8-18zM154 70c-39 18-72 47-95 82h71c6-30 14-58 24-82zm-27 103H48c-13 26-21 56-23 87h95c0-30 2-59 7-87zm246-82c-4 10-9 23-18 39l5 22h71c-15-24-35-44-58-61zM215 62l1-10c-12 2-24 4-35 8l-8 17c-9 22-17 48-22 75h84v-30c-20-40-20-55-20-60zm-68 305h88v-86h-95c1 30 3 59 7 86zm-7-107h95v-87h-88c-4 28-6 57-7 87zm115 107h88c4-27 6-56 7-86h-95v86zm108-194c5 28 7 57 7 87h95c-2-31-10-61-23-87h-79zm-27 298c39-18 72-47 95-83h-71c-6 30-14 58-24 83zm27-104h79c13-26 21-55 23-86h-95c0 30-2 59-7 86zm-32-194-19 31-15 22-14-22-20-31h-8v87h95c-1-30-3-59-7-87h-12z"/><path d="M297 0c-34 0-62 28-62 62a411 411 0 0 0 62 124l2-1c3-4 60-90 60-123 0-34-28-62-62-62zm0 30a32 32 0 1 1 0 63 32 32 0 0 1 0-63z"/></svg>