<svg xmlns="http://www.w3.org/2000/svg" xml:space="preserve" x="0" y="0" version="1.1" viewBox="0 96 463 270"><path d="m433 222-4-1c-14-3-20-5-25-14l-18-36c-5-11-20-20-32-20h-32v-41c0-8-6-14-13-14L90 97c-7 0-13 5-13 13v12H21a21 21 0 0 0 0 42h56v20H40a21 21 0 0 0 0 42h37v21H60a21 21 0 0 0 0 42h17v21c0 7 6 13 14 13h22a50 50 0 0 0 100 0h94a50 50 0 0 0 99 0h33c13 0 24-10 24-23v-40c0-32-18-35-30-38zm-76 75a18 18 0 1 1 0 37 18 18 0 0 1 0-37zm-35-78v-48h24c10 0 21 7 25 15l16 32 1 1h-66zm-140 97a18 18 0 1 1-37 0 18 18 0 0 1 37 0z"/></svg>