<svg xmlns="http://www.w3.org/2000/svg" xml:space="preserve" x="0" y="0" version="1.1" viewBox="0 0 512 512"><path d="M129 177c-2 1-4 2-5 5a68 68 0 0 0 88 87l5-5a68 68 0 0 0-88-87z" fill="#66bf00"/><path d="M148 245a68 68 0 0 1-17-69l-2 1c-2 1-4 2-5 5a68 68 0 0 0 88 87l5-5 1-3c-24 8-51 2-70-16z" fill="#58ab23"/><path d="M262 301 136 175l-7 2c-2 1-4 2-5 5l-1 4 127 127a9 9 0 0 0 12 0c3-3 3-9 0-12z" fill="#58ab23"/><path d="M259 74h-7a68 68 0 0 0 0 124h7a68 68 0 0 0 0-124z" fill="#66bf00"/><path d="M259 184h-7a68 68 0 0 1-38-55l-1 7c0 27 16 51 39 62h7a68 68 0 0 0 39-69c-2 24-17 45-39 55z" fill="#58ab23"/><path d="M259 74h-7l-4 3v256a9 9 0 0 0 9 8c4 0 8-3 8-8V77l-6-3z" fill="#58ab23"/><path d="M382 177c3 1 5 2 5 5a68 68 0 0 1-87 87l-5-5a68 68 0 0 1 87-87z" fill="#66bf00"/><path d="M364 245c18-19 24-45 17-69l1 1c3 1 5 2 5 5a68 68 0 0 1-87 87l-5-5-1-3c24 8 51 2 70-16z" fill="#58ab23"/><path d="M387 182c0-3-2-4-5-5l-6-2-126 126a9 9 0 1 0 12 12l127-127-2-4z" fill="#58ab23"/><path d="M427 324H85c-4 0-8 4-8 9a179 179 0 0 0 358 0c0-5-4-9-8-9z" fill="#72ccc5"/><path d="M427 324H85c-4 0-8 4-8 9a179 179 0 0 0 358 0c0-5-4-9-8-9z" fill="#72ccc5"/><path d="M119 333c0-5 4-9 9-9H85c-4 0-8 4-8 9a179 179 0 0 0 200 178c-89-11-158-87-158-178z" fill="#11bba3"/><path d="M426 330c-1-4-5-6-8-6H281c-5 0-9 6-8 11l9 34c1 3 3 6 6 6l36 7v28l1 2 8 26c2 4 7 7 11 5l26-8c2-1 3-2 4-5l18-34v-26l32-31c2-3 3-6 2-9zm-184 29-24-8-24-24-6-3H85c-4 0-8 4-8 9 0 82 55 154 135 174 4 1 9-2 10-6 1-3 0-6-1-8l-7-28 21-14 4-5 8-34v-45c0-4-2-7-5-8z" fill="#66bf00"/><path d="M119 333c0-5 4-9 9-9H85c-4 0-8 4-8 9 0 82 55 154 135 174 4 1 9-2 10-6v-6c-61-29-103-91-103-162z" fill="#58ab23"/><path d="M43 94c13 0 25 6 33 16a51 51 0 0 1 94 22c1 2-1 5-4 5H4c-2 0-4-3-4-5 2-22 21-38 43-38z" fill="#f4f3ec"/><path d="m168 119 2 13c1 2-1 5-4 5H4c-2 0-4-3-4-5l3-13h165z" fill="#e8e6d9"/><path d="M120 9c13 0 25 6 33 15a51 51 0 0 1 94 23c1 2-1 4-4 4H81c-2 0-4-2-4-4 2-22 21-38 43-38z" fill="#f4f3ec"/><path d="m245 34 2 13c1 2-1 4-4 4H81c-2 0-4-2-4-5l3-12h165z" fill="#e8e6d9"/><circle fill="#fc9c47" cx="435" cy="77" r="43"/><circle fill="#ffc552" cx="435" cy="77" r="26"/><path d="M435 26c-5 0-8-4-8-9V9a9 9 0 0 1 17 0v8c0 5-4 9-9 9zm30 8-4-2c-4-2-6-7-3-11l4-8a9 9 0 1 1 15 9l-5 7c-1 3-4 5-7 5zm22 21a9 9 0 0 1-4-15l7-5a9 9 0 0 1 8 15l-7 4-4 1zm16 30h-8a9 9 0 0 1 0-17h8a9 9 0 0 1 0 17zm-9 34-4-1-7-4a9 9 0 0 1 8-15l7 5a9 9 0 0 1-4 15zm-25 25c-3 0-6-1-7-4l-4-7a9 9 0 0 1 14-9l5 8a9 9 0 0 1-8 12zm-34 10c-5 0-8-4-8-9v-8a9 9 0 0 1 17 0v8c0 5-4 9-9 9zm-34-10-4-1c-4-2-6-7-3-11l4-8a9 9 0 1 1 15 9l-5 7c-1 3-4 4-7 4zm-25-25a9 9 0 0 1-4-15l7-5a9 9 0 0 1 9 15l-8 4-4 1zm-1-34h-8a9 9 0 0 1 0-17h8a9 9 0 0 1 0 17zm8-30-4-1-7-4a9 9 0 0 1 8-15l8 5a9 9 0 0 1-5 15zm22-21c-3 0-6-2-7-5l-4-7a9 9 0 0 1 14-9l5 8a9 9 0 0 1-8 13z" fill="#ffe5ba"/></svg>