<svg xmlns="http://www.w3.org/2000/svg" xml:space="preserve" x="0" y="0" version="1.1" viewBox="0 0 474.3 474.3"><circle fill="#3a5a98" cx="237.1" cy="237" r="237"/><path d="M404.7 69.8a237 237 0 0 1-335 335l335-335z" fill="#345387"/><path d="M472.5 263.7 301.1 92.2l-89 89 5.3 5.3-50.6 50.7 41.4 41.5-5.4 5.4 44.9 45-51.8 51.7 88.4 88.4a237.1 237.1 0 0 0 188.2-205.5z" fill="#2e4d72"/><path d="M195.7 149v39.7h-29.1v48.6h29v144.4h59.9V237.3h40.1s3.8-23.3 5.6-48.8h-45.5v-33.2c0-5 6.5-11.7 13-11.7h32.6V93H257c-62.8 0-61.3 48.7-61.3 56z" fill="#fff"/></svg>