<svg xmlns="http://www.w3.org/2000/svg" xml:space="preserve" x="0" y="0" version="1.1" viewBox="0 19 512 473"><path d="M7 19c18 0 40 3 59 9 32 9 60 28 69 60 6 19 4 42 1 57-13 53-60 58-81 34-17-19-13-47 3-69 26-36 77-49 117-9a183 183 0 0 1 43 146 197 197 0 0 1-6 27l-1 2a18 18 0 1 1-35-12h1v-2a161 161 0 0 0 10-48c0-18-2-33-8-49s-13-31-25-44c-27-30-60-17-76 4-6 8-10 18-9 29 0-1 0 0 0 0 0 1 0 5 4 9 9 12 33 10 42-23 4-13 5-33 1-47-6-26-29-41-55-49-17-6-37-9-54-10a7 7 0 0 1 0-15z" fill="#708f44"/><path d="M197 302c-4 0-8-1-11-4-32-23-70-27-114-12a18 18 0 0 1-12-34c55-20 107-14 148 17a18 18 0 0 1-11 33z" fill="#533f29"/><path d="M145 279a64 64 0 1 1 66 110 64 64 0 0 1-66-110z" fill="#a8da64"/><path d="M202 374a64 64 0 1 1 65 109 64 64 0 0 1-65-109zm-6-189a64 64 0 1 1 65 109 64 64 0 0 1-65-109z" fill="#7fa24d"/><path d="M416 374a64 64 0 1 1 65 110 64 64 0 0 1-65-110z" fill="#a8da64"/><path d="M359 280a64 64 0 1 1 65 109 64 64 0 0 1-65-109z" fill="#7fa24d"/><path d="M303 185a64 64 0 1 1 65 110 64 64 0 0 1-65-110z" fill="#a8da64"/><path d="M309 374a64 64 0 1 1 65 110 64 64 0 0 1-65-110z" fill="#9bc95c"/><path d="M252 280a64 64 0 1 1 65 109 64 64 0 0 1-65-109z" fill="#b5db81"/></svg>