<svg xmlns="http://www.w3.org/2000/svg" xml:space="preserve" x="0" y="0" version="1.1" viewBox="76 0 360 512"><ellipse fill="#8460c8" cx="214" cy="438" rx="66" ry="74"/><ellipse fill="#9c7cd3" cx="283" cy="385" rx="66" ry="74"/><ellipse fill="#9c7cd3" cx="300" cy="193" rx="66" ry="74"/><path d="M357 141s-1-7-5-15c12 2 24-2 24-2s-1-9-6-17l9-16-15-9c0-9-3-18-3-18s-12 2-22 10c-5-2-11-2-16-2l3-15c10-7 16-19 16-19s-8-6-18-8l-4-18s-8 1-18 5c-7-8-16-11-16-11s-8 11-9 24l-11 9c-2-5-6-9-9-13 1-12-3-24-3-24s-9 2-17 7l-16-9-8 16c-10 0-18 3-18 3s2 12 10 22c-9 0-16 3-16 3s4 19 18 28c10 33 54 42 54 42s30 33 63 26c14 7 33 1 33 1z" fill="#00a155"/><path d="M311 145s-5-6-12-10c11-5 19-14 19-14s-5-7-13-12V91h-18c-4-9-11-14-11-14s-10 8-15 19c-5 1-10 4-15 7l-4-14c5-12 4-25 4-25s-9-2-19 1l-13-13-13 13c-10-3-20-1-20-1s-1 13 5 25l-5 14c-4-3-10-6-15-7-4-11-14-19-14-19s-7 5-12 14h-18l1 18c-8 5-14 12-14 12s8 9 20 14c-7 4-12 10-12 10s13 15 29 16c26 22 68 9 68 9s42 13 68-9c16-1 29-16 29-16z" fill="#006539"/><ellipse fill="#8460c8" cx="220" cy="333" rx="66" ry="74"/><ellipse fill="#9c7cd3" cx="142" cy="278" rx="66" ry="74"/><ellipse fill="#8460c8" cx="208" cy="226" rx="66" ry="74"/><ellipse fill="#8460c8" cx="370" cy="248" rx="66" ry="74"/><ellipse fill="#9c7cd3" cx="296" cy="292" rx="66" ry="74"/></svg>