<svg xmlns="http://www.w3.org/2000/svg" aria-hidden="true" class="iconify iconify--emojione" preserveAspectRatio="xMidYMid meet" role="img" viewBox="2 2 60 60"><path d="M38 62c-48 0-48-60 0-60v60" fill="#9e7658"/><ellipse fill="#89664c" cx="38" cy="32" rx="24" ry="30"/><ellipse fill="#b2d921" cx="38" cy="32" rx="23" ry="28"/><ellipse fill="#c7e755" cx="38" cy="32" rx="20" ry="25"/><path d="M53 37c0 2-6 0-6 1-1 2 3 7 2 8s-5-4-6-3l-1 8c-1 1-3-6-4-6s-3 7-5 6l-1-8c-1-1-5 4-6 3s3-6 3-8l-7-1 5-5-5-5c0-2 6 0 7-1 0-2-4-7-3-8s5 4 6 3l1-8c2-1 3 6 5 6 1 0 3-7 4-6l1 8c1 1 5-4 6-3s-3 6-2 8c0 1 6-1 6 1 1 1-5 3-5 5s6 4 5 5" fill="#b2d921"/><path d="m51 32-8 2 6 6-8-3 3 9-5-7-1 9-2-10-5 8 3-9-8 3 6-6-8-2 8-2-6-6 8 3-3-9 5 8 2-10 1 10 5-8-3 9 8-3-6 6z" fill="#ecffad"/><path d="m35 17-1 3 2 2v-3zm-3-3v2l1 2 1-2zm9 3-1 1-1 3 2-2zm-1 30 1-3-2-2v3zm3 3v-2l-1-2v2zm-9-3 2-1v-3l-2 2zm16-18-2-1-2 2h2zm2-3-2-1-1 1 2 1zm-2 11-1-2-2-1 1 2zm-24-2 2 1 1-2h-2zm-3 4h2l2-1-2-1zm2-12 1 2 2 1-1-2zm22-4h-2l-1 2h2zm2-5-2 1-1 2h2zM27 46l2-1 1-2h-2zm3-26 1 3 1 1v-3zm-3-1v2l2 1-1-2zm22 26-1-2-1-1v2z" fill="#3e4347"/></svg>