<svg xmlns="http://www.w3.org/2000/svg" xml:space="preserve" x="0" y="0" version="1.1" viewBox="0 .9 32 30.1"><path d="m31.9 16.6-3-8-.4-.5-12-7a1 1 0 0 0-1 0l-12 7c-.2.2-.4.3-.4.5l-3 8c-.2.4-.1.7.1 1 .2.2.5.4.8.4h3v12c0 .6.4 1 1 1h6c.3 0 .5-.1.7-.3l4.3-4.3 4.3 4.3c.2.2.5.3.7.3h6c.6 0 1-.4 1-1V18h3c.3 0 .6-.2.8-.4.2-.3.3-.6.1-1zM10.1 30.4l.2.3.3.2-.5-.5zm.2-1.1a1 1 0 0 0-.3.7V20c0 .3.1.5.3.7l4.3 4.3-4.3 4.3zM21 19a1 1 0 0 0-.7.3L16 23.6l-4.3-4.3a1 1 0 0 0-.7-.3h10zm-9-3v-5c0-.6.4-1 1-1h6c.6 0 1 .4 1 1v5c0 .6-.4 1-1 1h-6c-.6 0-1-.4-1-1zm-1.9 3.6.5-.5-.3.2-.2.3zm11.3 11.3.3-.2.2-.3-.5.5zm.6-.9a1 1 0 0 0-.3-.7L17.4 25l4.3-4.3c.2-.2.3-.5.3-.7v10zm-.6-10.9.5.5-.2-.3-.3-.2zm6.3-3.1-1.8-5.3c-.1-.2-.2-.4-.5-.6l-9-5a1 1 0 0 0-1 0l-9 5a1 1 0 0 0-.5.6L4.3 16H2.4l2.4-6.3L16 3.2l11.2 6.5 2.4 6.3h-1.9z"/></svg>