<svg xmlns="http://www.w3.org/2000/svg" aria-hidden="true" class="iconify iconify--noto" preserveAspectRatio="xMidYMid meet" role="img" viewBox="3.9 5.07 119.8 118.59"><radialGradient id="a" cx="75.42" cy="-61.61" r="183.96" gradientUnits="userSpaceOnUse"><stop offset=".53" stop-color="#f33a1f"/><stop offset=".61" stop-color="#f86922"/><stop offset=".7" stop-color="#fd9124"/><stop offset=".74" stop-color="#ffa025"/><stop offset=".79" stop-color="#fca025"/><stop offset=".84" stop-color="#f1a124"/><stop offset=".88" stop-color="#dfa222"/><stop offset=".93" stop-color="#c7a41f"/><stop offset=".96" stop-color="#aaa61c"/></radialGradient><path d="M4.03 89.43c-1.2 6.01 5.66 29.12 41.45 33.74 18.4 2.37 36.45-4.16 50.75-15.1S119.3 83 122.31 70.1c4.63-19.84-.69-49.8-40.06-51.58C41.99 16.7 28.46 58.8 20.02 71.17 9.86 86.07 5.12 84 4.03 89.43z" fill="url(#a)"/><path d="M41.89 36.33s13.57 6.9 34.61 5.44c17.03-1.18 23.73-9.54 23.73-9.54s7.49 2.06 12.46.74c1.99-.53 2.42-1.61-.01-4.13-3.67-3.82-16.27-10.89-34.85-9.7-23.25 1.51-35.94 17.19-35.94 17.19z" fill="#dc0d27"/><path d="M26.04 76.62c2.36 3.93 9.35-1.14 14.27-6.07 7.1-7.12 10.33-13.64 12.22-16.95 1.89-3.3 4.45-10.44-.71-11.59-5.37-1.19-6.96 5.45-9.72 10.34s-6.6 10.71-9.68 14.5c-3.27 4.03-7.78 7.44-6.38 9.77z" fill="#ffebc9"/><path d="M102.36 24.98c-.68 2.97 2.05 5.05 3.94 6.54s6.15 2.05 7.57 1.02c1.42-1.02-.16-4.02.87-5.83 1.02-1.81 2.84-4.02.63-5.52-1.85-1.26-4.34-1.73-6.62-1.26s-2.29 2.21-3.23 2.68c-.96.48-2.93 1.35-3.16 2.37z" fill="#6d4c41"/><path d="M100.14 25.88c-2.52 1.1-9.94 6.95-27.26 8.28-19.1 1.47-41.53-.8-45.27-1.33-3.72-.53-10.1-.78-10.01-2.38.12-2.4 2.59-1.63 7.59-3.07 6.02-1.74 12.16-4.14 16.84-6.94 7.18-4.31 21.8-15.1 36.19-15.36 15.76-.3 20.83 4.67 24.7 8.8s3.93 8.49 2.86 10.23c-1.06 1.74-2.56.44-5.63 1.77z" fill="#518e30"/><path d="M50.46 24.92c.37.46 7.35.72 11.24.59 8.88-.29 15.91-2.65 24.66-3.63s16.38 0 16.67-.34c.53-.62-4.84-7.92-22.41-5.95-6.47.73-14.79 4.02-20.53 6.31-3.66 1.5-9.98 2.58-9.63 3.02z" fill="#366918"/></svg>