<svg xmlns="http://www.w3.org/2000/svg" xml:space="preserve" x="0" y="0" version="1.1" viewBox="1 0 50 52"><path d="m36 13-5-1 2-4 1-2A24 24 0 0 0 1 28a24 24 0 1 0 42-16l-7 1z" fill="#ed8f20"/><circle fill="#ef771d" cx="39" cy="18" r="2"/><circle fill="#ef771d" cx="44" cy="30" r="2"/><circle fill="#ef771d" cx="44" cy="23" r="2"/><circle fill="#ef771d" cx="37" cy="28" r="2"/><circle fill="#ef771d" cx="39" cy="34" r="2"/><circle fill="#ef771d" cx="21" cy="10" r="2"/><circle fill="#ef771d" cx="14" cy="13" r="2"/><path d="M28 12s4 0 5 3" fill="#ed8f20"/><path d="m33 16-1-1c-1-2-4-2-4-2a1 1 0 0 1 0-2s5 0 6 4a1 1 0 0 1-1 1z" fill="#9b6026"/><path d="M28 16a1 1 0 0 1 0-2l4-3a1 1 0 0 1 1 2l-4 2-1 1z" fill="#9b6026"/><path d="M51 0h-5c-6 0-11 3-13 8l-2 4 5 1c6 0 11-3 13-8l2-5z" fill="#659c35"/><path d="m32 11-1 1 1 1c6-7 13-9 14-9h1l-1-1c-1 0-8 2-14 8z" fill="#88c057"/></svg>