<svg xmlns="http://www.w3.org/2000/svg" xml:space="preserve" x="0" y="0" version="1.1" viewBox="73 0 365 512"><path d="M412 212c-11-22-27-42-46-58-15-13-36-39-46-87-17-80-64-66-64-66s-46-14-63 66c-11 48-32 74-46 87-19 16-35 36-46 58-21 43-41 111-14 190 0 0 65 166 169 89 105 77 170-89 170-89 27-79 7-147-14-190z" fill="#dec33d"/><path d="M350 172c-13-12-37-42-46-87-16-73-48-64-48-64h-1s-32-9-47 64c-10 45-34 75-46 87-15 13-72 62-64 167 3 37 14 73 36 104 25 35 67 68 121 22v1l1-1v1-1c55 46 96 13 122-22 21-31 33-67 35-104 8-105-49-154-63-167z" fill="#fbd960"/><path d="M335 186c-12-10-41-42-46-84-7-67-27-66-33-67-5 1-27 0-33 67-4 42-34 73-45 84-13 13-63 48-57 146 2 35 13 69 31 97 22 33 61 53 104 16 42 37 83 17 104-16 19-28 29-62 31-96 7-99-44-134-56-147z" fill="#f27b2c"/><path d="M277 140c-16-64-8-118-8-118l-13-1v131V20l-13 2s8 54-8 117-98 127 13 253c2 2 5 4 9 4l4-3c4 1 4 1 7-2 109-124 25-189 9-251z" fill="#fbd960"/><path d="M257 376s108-93-1-219c0 0-103 109 1 219z" fill="#eaab57"/><circle fill="#a05f32" cx="234" cy="213" r="11"/><circle fill="#a05f32" cx="256" cy="213" r="11"/><circle fill="#a05f32" cx="245" cy="256" r="11"/><circle fill="#a05f32" cx="269" cy="235" r="11"/><circle fill="#a05f32" cx="290" cy="233" r="11"/><circle fill="#a05f32" cx="269" cy="192" r="11"/><circle fill="#a05f32" cx="228" cy="235" r="11"/><circle fill="#a05f32" cx="224" cy="278" r="11"/><circle fill="#a05f32" cx="228" cy="299" r="11"/><circle fill="#a05f32" cx="269" cy="278" r="11"/><circle fill="#a05f32" cx="257" cy="320" r="11"/><circle fill="#a05f32" cx="267" cy="256" r="11"/><circle fill="#a05f32" cx="256" cy="174" r="11"/><circle fill="#a05f32" cx="249" cy="299" r="11"/><circle fill="#a05f32" cx="290" cy="278" r="11"/><circle fill="#a05f32" cx="290" cy="299" r="11"/><circle fill="#a05f32" cx="259" cy="357" r="11"/><circle fill="#a05f32" cx="279" cy="320" r="11"/><circle fill="#a05f32" cx="247" cy="339" r="11"/></svg>