<svg xmlns="http://www.w3.org/2000/svg" aria-hidden="true" class="iconify iconify--emojione" preserveAspectRatio="xMidYMid meet" role="img" viewBox="2 2 60 60"><path d="M34.4 9.1c0-2.3-3.4-2.7-3.4-.5 0 2.6-1.4 3.6-1.4 5 0 1.8 4 2.1 4 .2 0-1.8.8-1.6.8-4.7" fill="#8e6244"/><path d="M33.1 8.8c2.8 0-2.3-3.6-2.3-.3 0 2.6-1.9 3.9-1.1 5.6 1.8-2.2.5-5.3 3.4-5.3" fill="#a87451"/><path d="M4.4 32.7c0-16.2 13.2-26.1 27.2-18.5A20.5 20.5 0 0 1 62 32.7c0 14.5-8 22.7-18 26.4-3.6 1.3-10.4 3-14.2 2.9-2.8-.1-2.7-1.5-5.4-2.3a26.4 26.4 0 0 1-20-27" fill="#ff9463"/><path d="m32.4 8.3-.3-.2c-2-3-3.9-2.3-3.9-2.3l-.2-1s2.4-.8 4.8 2.6v.7l-.4.2" fill="#8cc63e"/><path d="M24.3 2.1C14.3 1.1 4 12.6 4 12.6s7-2.6 13-1.4c6.1 1.3 11.5-6 11.5-6s-1.4-2.9-4.2-3.1z" fill="#7fb539"/><path d="M15 10C9.8 17 2 21 2 21s14.9 1.5 23.9-8.8c2.6-2.9 2.6-7.1 2.6-7.1S20.3 2.9 15 10z" fill="#8cc63e"/><path d="M28.5 5.1A20 20 0 0 0 21.7 8c-2.3 1.5-4.5 3.4-6.5 5.1a56.2 56.2 0 0 1-6.4 4.8 51.2 51.2 0 0 1-3.5 2c1.1-.5 2.3-1 3.5-1.7 2.4-1.3 4.6-3.1 6.7-4.8 2.1-1.8 4.1-3.6 6.3-5.1 2.2-1.5 4.5-2.5 6.7-3.2" fill="#7fb539"/><path d="M40.5 33.9c.4 3.6.3 7.1-.7 10.5-1 3.4-2.8 6.5-5.8 9.2a16 16 0 0 0 8.9-8.2c1.7-3.5 2.2-7.5 1.7-11.4A27 27 0 0 0 30 13.4c3.5 3 5.7 6.4 7.4 9.9 1.6 3.4 2.6 7 3.1 10.6" fill="#d97448"/></svg>