<svg xmlns="http://www.w3.org/2000/svg" xml:space="preserve" x="0" y="0" version="1.1" viewBox="106 0 299 512"><path d="M260 186c-4 0-8-4-8-8v-51c0-34 27-61 61-61a9 9 0 0 1 0 17c-24 0-44 20-44 44v51c0 4-4 8-9 8z" fill="#b27214"/><path d="M360 282c27 27 46 65 46 107 0 83-68 123-150 123-83 0-150-40-150-123 0-42 17-81 46-108 19-18 30-44 30-71a74 74 0 1 1 148 2c0 26 11 51 30 70z" fill="#f7b239"/><path d="M212 281c-12 27-19 66-19 108 0 82 28 123 63 123-83 0-150-40-150-123 0-42 17-81 46-108 19-18 30-44 30-71 0-40 34-73 74-73-17 0-31 33-31 73 0 27-4 53-13 71z" fill="#e09b2d"/><path d="M262 109c-60 0-108-49-108-109a108 108 0 0 1 108 109z" fill="#9ad14b"/><path d="M262 109 154 0a108 108 0 0 1 108 109z" fill="#90bc42"/></svg>