<svg xmlns="http://www.w3.org/2000/svg" xml:space="preserve" x="0" y="0" version="1.1" viewBox="35 0 442 512"><path d="M256 142c-5 0-10-5-10-10V10a10 10 0 1 1 20 0v122c0 5-5 10-10 10z" fill="#90bc42"/><path d="M256 132s141 72 126-10h7a54 54 0 0 1 45 82 54 54 0 0 1 16 99 53 53 0 0 1-40 93 54 54 0 0 1-71 67c-1 27-24 49-53 49-11 0-176-118-174-124-1 0-47-174-23-179-5-8 4-87 34-87h7c-15 82 126 10 126 10z" fill="#d64394"/><path d="M265 463a54 54 0 0 1-70-67h-3a54 54 0 0 1-36-93 54 54 0 0 1-20-74c-8-27-14-65-6-107h-7a54 54 0 0 0-45 82 54 54 0 0 0-16 99 53 53 0 0 0 37 93h3a54 54 0 0 0 70 67 54 54 0 0 0 84 39 54 54 0 0 0 47 7c-21-6-36-24-38-46z" fill="#bc3987"/><path d="M256 132s-37 107-104 140c0 0-37-68-22-150l1-4a61 61 0 0 1 114-15c4 8 8 18 11 29zm11-29c26-52 102-41 114 15l1 4c15 82-22 150-22 150-67-33-104-140-104-140 3-11 7-21 11-29z" fill="#90bc42"/><path d="M256 132s-37 107-104 140c0 0 8-69 24-131s51-46 51-46 16 4 18 8c4 8 8 18 11 29zm0 0s37 107 104 140c0 0-8-69-24-131-15-63-51-46-51-46s-16 4-18 8c-4 8-8 18-11 29z" fill="#9ad14b"/></svg>