<svg xmlns="http://www.w3.org/2000/svg" xmlns:xlink="http://www.w3.org/1999/xlink" version="1.0" viewBox="68 -2 121 259"><defs><linearGradient id="a"><stop offset="0" stop-color="#fff" stop-opacity="1"/><stop offset="1" stop-color="#fff" stop-opacity="0"/></linearGradient><linearGradient xlink:href="#a" id="b" x1="1471" x2="1341" y1="632" y2="616" gradientUnits="userSpaceOnUse"/><linearGradient xlink:href="#a" id="c" x1="1276" x2="1264" y1="190" y2="253" gradientUnits="userSpaceOnUse"/><linearGradient xlink:href="#a" id="d" x1="1348" x2="1354" y1="224" y2="250" gradientUnits="userSpaceOnUse"/><linearGradient xlink:href="#a" id="e" x1="1184" x2="1145" y1="192" y2="212" gradientUnits="userSpaceOnUse"/></defs><path d="m71 68 6 173c27 19 66 18 95 1l14-173a168 168 0 0 0-115-1z" fill="#bedbff" fill-rule="evenodd" stroke="#000" stroke-width="1"/><path d="m75 75 10 149c27 11 55 12 81-2l15-146a132 132 0 0 1-106-1z" fill="#ffa2c2" fill-rule="evenodd" stroke="#000" stroke-width="1"/><path d="M75 70s22 12 50 12c30 0 58-10 56-11 0 0-22-10-48-10-27-1-58 9-58 9z" fill="none" stroke="#000" stroke-width="1"/><path d="M79 72c28-10 72-12 98 1a125 125 0 0 1-98-1z" fill="#ffa2c2" fill-rule="evenodd" stroke="#000" stroke-width="1"/><path d="m79 72 12 5 3 173-8-4z" fill="#fff" fill-opacity="1" fill-rule="evenodd"/><path d="M1405 339c25-6 47-14 70-24l-64 613c-23 11-36 15-52 19z" fill="url(#b)" fill-rule="evenodd" transform="translate(-237 -18) scale(.28437)"/><path d="m147 252 13-173-4 1-13 173z" fill="none"/><path d="M167 73c-2-3-5-3-8-4" fill="none" stroke="#000" stroke-width="1"/><path d="m143 40-8-12 9 7-3-10 10 10v-9l5 11 12-6-7 8 13 1-9 3 9 8z" fill="#006f00" fill-rule="evenodd" stroke="#000" stroke-linejoin="round" stroke-width="1"/><path d="M118 70c-3 0-6-35 14-37 11-2 18 6 18 6 11-1 17 5 21 13 0 0 2 8-2 14s-15 9-15 9-12-5-19-6-9 2-9 2z" fill="#f30600" fill-rule="evenodd" stroke="#000" stroke-width="1"/><path d="m145 53-3 2 1 4 2-4v-2zm12-5-2 3 2 2 1-2-1-3zm6 6-1 3 1 3 2-3-2-3zm-11 5-2 3c-1 2 1 4 1 4l2-3-1-4zm-19-20-1 4-3 1 1-3c1-2 3-2 3-2zm10 4v3l-3 2v-3c1-2 3-2 3-2zm-9 15-2 3 1 3s2-1 2-3l-1-3zm-12 1 1 3c1 2-1 4-1 4l-1-3 1-4zm2-13 1 4-2 2-1-3 2-3z" fill="#ffca00" fill-rule="evenodd" stroke="#000" stroke-width="1"/><path d="M1342 197c-10-6-25-17-54-9 0 0-10 20-12 39s5 37 5 37l17 2s-7-15 4-32 40-37 40-37z" fill="url(#c)" fill-rule="evenodd" transform="translate(-237 -18) scale(.28437)"/><path d="M1344 227a21 11 0 0 1 27 6 21 11 0 0 1-11 14 21 11 0 0 1-27-5 21 11 0 0 1 11-15" fill="url(#d)" transform="rotate(-14 172 1016) scale(.28437)"/><path d="M109 72 79 1c-6-1-9 1-9 5l27 67" fill="#725eff" fill-rule="evenodd" stroke="#000" stroke-width="1"/><path d="m1110 68-9 13 99 237h14L1110 68z" fill="url(#e)" fill-rule="evenodd" transform="translate(-237 -18) scale(.28437)"/><path d="M79 1h-6c-3 1-4 5-4 5s3 2 7 0 3-5 3-5z" fill="#000" fill-rule="evenodd"/><path d="M133 71c-9-4-14-1-19 2m-7 1c-3-3-8-2-10-1" fill="#ffa2c2" fill-rule="evenodd" stroke="#000" stroke-width="1"/></svg>