<svg xmlns="http://www.w3.org/2000/svg" xml:space="preserve" x="0" y="0" version="1.1" viewBox="8 0 41.1 57"><path d="m29.8 9.4-2.9.6L24 1.5 29 0z" fill="#659c35"/><path d="M36.1 8.5a8 8 0 0 0 2.4-3.6c-5.5-2-7.2.6-7.2.6 0-1-.9-1.5-2-1.6l.5 5.5-2.9.6-1.8-5.2c-.5.2-.8.5-.8.7 0 0-1.7-2.6-7.2-.6a7.9 7.9 0 0 0 2.4 3.7c-4.4.6-8.4 2-10.5 5.8 10.3 3 13.4-1.9 13.4-1.9.6 6.8 5.8 8.7 6.6 9 .8-.3 6-2.2 6.6-9 0 0 1.2 5 11.4 2-2.2-3.8-6.5-5.4-10.9-6z" fill="#88c057"/><path d="M45.3 15v-.1c-8.7 2-9.7-2.4-9.7-2.4-.6 6.8-5.8 8.7-6.6 9-.8-.3-6-2.2-6.6-9 0 0-2.6 4-10.8 2.5C9.3 17.6 8 21.4 8 27c0 13 12.8 30 20.5 30C36.2 57 49 39.9 49 27c0-5.8-1.3-9.6-3.8-12h.1z" fill="#e22f37"/><path d="M17.3 20.7c-.1-.4-.7-.4-.8 0 0 0-1.5 5.3-1.5 5.8a2 2 0 0 0 1.9 1.9c.5 0 1-.2 1.4-.6.3-.3.5-.8.5-1.3s-1.5-5.8-1.5-5.8zm11.8 4c0-.4-.7-.4-.8 0 0 0-1.5 5.3-1.5 5.8a2 2 0 0 0 2 1.9c.4 0 1-.2 1.3-.6.3-.3.5-.8.5-1.3s-1.5-5.8-1.5-5.8zm11.2-4c-.1-.4-.7-.4-.8 0 0 0-1.5 5.3-1.5 5.8a2 2 0 0 0 1.9 1.9c.5 0 1-.2 1.4-.6.3-.3.5-.8.5-1.3s-1.5-5.8-1.5-5.8zM22 33.7c0-.4-.7-.4-.8 0 0 0-1.5 5.3-1.5 5.8a2 2 0 0 0 2 2c.4 0 1-.3 1.3-.7.3-.3.5-.8.5-1.3S22 33.7 22 33.7zm7 9c0-.4-.7-.4-.8 0 0 0-1.5 5.3-1.5 5.8a2 2 0 0 0 2 1.9c.4 0 1-.2 1.3-.6.3-.3.5-.8.5-1.3S29 42.7 29 42.7zm7-9c0-.4-.7-.4-.8 0 0 0-1.5 5.3-1.5 5.8a2 2 0 0 0 2 1.9c.4 0 1-.2 1.3-.6.3-.3.5-.8.5-1.3S36 33.7 36 33.7z" fill="#994530"/></svg>