<svg xmlns="http://www.w3.org/2000/svg" xml:space="preserve" x="0" y="0" version="1.1" viewBox="16.4 0 479.1 512"><path d="m471.7 441.2-195.5-427c-8.7-19-35.7-19-44.3.1L39 441.3h432.6z" fill="#cc1f3c"/><path d="M39.1 441.2h432.6l8.7 19.7H30.5z" fill="#ffd283"/><path d="m30.5 461-12.1 24.5A18.3 18.3 0 0 0 34.8 512h442.4a18.3 18.3 0 0 0 16.1-27l-13-24H30.6z" fill="#ada323"/><ellipse fill="#563824" cx="262.5" cy="114.5" rx="12.3" ry="21.9"/><ellipse fill="#563824" cx="301.4" cy="202.7" rx="12.3" ry="21.9"/><ellipse fill="#563824" cx="261.5" cy="245.8" rx="12.3" ry="21.9"/><ellipse fill="#563824" cx="227.3" cy="268.6" rx="12.3" ry="21.9"/><ellipse fill="#563824" cx="343" cy="290.5" rx="12.3" ry="21.9"/><ellipse fill="#563824" cx="214.9" cy="180.7" rx="12.3" ry="21.9"/><ellipse fill="#563824" cx="173.6" cy="290.5" rx="12.3" ry="21.9"/><ellipse fill="#563824" cx="273.9" cy="334.4" rx="12.3" ry="21.9"/><path d="m129.2 486.5-41.5-25.6v-19.7L251.1.2a24 24 0 0 0-19.2 14.1l-192.8 427-8.6 19.6-12.1 24.6A18.3 18.3 0 0 0 34.8 512h442.4c13.3 0 22-13.6 16.8-25.5H129.2z" opacity=".2"/><g fill="#fff" opacity=".2"><ellipse cx="264.2" cy="103.8" rx="5" ry="9"/><ellipse cx="343.6" cy="277.6" rx="5" ry="9"/><ellipse cx="264.2" cy="233.6" rx="5" ry="9"/><ellipse cx="232.8" cy="256.1" rx="5" ry="9"/><ellipse cx="302.3" cy="194" rx="5" ry="9"/><ellipse cx="178.7" cy="277.6" rx="5" ry="9"/><ellipse cx="214.9" cy="170.5" rx="5" ry="9"/><ellipse cx="274.8" cy="325.4" rx="5" ry="9"/></g></svg>