<svg xmlns="http://www.w3.org/2000/svg" xml:space="preserve" x="0" y="0" version="1.1" viewBox="0 0 512 512"><circle fill="#d22215" cx="256" cy="256" r="256"/><path d="M384.9 170.3c-7.7 2.4-15.7 4.4-23.7 6.4-57 12-132.8-20.7-165.5 32.8-27.4 42.4-36 95.6-67 133.6l166 166A256.2 256.2 0 0 0 509 294.6L385 170.3z" fill="#a81411"/><path d="M341.6 152.3H170.4a60.9 60.9 0 0 0-61 60.9v85.6a60.9 60.9 0 0 0 61 60.9h171.2a60.9 60.9 0 0 0 61-60.9v-85.6a60.9 60.9 0 0 0-61-60.9zm-41.1 107.9-80.1 38.2c-2.2 1-4.6-.6-4.6-3v-78.7c0-2.4 2.5-4 4.6-3l80.2 40.7a3.2 3.2 0 0 1-.1 5.8z" fill="#fff"/><path d="M341.6 152.3h-87.3V231l46.3 23.5a3.2 3.2 0 0 1-.1 5.8l-46.2 22v77.5h87.3a60.9 60.9 0 0 0 61-60.9v-85.6a60.9 60.9 0 0 0-61-60.9z" fill="#d1d1d1"/></svg>