<svg xmlns="http://www.w3.org/2000/svg" width="113" height="113" version="1.1" viewBox="0 0 106 106"><g fill-rule="evenodd" stroke-dasharray="none" stroke-linecap="butt" stroke-linejoin="miter" stroke-miterlimit="4" stroke-opacity="1"><path d="M6 60c-3 4-2 7-1 10l44 31 41-18-3-2-1-3 3-4v-3L42 48 10 59l-2 1Z" fill="#a02c2c"/><path d="M50 89c-1 3-1 6 1 9l36-15v-6s3-2 2-3L53 88c-1 1-1 2-3 1z" fill="#f4eed7" fill-opacity="1"/><path d="M91 75 54 90l-1 1h-2l-1 5 1 5 38-15-1-5v-2l2-2 1-2zm-2 2-2 2-3 1-12 5 12-4 3-1v4L52 99l-1-4 14-5 13-5-13 4-14 6v-3h2l2-1 34-14zM72 89l-16 7 16-7 13-5-13 5z" fill="#decd87" fill-opacity="1" baseline-shift="baseline" clip-rule="nonzero" color="#000" color-interpolation="sRGB" color-interpolation-filters="linearRGB" color-rendering="auto" direction="ltr" display="inline" font-family="sans-serif" font-size="medium" font-stretch="normal" font-style="normal" font-variant="normal" font-weight="400" image-rendering="auto" letter-spacing="normal" opacity="1" overflow="visible" shape-rendering="auto" style="line-height:normal;text-indent:0;text-align:start;text-decoration-line:none;text-decoration-style:solid;text-decoration-color:#000;text-transform:none;block-progression:tb;white-space:normal;isolation:auto;mix-blend-mode:normal;solid-color:#000;solid-opacity:1" text-anchor="start" text-decoration="none" text-rendering="auto" transform="translate(-1 -2)" visibility="visible" word-spacing="normal" writing-mode="lr-tb"/><path d="M43 49 10 60l-1 1H7c-2 0-3 3-3 6l1 6 44 31h2l41-17v-3l-4-2 1 3-38 16-1-5 1-5h2l1-1 38-15v-2zm0 3 46 22-36 14-1 1-1-1-2 1-2 5 1 5L8 72l-2-5 2-4h2l1-1zM11 64l19 12 21 12-20-13-20-11Z" fill="#501616" fill-opacity="1" baseline-shift="baseline" clip-rule="nonzero" color="#000" color-interpolation="sRGB" color-interpolation-filters="linearRGB" color-rendering="auto" direction="ltr" display="inline" font-family="sans-serif" font-size="medium" font-stretch="normal" font-style="normal" font-variant="normal" font-weight="400" image-rendering="auto" letter-spacing="normal" opacity="1" overflow="visible" shape-rendering="auto" style="line-height:normal;text-indent:0;text-align:start;text-decoration-line:none;text-decoration-style:solid;text-decoration-color:#000;text-transform:none;block-progression:tb;white-space:normal;isolation:auto;mix-blend-mode:normal;solid-color:#000;solid-opacity:1" text-anchor="start" text-decoration="none" text-rendering="auto" transform="translate(-1 -2)" visibility="visible" word-spacing="normal" writing-mode="lr-tb"/><path d="M7 42h4l35-1 38 24-1 1-2 5 2 3-49 12L5 52c1-3-1-7 2-10Z" fill="#0a0"/><path d="m36 75 3-1 43-7-1 6-44 11-3-4c0-2 0-3 2-5z" fill="#f4eed7" fill-opacity="1"/><path d="M85 68a1578 1578 0 0 0-47 8h-1c-2 1-3 3-2 5 0 3 1 4 2 5l46-10c-1-4 0-6 2-8zm-3 2-1 3-6 1-7 2 7-1 6-1v1L38 85l-2-2a418 418 0 0 1 24-5l-12 2-12 2v-1l1-4 2 1 1-1zm-6 3-16 2-22 4a245 245 0 0 0 38-6z" fill="#decd87" fill-opacity="1" baseline-shift="baseline" clip-rule="nonzero" color="#000" color-interpolation="sRGB" color-interpolation-filters="linearRGB" color-rendering="auto" direction="ltr" display="inline" font-family="sans-serif" font-size="medium" font-stretch="normal" font-style="normal" font-variant="normal" font-weight="400" image-rendering="auto" letter-spacing="normal" opacity="1" overflow="visible" shape-rendering="auto" style="line-height:normal;text-indent:0;text-align:start;text-decoration-line:none;text-decoration-style:solid;text-decoration-color:#000;text-transform:none;block-progression:tb;white-space:normal;isolation:auto;mix-blend-mode:normal;solid-color:#000;solid-opacity:1" text-anchor="start" text-decoration="none" text-rendering="auto" transform="translate(-1 -2)" visibility="visible" word-spacing="normal" writing-mode="lr-tb"/><path d="m47 42-36 1-1 1-1-1c-3 1-3 4-3 5-1 2 0 6 1 7l27 33 4 1 49-12v-2l-4-2v3L37 86l-2-3v-5l2-2h2l1-1 46-7v-2zm-1 2 37 23-44 6-1 1h-2l-3 4c-1 4 0 6 2 8L8 54v-5l1-3h2l1-1zm-35 3 13 13 13 14c1-1-8-10-12-15-5-4-13-13-14-12Z" fill="#050" fill-opacity="1" baseline-shift="baseline" clip-rule="nonzero" color="#000" color-interpolation="sRGB" color-interpolation-filters="linearRGB" color-rendering="auto" direction="ltr" display="inline" font-family="sans-serif" font-size="medium" font-stretch="normal" font-style="normal" font-variant="normal" font-weight="400" image-rendering="auto" letter-spacing="normal" opacity="1" overflow="visible" shape-rendering="auto" style="line-height:normal;text-indent:0;text-align:start;text-decoration-line:none;text-decoration-style:solid;text-decoration-color:#000;text-transform:none;block-progression:tb;white-space:normal;isolation:auto;mix-blend-mode:normal;solid-color:#000;solid-opacity:1" text-anchor="start" text-decoration="none" text-rendering="auto" transform="translate(-1 -2)" visibility="visible" word-spacing="normal" writing-mode="lr-tb"/><path d="M44 27 6 33c-1 3-3 6 0 12l40 30 45-13-3-2 2-11z" fill="#0055d4"/><path d="m47 63-1 5 1 4 41-11v-4l1-4z" fill="#f4eed7" fill-opacity="1"/><path d="M92 54h-2L48 64c-1 1-2 2-2 6l2 5 42-11v-5l1-3zm-3 2-1 3h-2l-7 2 7-2h2v2l-14 3-15 4 15-3 14-4v1L49 73l-1-3v-4zm-23 7 10-2-10 2z" fill="#decd87" fill-opacity="1" baseline-shift="baseline" clip-rule="nonzero" color="#000" color-interpolation="sRGB" color-interpolation-filters="linearRGB" color-rendering="auto" direction="ltr" display="inline" font-family="sans-serif" font-size="medium" font-stretch="normal" font-style="normal" font-variant="normal" font-weight="400" image-rendering="auto" letter-spacing="normal" opacity="1" overflow="visible" shape-rendering="auto" style="line-height:normal;text-indent:0;text-align:start;text-decoration-line:none;text-decoration-style:solid;text-decoration-color:#000;text-transform:none;block-progression:tb;white-space:normal;isolation:auto;mix-blend-mode:normal;solid-color:#000;solid-opacity:1" text-anchor="start" text-decoration="none" text-rendering="auto" transform="translate(-1 -2)" visibility="visible" word-spacing="normal" writing-mode="lr-tb"/><path d="M45 29 8 34c-2 0-3 4-3 7l2 7 40 30 47-13v-2l-4-3v3L47 75l-1-5 1-6 47-10v-2zm0 1 45 22-45 10-2 6 2 6L8 46l-1-5c0-1 0-3 2-5Zm-34 7 14 12 19 12-17-14-16-10z" fill="#025" fill-opacity="1" baseline-shift="baseline" clip-rule="nonzero" color="#000" color-interpolation="sRGB" color-interpolation-filters="linearRGB" color-rendering="auto" direction="ltr" display="inline" font-family="sans-serif" font-size="medium" font-stretch="normal" font-style="normal" font-variant="normal" font-weight="400" image-rendering="auto" letter-spacing="normal" opacity="1" overflow="visible" shape-rendering="auto" style="line-height:normal;text-indent:0;text-align:start;text-decoration-line:none;text-decoration-style:solid;text-decoration-color:#000;text-transform:none;block-progression:tb;white-space:normal;isolation:auto;mix-blend-mode:normal;solid-color:#000;solid-opacity:1" text-anchor="start" text-decoration="none" text-rendering="auto" transform="translate(-1 -2)" visibility="visible" word-spacing="normal" writing-mode="lr-tb"/><path d="M50 16 14 27l-1 1h-3c-2 2-2 5-1 7l53 26 39-15-2-1 2-3v-4z" fill="#fc0"/><path d="M51 18 14 28l-1 1h-3l-1 2v2l1 5 52 26h3l1-1h1l36-14v-1l-2-1-2 1-34 13-2-3 1-3 40-14v-2L51 18Zm0 1 49 22-36 12-2 2-1 3 1 3-51-25v-3l1-2h2l1-2 36-10ZM15 30v1l21 11 25 11-24-12-22-11Z" fill="#a80" fill-opacity="1" baseline-shift="baseline" clip-rule="nonzero" color="#000" color-interpolation="sRGB" color-interpolation-filters="linearRGB" color-rendering="auto" direction="ltr" display="inline" font-family="sans-serif" font-size="medium" font-stretch="normal" font-style="normal" font-variant="normal" font-weight="400" image-rendering="auto" letter-spacing="normal" opacity="1" overflow="visible" shape-rendering="auto" style="line-height:normal;text-indent:0;text-align:start;text-decoration-line:none;text-decoration-style:solid;text-decoration-color:#000;text-transform:none;block-progression:tb;white-space:normal;isolation:auto;mix-blend-mode:normal;solid-color:#000;solid-opacity:1" text-anchor="start" text-decoration="none" text-rendering="auto" transform="translate(-1 -2)" visibility="visible" word-spacing="normal" writing-mode="lr-tb"/><path d="M101 40 63 54v2l1 2 35-12 2-6z" fill="#f4eed7"/><path d="M103 42 64 55v3l1 3 35-13 2-2 1-2v-2zm-1 1-1 2-2 3-33 11-1-1v-2zm-18 7-17 6 17-6 16-6-16 6zm15-4-6 3-27 9a735 735 0 0 0 33-12z" fill="#decd87" fill-opacity="1" baseline-shift="baseline" clip-rule="nonzero" color="#000" color-interpolation="sRGB" color-interpolation-filters="linearRGB" color-rendering="auto" direction="ltr" display="inline" font-family="sans-serif" font-size="medium" font-stretch="normal" font-style="normal" font-variant="normal" font-weight="400" image-rendering="auto" letter-spacing="normal" opacity="1" overflow="visible" shape-rendering="auto" style="line-height:normal;text-indent:0;text-align:start;text-decoration-line:none;text-decoration-style:solid;text-decoration-color:#000;text-transform:none;block-progression:tb;white-space:normal;isolation:auto;mix-blend-mode:normal;solid-color:#000;solid-opacity:1" text-anchor="start" text-decoration="none" text-rendering="auto" transform="translate(-1 -2)" visibility="visible" word-spacing="normal" writing-mode="lr-tb"/><path d="m53 4-41 8c-3 3-4 7-2 11l42 28 48-12-4-3v-5l3-5z" fill="#d40000"/><path d="m54 40 43-11c-2 4-1 6-1 8L53 49v-4Z" fill="#f4eed7"/><path d="M100 30 55 41l-2 5 1 6 44-12-1-5 2-3 1-1 1-1h-1zm-4 2v2a373 373 0 0 0-36 8l18-4 18-4v5L55 49v-1l5-1 8-2-9 2-4 1v-2l1-3zM72 42l-15 3 15-3 17-4-17 4z" fill="#decd87" fill-opacity="1" baseline-shift="baseline" clip-rule="nonzero" color="#000" color-interpolation="sRGB" color-interpolation-filters="linearRGB" color-rendering="auto" direction="ltr" display="inline" font-family="sans-serif" font-size="medium" font-stretch="normal" font-style="normal" font-variant="normal" font-weight="400" image-rendering="auto" letter-spacing="normal" opacity="1" overflow="visible" shape-rendering="auto" style="line-height:normal;text-indent:0;text-align:start;text-decoration-line:none;text-decoration-style:solid;text-decoration-color:#000;text-transform:none;block-progression:tb;white-space:normal;isolation:auto;mix-blend-mode:normal;solid-color:#000;solid-opacity:1" text-anchor="start" text-decoration="none" text-rendering="auto" transform="translate(-1 -2)" visibility="visible" word-spacing="normal" writing-mode="lr-tb"/><path d="m54 5-42 9-2 6 1 6 42 28 49-13-1-1-3-2v2L54 51l-1-4 2-6 46-11v-2zm0 2 44 21-44 11s-3 4-3 8l1 5-39-27-2-5 2-5zm-40 9 19 11 20 12-19-12-20-11z" fill="#a00" fill-opacity="1" baseline-shift="baseline" clip-rule="nonzero" color="#000" color-interpolation="sRGB" color-interpolation-filters="linearRGB" color-rendering="auto" direction="ltr" display="inline" font-family="sans-serif" font-size="medium" font-stretch="normal" font-style="normal" font-variant="normal" font-weight="400" image-rendering="auto" letter-spacing="normal" opacity="1" overflow="visible" shape-rendering="auto" style="line-height:normal;text-indent:0;text-align:start;text-decoration-line:none;text-decoration-style:solid;text-decoration-color:#000;text-transform:none;block-progression:tb;white-space:normal;isolation:auto;mix-blend-mode:normal;solid-color:#000;solid-opacity:1" text-anchor="start" text-decoration="none" text-rendering="auto" transform="translate(-1 -2)" visibility="visible" word-spacing="normal" writing-mode="lr-tb"/></g></svg>