<?xml version="1.0" encoding="UTF-8" standalone="no"?>
<!-- Created with sK1/UniConvertor (http://sk1project.org/) -->

<svg
   xmlns:dc="http://purl.org/dc/elements/1.1/"
   xmlns:cc="http://creativecommons.org/ns#"
   xmlns:rdf="http://www.w3.org/1999/02/22-rdf-syntax-ns#"
   xmlns:svg="http://www.w3.org/2000/svg"
   xmlns="http://www.w3.org/2000/svg"
   xmlns:sodipodi="http://sodipodi.sourceforge.net/DTD/sodipodi-0.dtd"
   xmlns:inkscape="http://www.inkscape.org/namespaces/inkscape"
   width="486.13925"
   height="500"
   viewBox="0 0 388.91141 399.99999"
   id="svg2"
   version="1.1"
   inkscape:version="0.91 r13725"
   sodipodi:docname="Scales2.svg"
   style="fill-rule:evenodd">
  <metadata
     id="metadata106">
    <rdf:RDF>
      <cc:Work
         rdf:about="">
        <dc:format>image/svg+xml</dc:format>
        <dc:type
           rdf:resource="http://purl.org/dc/dcmitype/StillImage" />
        <dc:title></dc:title>
      </cc:Work>
    </rdf:RDF>
  </metadata>
  <defs
     id="defs104">
    <inkscape:perspective
       sodipodi:type="inkscape:persp3d"
       inkscape:vp_x="0 : 526.18127 : 1"
       inkscape:vp_y="0 : 1000 : 0"
       inkscape:vp_z="744.09496 : 526.18127 : 1"
       inkscape:persp3d-origin="372.04749 : 350.78752 : 1"
       id="perspective108" />
  </defs>
  <sodipodi:namedview
     pagecolor="#ffffff"
     bordercolor="#666666"
     borderopacity="1"
     objecttolerance="10"
     gridtolerance="10"
     guidetolerance="10"
     inkscape:pageopacity="0"
     inkscape:pageshadow="2"
     inkscape:window-width="1600"
     inkscape:window-height="837"
     id="namedview102"
     showgrid="false"
     inkscape:zoom="1.34"
     inkscape:cx="243.06963"
     inkscape:cy="250"
     inkscape:window-x="-8"
     inkscape:window-y="-8"
     inkscape:window-maximized="1"
     inkscape:current-layer="g8"
     fit-margin-top="0"
     fit-margin-left="0"
     fit-margin-right="0"
     fit-margin-bottom="0" />
  <g
     id="g4"
     transform="translate(-1331.362,780.95277)">
    <g
       id="g6">
      <g
         id="g8">
        <g
           style="fill:#eac102;fill-opacity:1;stroke:#000000;stroke-width:1.00055766;stroke-miterlimit:4;stroke-dasharray:none;stroke-opacity:1"
           id="balanza"
           transform="matrix(0.79681186,0,0,0.79681186,889.56517,-1610.8321)">
          <ellipse
             style="fill:#eac102;fill-opacity:1;stroke:#000000;stroke-width:1.00055766;stroke-miterlimit:4;stroke-dasharray:none;stroke-opacity:1"
             id="ellipse3482"
             ry="29"
             rx="75"
             cy="1501"
             cx="644" />
          <path
             inkscape:connector-curvature="0"
             style="fill:#eac102;fill-opacity:1;fill-rule:evenodd;stroke:#000000;stroke-width:1.00055766;stroke-miterlimit:4;stroke-dasharray:none;stroke-opacity:1"
             id="path3484"
             d="m 627,1244 -72,253 4,6 4,5 4,5 5,4 10,9 11,6 12,5 13,4 13,2 13,0 13,-1 12,-2 12,-4 12,-5 10,-6 10,-8 4,-5 4,-4 3,-6 3,-5 -71,-253 -29,0 z m 21,6 65,241 -65,0 0,-241 z m -11,-2 0,243 -70,0 70,-243 z" />
          <ellipse
             style="fill:#eac102;fill-opacity:1;stroke:#000000;stroke-width:1.00055766;stroke-miterlimit:4;stroke-dasharray:none;stroke-opacity:1"
             id="ellipse3486"
             ry="29"
             rx="75"
             cy="1501"
             cx="958" />
          <path
             inkscape:connector-curvature="0"
             style="fill:#eac102;fill-opacity:1;fill-rule:evenodd;stroke:#000000;stroke-width:1.00055766;stroke-miterlimit:4;stroke-dasharray:none;stroke-opacity:1"
             id="path3488"
             d="m 942,1244 -72,253 3,6 4,5 5,5 5,4 10,9 11,6 12,5 13,4 12,2 13,0 13,-1 13,-2 12,-4 11,-5 11,-6 9,-8 4,-5 4,-4 4,-6 3,-5 -71,-253 -29,0 z m 21,6 65,241 -65,0 0,-241 z m -11,-2 -1,243 -69,0 70,-243 z" />
          <path
             inkscape:connector-curvature="0"
             style="fill:#eac102;fill-opacity:1;stroke:#000000;stroke-width:1.00055766;stroke-miterlimit:4;stroke-dasharray:none;stroke-opacity:1"
             id="path3490"
             d="m 614,1212 2,36 368,0 0,-36 -42,0 -10,7 -11,5 -6,3 -7,2 -8,1 -9,2 -18,-3 -18,-3 -16,-4 -15,-3 -49,0 -19,4 -18,3 -17,3 -18,3 -18,-5 -13,-4 -5,-3 -4,-2 -4,-3 -3,-3 -42,0 z" />
          <path
             inkscape:connector-curvature="0"
             style="fill:#eac102;fill-opacity:1;fill-rule:evenodd;stroke:#000000;stroke-width:1.00055766;stroke-miterlimit:4;stroke-dasharray:none;stroke-opacity:1"
             id="path3492"
             d="m 791,1100 -9,189 18,76 19,-76 -10,-188 6,-5 5,-5 3,-3 2,-4 1,-4 1,-6 -1,-8 -1,-6 -3,-6 -3,-4 -4,-4 -5,-2 -5,-2 -5,0 -5,0 -5,2 -5,2 -4,4 -4,4 -3,6 -2,6 -1,8 2,6 2,5 1,4 3,3 5,4 7,4 z m 24,-28 0,-4 -1,-3 -2,-2 -2,-3 -2,-1 -3,-1 -3,-1 -2,0 -3,0 -3,1 -3,1 -2,1 -2,3 -2,2 -1,3 0,4 0,3 1,3 2,3 2,2 2,2 3,1 3,1 3,0 2,0 3,-1 3,-1 2,-2 2,-2 2,-3 1,-3 0,-3 z" />
          <path
             inkscape:connector-curvature="0"
             style="fill:#eac102;fill-opacity:1;stroke:#000000;stroke-width:1.00055766;stroke-miterlimit:4;stroke-dasharray:none;stroke-opacity:1"
             id="path3512"
             d="m 783,1248 34,0 0,-29 -34,0 0,29 z" />
        </g>
      </g>
    </g>
  </g>
</svg>
