<svg xmlns="http://www.w3.org/2000/svg" data-name="Layer 1" viewBox="0 0 631 134"><path d="M65 121a11 11 0 1 1-11-11 11 11 0 0 1 11 11Z" fill="#d51e48"/><circle fill="#d51e48" cx="146" cy="121" r="11"/><path d="M53 47a3 3 0 0 1 1-2 3 3 0 0 1 2-1h30a3 3 0 0 1 2 2 3 3 0 0 1 0 2L73 75a3 3 0 0 1-4 1 46 46 0 0 1-16-28v-1Zm49 40a44 44 0 0 1-22-4 3 3 0 0 1-1-1 3 3 0 0 1 0-2l18-32a3 3 0 0 1 5 0l17 31a3 3 0 0 1-1 3 45 45 0 0 1-16 5Zm31-17a46 46 0 0 1-4 4 3 3 0 0 1-2 1 3 3 0 0 1-2-1l-14-26a3 3 0 0 1 0-2 3 3 0 0 1 2-2h27a3 3 0 0 1 2 1 3 3 0 0 1 1 2 46 46 0 0 1-10 23Z" fill="#d51e48"/><path d="M152 44a54 54 0 0 1-107 1C43 19 25 1 0 0v19c16 1 25 11 27 28 3 38 35 66 71 66h7c36-3 63-33 65-69Zm199 10c19-19 46-3 46 15v52c0 5 1 8 4 11h-32c3-3 3-6 3-11V69c0-14-19-14-19 0v52a13 13 0 0 0 5 11h-33c3-2 5-6 5-11V69c0-14-20-14-20 0v52c0 5 1 9 3 11h-31c3-4 4-6 4-11V75c0-10-2-15-7-18l31-10v7c10-10 29-12 40 0m56-25c0-8 6-15 13-15s12 7 12 15-5 14-12 14-13-6-13-14m77 92c-4 3-13 1-13-8V56h12l4-9h-17V26l-29 30h4c2 0 3 1 3 5v53c0 10 9 19 21 19s15-4 18-8a31 31 0 0 0 2-4l-3-2-2 2" fill="#d51e48"/><path d="M516 53V11l-31 13c5 2 6 5 6 13v84c0 5-1 8-4 11h31c-2-3-2-6-2-11V69c0-14 19-14 19 0v52c0 5-2 8-5 11h32a14 14 0 0 1-5-11V69c0-19-25-33-41-16m43-7c-6-1-10-5-10-12s5-12 11-12 11 5 11 12c-1 10-3 17-10 22-1 1-2 0 0-2a7 7 0 0 0 1-6l-3-2m66 81 2-1-2-1h-1v2Zm-1 4h-1v-7h3c1 0 2 0 2 2a2 2 0 0 1-2 2l2 3h-1l-2-3h-1Zm1 1c3 0 5-2 5-5s-2-5-5-5-4 2-4 5 2 5 4 5m-5-5c0-3 2-6 5-6s6 3 6 6-3 6-6 6-5-2-5-6m-368-24c0-30-47-37-52-66-6-31 28-43 44-35 10 6 15 3 20 0v40a2 2 0 0 1-3 0c-4-11-8-23-18-30-19-13-32 9-8 28 13 10 40 26 43 50 0 1 3 25-17 38-6 4-17 7-29 5-14-2-15-7-22-8-6-1-11 6-12 7V89a2 2 0 0 1 3 1 49 49 0 0 0 18 28c7 6 33 9 33-14m350 10c-2-20-32-25-35-44-3-22 22-28 33-23 8 4 11 2 15 0v26a1 1 0 0 1-2 1c-3-8-6-16-13-20-12-7-22 6-5 17 14 9 26 20 28 34 0 1 2 16-12 25-4 3-12 4-20 3-11-1-11-5-16-5-4-1-8 3-9 4v-28a2 2 0 0 1 2 1 32 32 0 0 0 13 18c5 4 22 6 21-9M435 47l-32 10c5 3 7 8 7 18v46c0 5-1 8-4 11h34c-4-2-5-6-5-11Z" fill="#d51e48"/></svg>