<svg xmlns="http://www.w3.org/2000/svg" xml:space="preserve" viewBox="0 0 312 52"><path d="M159.1 45.3h-.4c-.2-.9-.7-1.8-2.1-1.8-1.7 0-2.6 1.4-2.6 3.3 0 1.3.4 3.4 2.6 3.4 1.5 0 1.9-.9 2.3-2h.4l-.2 2c-.8.3-1.7.5-2.6.5-1.3 0-2.3-.3-3-1-.7-.6-1-1.6-1-2.8 0-1.3.4-2.2 1.1-2.9.7-.7 1.7-1 3.1-1 .9 0 1.8.1 2.4.4v1.9zm4.9 1.9v2.1c0 .8.1.8 1.1.9v.4h-3.7v-.4c1.1 0 1.1-.1 1.1-.9v-4.8c0-.8-.1-.8-1.1-.9v-.4h4c2 0 2.7.8 2.7 1.9 0 1-.8 1.7-1.8 1.8 1.1.3 1.4.9 1.5 1.9l.4 1.1c.1.2.5.3.8.3v.4h-1.1c-.7 0-1.1-.3-1.3-.9l-.5-2c-.2-.3-.5-.6-1.1-.6l-1 .1zm1-.5c1 0 1.6-.5 1.6-1.5 0-1.2-.9-1.5-1.6-1.5-.7 0-1 0-1 .5v2.5h1zm11.8-3.5V45h-.4c-.2-1.2-.7-1.4-1.8-1.4h-1.1c-.3 0-.3.1-.3.4v2.5h1.4c.9 0 1.1-.2 1.2-1h.4v2.4h-.4c-.1-.8-.3-1-1.2-1h-1.4V49l.2.8c.2.1.6.2 1.3.2.8 0 1.3-.1 1.6-.3.2-.2.4-.7.5-1.2h.4l-.1 2h-6.4v-.4c1.1 0 1.1-.1 1.1-.9v-4.9c0-.8-.1-.8-1.1-.9V43h6.2l-.1.2zm6.7 0c1.3 0 2.3.3 3 .9.6.6.9 1.5.9 2.6 0 1.6-.6 2.6-1.4 3.1-.8.6-1.9.7-3 .7h-3.7v-.4c1.1 0 1.1-.1 1.1-.9v-4.7c0-.8-.1-.8-1.1-.9v-.4h4.2zm-1.7 6c0 .8.3.9 1.2.9 1.3 0 2.8-.5 2.8-3.2 0-1.8-.6-3.2-2.7-3.2-1.2 0-1.3.1-1.3.6v4.9zm10.1.1c0 .8.1.8 1.1.9v.4h-3.7v-.4c1.1 0 1.1-.1 1.1-.9v-4.8c0-.8-.1-.8-1.1-.9v-.4h3.7v.4c-1.1 0-1.1.1-1.1.9v4.8zm7.2 0c0 .8.1.8 1.4.9v.4h-4.1v-.4c1.3 0 1.4-.1 1.4-.9v-5.6h-.8c-1.1 0-1.4.3-1.6 1.4h-.4v-2h6.9v2h-.4c-.1-1.1-.4-1.4-1.6-1.4h-.7l-.1 5.6zm18.4-6.1v.4c-1 0-1.1.1-1.1.9v3.3c0 1.1-.3 1.8-.9 2.3-.5.4-1.4.6-2.4.6s-1.9-.2-2.4-.6c-.6-.5-.9-1.2-.9-2.3v-3.3c0-.8-.1-.8-1.1-.9v-.4h3.7v.4c-1.1 0-1.1.1-1.1.9v3.4c0 1.5.5 2.4 1.8 2.4 1.4 0 1.8-.9 1.8-2.4v-3.4c0-.8-.1-.8-1.1-.9v-.4h3.7zm4.2 0a194 194 0 0 0 4 5.6v-3.4l-.1-1.3c0-.3-.3-.4-.6-.5h-.6v-.4h2.9v.4h-.5c-.3 0-.5.2-.5.4l-.1 1.3v5.2h-1.1l-4.5-6.3v4.1l.1 1.3c0 .3.3.4.6.5h.6v.4H219v-.4h.5c.3 0 .5-.1.5-.5l.1-1.3v-3.8c0-.8-.1-.8-1.1-.9v-.4h2.7zm10.1 6.1c0 .8.1.8 1.1.9v.4h-3.7v-.4c1.1 0 1.1-.1 1.1-.9v-4.8c0-.8-.1-.8-1.1-.9v-.4h3.7v.4c-1.1 0-1.1.1-1.1.9v4.8zm4.2.4c-.6-.6-.9-1.6-.9-2.8s.3-2.2.9-2.8a4 4 0 0 1 2.9-1c1.3 0 2.2.4 2.9 1s.9 1.6.9 2.8-.3 2.2-.9 2.8-1.6 1-2.9 1c-1.3.1-2.2-.3-2.9-1zm.6-2.8c0 1.6.5 3.4 2.3 3.4s2.3-1.7 2.3-3.4-.5-3.4-2.3-3.4c-1.8.1-2.3 1.8-2.3 3.4zm10.8-3.7a194 194 0 0 0 4 5.6v-3.4l-.1-1.3c0-.3-.3-.4-.6-.5h-.6v-.4h2.9v.4h-.5c-.3 0-.5.2-.5.4l-.1 1.3v5.2h-1l-4.5-6.3v4.1l.1 1.3c0 .3.3.4.6.5h.6v.4h-3v-.4h.5c.3 0 .5-.1.5-.5l.1-1.3v-3.8c0-.8-.1-.8-1.1-.9v-.4h2.7zm-140.5-8.8v-.9c1.7-.1 1.9-.2 1.9-1.4v-12h-.1l-5 13.8h-1.4l-5.2-13.8H97v8.2l.1 3.7c.1.9.3 1.2 1 1.3l1.3.1v.9h-5.7v-.8l.9-.1c.6-.1.8-.4.9-1.3l.1-3.7v-8.3c0-1.2-.2-1.4-1.9-1.4v-.9h6.3l1.3 3.5 2.9 7.4h.1l2-5.6 1.9-5.3h6.3v.9c-1.7.1-1.9.2-1.9 1.4v12c0 1.2.2 1.4 1.9 1.4v1l-7.6-.1zm22.4-7c0 4.6-2.3 7.4-7 7.4s-7-2.8-7-7.4 2.3-7.4 7-7.4 7 2.8 7 7.4zm-3.7 0c0-2.6-.4-6.4-3.4-6.4s-3.3 3.8-3.4 6.4c0 2.8.4 6.4 3.4 6.4 3.1 0 3.4-3.6 3.4-6.4zm17.8 2.5c0 3.5-2.1 4.9-5.9 4.9-4.1 0-5.9-1.4-5.9-4.9v-7.6c0-1-.2-1.1-1.5-1.2v-.8h6.4v.8c-1.4 0-1.5.2-1.5 1.2v7.8c0 2.3.8 3.7 2.6 3.7 1.9 0 2.6-1.4 2.6-3.7v-7.8c0-1-.2-1.1-1.5-1.2v-.8h6.4v.8c-1.4 0-1.5.2-1.5 1.2l-.2 7.6zm7.5-9.6 6.4 9.7h.1v-4.5l-.1-3.2c0-.7-.3-1-.9-1.1l-1.1-.1v-.8h4.9v.8l-.7.1c-.5 0-.7.4-.7 1.1l-.1 3.2v9h-2.3L149 23.1v6.3l.1 3.2c0 .7.3 1 .9 1.1l1.1.1v.8h-4.9v-.8l.7-.1c.5 0 .7-.4.7-1.1l.1-3.2v-7c0-1-.2-1.1-1.6-1.2v-.8l4.8-.1zm18 12.2c0 .7.1 1 .8 1.1l1.1.1v.8h-7.2v-.8l1.1-.1c.6 0 .8-.3.8-1.1V21.3h-.8c-1.9 0-2.1.9-2.9 2.9h-.8v-3.8h12.1v3.8h-.8c-.7-2-1-2.9-2.9-2.9h-.8v11.2h.3zm3.6 1.9v-.8c1.1 0 1.3-.2 1.7-1.1l1.9-5.4 2.4-6.9h2.6l4 12.4c.3.9.5 1 1.6 1v.8h-6.5v-.8l1.2-.1c.4 0 .5-.3.3-.7l-1.1-3.4h-4l-1 3.4c-.1.5-.1.7.4.7l1.2.1v.8h-4.7zm7.8-6-1.6-5.3-1.7 5.3h3.3zm12 4.1c0 1 .2 1.1 1.6 1.2v.8h-6.5v-.8c1.4 0 1.6-.2 1.6-1.2V22.3c0-1-.2-1.1-1.6-1.2v-.8h6.5v.8c-1.4 0-1.6.2-1.6 1.2v10.2zm7.7-12.2 6.4 9.7h.1v-4.5l-.1-3.2c0-.7-.3-1-.9-1.1l-1.1-.1v-.8h4.9v.8l-.7.1c-.5 0-.7.4-.7 1.1l-.1 3.2v9h-2.3l-7.4-11.4h-.1v6.3l.1 3.2c0 .7.3 1 .9 1.1l1.1.1v.8h-4.9v-.8l.7-.1c.5 0 .7-.4.7-1.1l.1-3.2v-7c0-1-.2-1.1-1.6-1.2v-.8l4.9-.1zm14.1 14.1v-.9c1.3-.1 1.6-.3 2-1.2l2.3-6.4 2.8-8.1h3l4.7 14.6c.3 1 .6 1.1 1.9 1.1v.9h-7.6v-.9l1.4-.1c.5 0 .6-.3.4-.9l-1.2-4h-4.7c-.4 1.4-.9 2.7-1.1 4-.1.5-.1.8.4.9l1.4.1v.9h-5.7zm9.2-7-1.9-6.2h-.1l-2 6.2h4zm19.4 7v-.8c1.4 0 1.6-.2 1.6-1.2V22.3L240 34.1h-1.2l-4.4-11.8v7l.1 3.2c0 .7.3 1 .9 1.1l1.1.1v.8h-4.9v-.8l.7-.1c.5 0 .7-.4.7-1.1l.1-3.2v-7c0-1-.2-1.1-1.6-1.2v-.8h5.4l1.1 3 2.4 6.3 1.7-4.8 1.6-4.5h5.3v.8c-1.4 0-1.6.2-1.6 1.2v10.2c0 1 .2 1.1 1.6 1.2v.8l-6.3-.1zm9.3-12.1c0-1-.2-1.1-1.6-1.2v-.8h11v3.8h-.8c-.6-2-1-2.9-3.1-2.9H256c-.6 0-.7.1-.7.7v4.6h2c1.3 0 1.5-.3 1.9-1.8h.8v4.7h-.8c-.3-1.5-.6-1.8-1.9-1.8h-2V32c0 1.3.6 1.5 2.5 1.5 2.4 0 2.8-1.1 3.5-3.3h.8l-.3 4.3h-11.4v-.8c1.4 0 1.6-.2 1.6-1.2V22.3zm16 10.2c0 1 .2 1.1 1.6 1.2v.8h-6.5v-.8c1.4 0 1.6-.2 1.6-1.2V22.3c0-1-.2-1.1-1.6-1.2v-.8h7.1c2 0 3.2.4 4 1.1.7.7 1 1.5 1 2.6 0 1.8-1.4 3.1-3.4 3.4 2.1.5 2.5 1.9 2.8 3.5.2 1.1.5 1.8 1 2.3.3.3.6.4 1 .5v.8h-1.5c-2.1 0-3-.5-3.5-2l-.6-2.9c-.3-1.1-.8-1.6-1.8-1.6H268v4.5zm0-5.5h1c2 0 2.7-1.2 2.7-2.9 0-2.1-1.1-2.9-2.4-2.9-1.1 0-1.3.3-1.3.8v5zm14.3 5.5c0 1 .2 1.1 1.6 1.2v.8h-6.5v-.8c1.4 0 1.6-.2 1.6-1.2V22.3c0-1-.2-1.1-1.6-1.2v-.8h6.5v.8c-1.4 0-1.6.2-1.6 1.2v10.2zm15-2.7-.3 4c-1.2.7-3.4 1-4.8 1-5.2 0-7.5-2.9-7.5-7.2 0-2 .5-4 1.7-5.4s3.2-2.1 6-2.1c1 0 3.2.2 4.4.9v3.7h-.8c-.5-1.5-1.2-3.6-3.8-3.6-3.7 0-4 4.8-4 6.3 0 2.3.5 6.6 4.1 6.6 2.3 0 3.2-1.8 4-4h1v-.2zm.6 4.6v-.8c1.1 0 1.3-.2 1.7-1.1l1.9-5.4 2.4-6.9h2.6l4 12.4c.3.9.5 1 1.6 1v.8h-6.5v-.8l1.2-.1c.4 0 .5-.3.3-.7l-1.1-3.4h-4l-1 3.4c-.1.5-.1.7.4.7l1.2.1v.8h-4.7zm7.8-6-1.6-5.3-1.7 5.3h3.3z"/><path d="M50.3.5 0 50.7l100.5.1z" fill="#fff"/><path d="M81.8 32.1 63.1 50.8h5.3l16.1-16.1zm3.1 3.1L69.4 50.8h5.3l12.9-12.9zm3.2 3.2L75.7 50.8H81l9.8-9.8zm3.2 3.1L82 50.8h5.3l6.6-6.6zm3.1 3.2-6.1 6.1h5.4l3.4-3.5zm-48.8 0c-.9 1.4-2.3 4.5-2.7 6h.3L59 34.9c-1.8.3-3.5.9-5.1 1.9a29.5 29.5 0 0 0-8.3 7.9m52 3.1-3 3h5.9L99 49.3zM56 6.3l-2.7-2.7-47 47.2h.5L41.6 16c1.6 0 3.1.1 4.6.3l9.8-10zm-3.1-3.1L50.5.8l-.2-.3L0 50.8h.5l34.7-34.7 4.9-.1L52.9 3.2zm6.3 6.3-2.7-2.7-43.9 44h.5l34.3-34.3c1.4.2 2.7.5 4 .9l7.8-7.9zm-3.1 9.4 6.2-6.2-2.7-2.7L19 50.8h.5l28.7-28.7 3.1 1.8 2-2c-1.6-.1-3.3-.2-4.9 0l4.2-4.2 3.5 1.2m6.8-5.8L25.3 50.8h.5l26.4-26.4 1.5.9c1.2-1 1.2-1.4 2.7-2.2.6-.3 1.5-.5 2.5-.6l6.7-6.7-2.7-2.7zm-8.3 8.8 2.6-2.6 1.5.6c.2 1.9-1.7 2.1-4.1 2M66 16.3 31.6 50.8h.4l28.3-28.3c1.5 0 3.2.1 4.6.3l3.8-3.8-2.7-2.7zm5.6 25 9.7-9.7-2.7-2.7-4.9 4.9-4.3 4.3-12.6 12.7h5.3l9.2-9.2a8.8 8.8 0 0 0-1.6-3.2l4-4-.3 1.6c-.8 2.4-1 3.6-1.8 5.3m6.5-12.9L75.7 26l-.3-.3L62.2 39 50.5 50.8h5.3L69 37.6c-.9-.8-1.9-1.4-3-1.9l7.3-7.3c.5 1.2.7 2.6.6 4.3l4.2-4.3zm-5.5-5.6-.3-.3L60 34.9 44.2 50.8h5.3l15.4-15.4c-1.4-.4-2.9-.6-4.3-.5l9.9-9.9c1 .7 1.8 1.5 2.3 2.5l2.2-2.2-2.4-2.5z" fill="#b81237"/><path d="M69.2 19.4 37.9 50.8h.5L66.2 23l1.3.4c.8.3 1.4.7 2.1 1.1l2.3-2.3-2.7-2.8z" fill="#b81237"/></svg>