<svg xmlns="http://www.w3.org/2000/svg" width="107" height="44" viewBox="0 0 107 44">
  <g fill="none" fill-rule="evenodd" transform="translate(0 7)">
    <polygon fill="#006937" points="0 0 11.717 0 15.543 17.946 15.663 17.946 21.042 0 34.554 0 39.854 17.946 39.975 17.946 43.761 0 54.642 0 47.826 28.732 32.561 28.732 27.42 11.261 27.3 11.261 22.118 28.732 6.735 28.732"/>
    <polyline fill="#EBA900" points="54.584 .013 69.969 .013 75.149 17.483 75.27 17.483 80.41 .013 95.675 .013 102.491 28.745 91.61 28.745 87.825 10.798 87.704 10.798 82.404 28.745 68.894 28.745 63.512 10.798 63.393 10.798 59.565 28.745 47.849 28.745"/>
    <path fill="#006937" d="M103.694725,27.0314539 C103.694725,26.207279 104.316328,25.5868669 105.113333,25.5868669 C105.89907,25.5868669 106.5218,26.207279 106.5218,27.0314539 C106.5218,27.8666533 105.89907,28.4832639 105.113333,28.4832639 C104.316328,28.4832639 103.694725,27.8666533 103.694725,27.0314539 L103.694725,27.0314539 Z M105.113333,28.7729416 C106.060574,28.7729416 106.869597,28.0388633 106.869597,27.0314539 C106.869597,26.0327881 106.060574,25.2983297 105.113333,25.2983297 C104.153697,25.2983297 103.344298,26.0327881 103.344298,27.0314539 C103.344298,28.0388633 104.153697,28.7729416 105.113333,28.7729416 L105.113333,28.7729416 Z M104.745629,27.1686897 L105.094929,27.1686897 L105.624137,28.0388633 L105.963296,28.0388633 L105.393148,27.1550041 C105.688363,27.1185093 105.913718,26.9615055 105.913718,26.6030198 C105.913718,26.207279 105.679349,26.0327881 105.204601,26.0327881 L104.439522,26.0327881 L104.439522,28.0388633 L104.745629,28.0388633 L104.745629,27.1686897 Z M104.745629,26.9105648 L104.745629,26.2912932 L105.159906,26.2912932 C105.370988,26.2912932 105.596719,26.3361514 105.596719,26.5843923 C105.596719,26.8942182 105.366106,26.9105648 105.107323,26.9105648 L104.745629,26.9105648 Z"/>
  </g>
</svg>
