<svg xmlns="http://www.w3.org/2000/svg" width="60" height="60" data-name="logo" viewBox="0 0 278 278"><path d="M81 0 0 81v115l81 82h115l82-82V81L196 0H81z" fill="#0061aa" fill-rule="evenodd"/><path d="M143 184h-31V94h31c25 0 45 19 45 45s-20 45-45 45Zm0-70h-11v50h11c15 0 25-10 25-25s-10-25-25-25Z" fill="#fff"/><path d="M190 185v-70h-27V92h77v23h-27v70h-23z" fill="#fff"/><path d="M238 94v20h-26v70h-20v-70h-27V94h73m4-3h-80v26h26v70h27v-70h27V91Z" fill="#0061aa"/><path d="m109 186-5-10H67l-5 10H37l49-96 48 96Zm-16-32-7-14-8 14Z" fill="#fff"/><path d="m86 94 45 90h-21l-5-9H66l-5 9H40l46-90m-11 62h21l-10-20-11 20m11-69-4 6-45 89-3 5h29l1-1 4-8h35l4 8 1 1h29l-3-5-45-89-3-6Zm-5 66 5-9 4 9Z" fill="#0061aa"/></svg>