<svg xmlns="http://www.w3.org/2000/svg" xmlns:xlink="http://www.w3.org/1999/xlink" id="body_1" viewBox="0 34.97 104 34.05">

<g transform="matrix(0.13 0 0 0.13 -0 34.969997)">
	<g>
        <path d="M307.209 228.509C 277.441 209.33301 237.04202 205.968 171.89001 224.044C 102.433014 240.36601 79.27502 250.82901 48.862015 229.82501C 37.178017 219.50702 32.989014 202.89401 36.117016 178.96402C 43.372017 139.95403 62.978016 102.41302 97.804016 60.77102C 117.24202 39.109016 135.27402 20.51902 159.08301 13.05402C 177.33101 8.371019 175.625 22.71202 173.417 24.76302C 171.087 24.76302 167.173 25.13002 164.14801 27.10402C 161.69301 29.008018 154.95401 35.15602 154.59201 43.426018C 154.07 56.086018 167.171 53.45102 172.822 46.50002C 178.91301 38.66702 187.91501 23.667019 180.834 9.687019C 177.866 4.7110195 172.738 1.2720194 166.371 0.101018906C 144.569 -1.1449811 124.265 9.248019 105.525 20.738018C 64.543 49.207 31.76 88.655 13.21 131.835C 2.5159998 157.888 -7.155999 195.20801 7.341 225.58301C 18.557 246.65901 41.84 257.854 69.619 255.513C 89.102005 253.466 112.661 247.169 128.50601 243.367C 144.352 239.558 225.46002 211.67801 252.11002 260.203C 252.11002 260.203 260.97202 243 283.11902 242.633C 301.32703 240.953 327.59503 247.90399 346.72302 261.953C 340.35004 252.369 322.282 238.244 307.209 228.509z" stroke="none" fill="#E61A27" fill-rule="nonzero"/>
        <path d="M180.16 65.674C 164.99 55.721004 134.5 74.749 110.079 107.388C 87.747 136.66501 78.104004 170.692 88.599 186.427C 104.209 204.942 133.19 178.011 145.514 163.59601L145.514 163.59601L147.104 161.91101C 155.485 152.90901 161.959 142.07701 168.227 131.68301C 168.227 131.68301 173.987 122.169014 174.26201 121.72901C 177.822 121.07301 182.11002 120.04801 186.94202 118.65701C 186.87302 118.875015 168.45502 149.83301 170.33401 165.199C 170.91902 169.88701 170.47302 187.01201 187.19202 192.207C 209.47601 195.942 227.27002 178.668 242.96802 163.299C 242.96802 163.299 245.64302 160.73999 247.15602 159.27899C 246.77303 160.81099 246.27402 162.85599 246.27402 162.85599C 239.75002 185.54399 248.54402 190.305 254.04501 192.06099C 270.67 196.89499 290.531 172.74199 290.596 172.74199C 290.08002 180.34999 288.575 186.64299 296.595 191.69398C 304.164 194.40399 311.825 190.27199 317.649 186.39299C 338.624 171.611 355.52197 148.47299 369.16998 128.474L369.16998 128.474L360.464 128.474C 360.361 128.474 338.982 159.462 325.099 166.19699C 325.077 166.19699 322.55 167.49399 321.095 166.46799C 319.292 164.93098 320.003 161.734 321.116 159.46999C 321.186 159.32298 374.72 66.47398 374.72 66.47398L374.72 66.47398L349.444 66.47398C 349.444 66.47398 346.683 70.94099 346.458 71.233986C 346.288 71.08798 345.883 70.319984 345.603 69.95199C 329.943 48.289986 294.47998 81.609985 267.781 120.249985C 257.502 135.10799 244.41501 151.83699 230.845 163.91199C 230.845 163.91199 210.741 182.33998 202.15201 169.09999C 199.01201 163.53699 199.97801 155.40399 201.74901 150.06299C 211.75002 121.59299 228.983 95.75599 248.59401 80.166985C 254.12901 75.85198 260.147 74.60398 263.13202 76.43398C 265.97803 78.11998 266.437 82.28798 264.63702 85.14298C 260.07004 84.99698 256.41003 86.38498 253.43602 89.458984C 247.57602 95.60699 245.54002 101.53598 247.40302 107.09898C 256.454 119.97898 274.505 94.50999 273.63202 78.99498C 273.32 73.43198 270.35303 68.16398 265.923 65.599976C 259.322 61.649975 249.252 62.672974 242.735 65.821976C 234.01 69.113976 220.201 80.602974 212.14 89.532974C 201.992 100.73197 184.587 113.171974 179.145 111.77898C 180.92401 107.02097 195.625 76.94298 180.16 65.67398L180.16 65.67398L180.16 65.674zM302.021 110.17C 306.938 103.365 321.249 85.141 324.738 82.068C 336.47202 71.745 341.16202 76.287 341.568 79.505C 330.617 99.118 317.692 121.587 305.53998 141.787C 305.56497 141.715 301.73697 147.56801 301.73697 147.56801C 296.36996 155.76201 290.96597 162.789 282.15097 167.69101C 280.89398 168.06001 278.82196 168.20702 277.44296 167.17801C 275.78296 166.08 275.12796 164.25002 275.31497 162.34702C 275.84396 156.05502 282.24997 136.81102 302.02097 110.17001zM164.51599 121.951996C 164.51599 121.951996 164.295 122.613 164.187 122.828995C 164.159 122.828995 153.166 140.75699 153.166 140.75699C 146.532 149.61398 138.249 160.74098 127.895004 166.081C 124.826004 167.105 120.58301 167.76599 118.421005 165.06C 113.838005 159.56999 116.200005 151.958 118.119 145.812L118.119 145.812L118.799 143.616C 124.301 128.688 133.03 115.51199 141.528 103.28999C 141.634 103.217995 141.872 103.145 141.958 103.145C 141.97899 103.217995 142.01299 103.217995 142.027 103.365C 147.359 113.609 157.357 118.364 164.83398 120.562996C 164.87898 120.562996 164.92798 120.635994 164.92798 120.783C 164.92899 121.001 164.80698 121.296 164.51598 121.951996zM174.93 100.80399C 174.881 100.95 170.034 112.07399 170.034 112.07399C 169.333 112.65899 168.22499 112.36699 166.955 112.07399L166.955 112.07399L164.779 111.70599C 157.94601 109.58499 152.792 105.047 151.203 99.631996C 149.01201 89.092995 158.015 80.823 161.981 77.824C 165.787 75.187 171.70401 73.797 175.14 76.506C 177.259 78.994995 178.062 82.214 178.062 85.729C 178.063 90.48399 176.595 95.826 174.93 100.80399zM494.47 134.759C 492.032 129.491 486.247 126.124 480.081 126.489C 460.05798 128.31999 440.473 144.786 430.189 168.423C 424.793 180.573 421.848 190.598 419.917 206.552C 426.14398 199.382 438.844 187.6 453.25598 181.159C 453.25598 181.159 455.21698 165.864 465.21698 152.25099C 469.00098 146.614 476.57297 137.54 485.076 139.954C 492.50598 142.443 489.89398 163.009 480.02 182.911C 472.714 197.54999 461.534 212.191 450.222 222.288C 440.22098 230.777 425.42398 241.023 412.478 233.12C 404.324 228.29199 400.165 218.189 401.043 205.163C 404.939 168.206 421.763 136.736 445.838 100.87599C 470.66202 67.576996 498.026 33.399994 534.88904 15.173988C 542.408 11.368988 549.37103 10.490988 555.39 12.832989C 555.39 12.832989 520.786 31.860989 504.29102 67.06399C 500.095 75.99399 494.259 88.06599 500.13602 98.75198C 503.20703 104.31298 508.65903 104.75298 513.05 104.459984C 533.269 99.77499 546.332 80.89398 557.005 63.623985C 563.193 50.523987 568.693 37.496986 568.693 23.005985C 568.693 21.249985 568.602 18.908985 568.454 17.150986C 578.113 12.029985 597.922 21.102985 597.922 21.102985C 613.401 26.227985 646.36 51.477985 657.478 56.305984C 662.901 50.012985 671.81305 40.499985 676.83203 35.741985L676.83203 35.741985L669.567 31.276985C 657.937 24.177986 645.64404 17.443985 633.54504 10.784985C 606.06604 -4.216016 583.69806 1.0519848 572.31506 5.150985C 567.84106 6.759985 563.75305 8.150985 563.75305 8.150985C 555.30505 -1.070015 541.44904 -0.1940155 531.24005 2.2959847C 494.52606 12.833984 460.43906 38.520985 423.89404 83.09198C 397.02603 118.00198 380.36005 148.15498 371.47705 177.93997C 364.63007 197.99197 362.54904 227.48497 379.26105 244.97697C 393.47003 259.83 412.31104 256.61197 425.61505 251.27197C 454.44205 237.07397 480.35104 206.48097 493.26105 171.27797C 496.37704 160.81396 499.83405 146.03098 494.47006 134.75897zM560.757 24.471C 556.94104 68.236 522.922 93.926 514.504 95.972C 509.403 96.995 500.69904 94.728 508.47003 76.361C 519.91205 51.622 539.44904 30.619999 560.40906 19.861C 560.92004 21.691 560.90607 22.859 560.7571 24.471zM762.555 30.031C 744.256 40.425 725.286 47.156 702.324 44.815002C 695.961 51.989002 689.764 59.38 684.053 66.990005C 716.282 75.187004 750.449 56.964005 769.505 39.621006C 789.664 22.129 800 0.102 800 0.102C 800 0.102 784.89 17.372 762.555 30.031zM416.729 66.476L392.725 66.476L379.185 88.476L403.184 88.476z" stroke="none" fill="#E61A27" fill-rule="nonzero"/>
        <path d="M702.228 230.546C 699.64703 232.302 696.02106 230.95201 697.37604 226.92801C 700.754 216.682 714.18005 195.802 714.18005 195.802L714.18005 195.802L751.57605 129.47601L725.96106 129.47601C 724.74304 131.47601 722.1401 136.06801 722.1401 136.06801C 720.9551 134.09401 717.4111 129.705 715.9521 128.75601C 709.6941 124.80101 700.51306 126.67101 694.1791 130.25601C 666.6401 146.35901 646.54706 178.17401 630.7001 202.98502C 630.7001 202.98502 614.01904 230.56502 604.7601 232.61601C 597.53107 233.20201 598.2771 223.46402 598.5901 221.195C 601.3851 204.79901 607.8761 189.212 614.4151 175.087C 627.7171 165.86601 642.8961 153.791 656.6911 140.54501C 686.6291 111.92702 711.8681 79.50601 715.5571 72.26102C 715.5571 72.26102 711.56415 73.06702 706.8491 73.21201C 683.81714 105.34001 636.6851 152.03401 622.3961 158.98502C 628.72614 143.75902 669.62415 71.08901 704.42615 36.32702L704.42615 36.32702L709.90314 31.056019C 718.37213 22.786018 727.1461 14.297018 733.98413 12.906019C 734.7061 12.833019 735.6361 12.906019 736.43915 14.592019C 736.74414 21.03102 734.34717 25.789019 731.59717 31.204018L731.59717 31.204018L727.74316 39.109016C 727.74316 39.109016 733.20215 38.084015 736.78815 36.910015C 740.94714 29.083015 745.5552 20.298016 743.85614 9.835014C 743.29016 6.4680142 740.8521 3.9070144 737.6671 3.3210144C 727.2851 1.3450145 715.9711 9.027014 706.8661 15.250014L706.8661 15.250014L706.4991 15.468015C 659.6971 52.134014 620.1781 104.974014 585.6261 177.13503C 583.1221 179.03502 573.4471 181.30603 571.8031 180.20703C 575.2151 173.18303 579.5111 163.74004 581.6601 153.49403C 582.0321 150.56503 582.3781 147.56703 582.3781 144.64003C 582.3781 138.34103 580.8661 132.41502 575.2241 128.31903C 568.6081 125.02503 560.4311 126.563034 554.9171 129.04903C 530.2201 139.29503 511.7611 164.61902 498.44012 185.47403C 491.27612 198.72403 484.13312 212.91502 482.15512 229.16504C 480.76212 241.89703 483.5981 250.09503 490.83813 254.19403C 498.28214 257.99704 507.65213 254.04404 511.33313 252.14304C 536.3541 238.96904 553.83716 212.55104 567.6171 188.39903C 568.1651 188.32703 575.68915 188.10904 581.3811 186.64304C 581.4561 186.64304 581.4881 186.64304 581.6141 186.71904C 581.2881 187.81303 578.34705 196.59804 578.34705 196.59804C 569.61304 222.21004 565.57404 239.63004 573.82404 249.94803C 585.61304 264.51202 605.13104 249.43803 621.00806 229.52803C 617.60004 253.38503 629.96405 257.12003 639.3901 255.29202C 650.2171 252.36603 662.2821 240.80002 667.8811 234.87402C 666.0831 241.82503 666.5711 254.26903 676.4211 255.51102C 683.1711 256.759 688.22406 253.08702 694.0691 249.93901C 715.0381 238.52101 740.1391 200.47401 746.65607 189.47401L746.65607 189.47401L738.1111 189.47401C 728.84607 203.47702 717.05707 221.83301 702.2281 230.54602L702.2281 230.54602L702.228 230.546zM514.01 227.998C 512.68 226.021 512.239 223.86101 512.195 221.525C 511.94 207.174 527.38 181.476 538.277 167.476L538.277 167.476L538.3 167.476C 542.86597 177.476 553.208 183.90399 559.451 186.61299C 551.698 203.88599 525.105 240.87799 514.01 227.99799zM563.828 178.891C 563.09 179.40701 550.049 175.013 547.528 162.938C 545.39 152.542 552.549 144.419 559.47504 140.325C 562.44806 137.981 566.926 137.179 570.21106 138.345C 573.2601 140.398 574.08606 144.06 574.08606 148.005C 574.08606 150.425 573.7651 152.91101 573.48206 155.179L573.48206 155.179L573.42004 155.69301C 571.23584 163.80673 568.0118 171.60405 563.82806 178.891zM668.425 223.388C 668.414 223.388 665.95 225.58301 665.95 225.58301C 662.432 228.729 658.812 232.095 654.442 230.41101C 653.23505 229.973 652.386 228.36401 652.182 227.11601C 651.98303 218.11401 656.036 209.77301 659.968 201.65001L659.968 201.65001L660.976 199.52701C 672.284 180.64601 685.42804 158.39801 704.732 142.95801C 707.985 140.61101 711.515 138.639 715.24097 140.177C 716.09796 140.981 717.09595 142.37201 717.09595 143.761C 717.09595 144.202 716.7039 145.372 716.47894 145.737C 711.0869 154.45 705.95294 163.596 700.95996 172.378C 691.20197 189.723 681.079 207.65001 668.425 223.388z" stroke="none" fill="#E61A27" fill-rule="nonzero"/>
	</g>
</g>
</svg>