<svg xmlns="http://www.w3.org/2000/svg" width="191" height="56"><path fill="#003f44" d="M0 6.06h7.98V0H0zm0 28.6h7.98V8H0zM24.8 7c-4.76 0-6.44 2.45-7.35 3.75V7.9H10v26.7h7.98V20.06c0-2.74.62-5.57 4.56-5.57 3.56 0 4.2 2.6 4.2 5.52V34.6h7.96V17.9c0-3.6-.9-10.9-9.9-10.9m43.77 14.27v-.05c0-3.9 2.93-6.72 6.4-6.72 3.45 0 6.4 2.83 6.4 6.72 0 3.9-2.95 6.73-6.4 6.73a6.48 6.48 0 0 1-6.4-6.68zm30.4 3.27L93.8 7.9H85.1l2.3 6.07c-2.2-3.9-6.32-6.93-12.44-6.93-8.84 0-13.5 6.35-14.26 12.38v-1.5C60.7 14.3 59.8 7 50.8 7c-4.75 0-6.44 2.45-7.35 3.75V7.9H36v26.7h7.98V20.06c0-2.74.62-5.57 4.56-5.57 3.56 0 4.2 2.6 4.2 5.52V34.6h7.96V23c.76 6.06 5.42 12.4 14.26 12.4 9.7 0 14.37-7.64 14.37-14.18A15 15 0 0 0 89 18.2l6.23 16.4h7.42l10.18-26.7h-8.72z"/><path fill="#008f86" d="M181.6 26.94c-.2-1.25-1.82-4.23-5.95-4.23-4.14 0-5.77 3-5.96 4.24zm-29.65 8.2a7.03 7.03 0 0 0 1.87-4.6c0-1.97-.57-3.75-1.68-5a5.95 5.95 0 0 0-4.8-2.07 6.5 6.5 0 0 0-6.44 6.64v.06c0 4.23 3.07 6.82 6.4 6.82a6.3 6.3 0 0 0 4.65-1.83zm-28.7-3.93l-4-12.4-3.84 12.4zm62.44-11c3.36 3.6 4.37 7.9 3.74 12.8H169.6c.33 2.83 3.02 4.7 6.14 4.7a5.4 5.4 0 0 0 4.86-2.5h8.17a15.75 15.75 0 0 1-5.43 6.83 13.02 13.02 0 0 1-7.6 2.4 14.16 14.16 0 0 1-13.94-11.9v7.82c0 4-.28 6.53-1.58 8.8-2.07 3.36-6.92 6.3-13.5 6.3-9.3 0-12.8-5.6-13.32-9.38h9.22a4.32 4.32 0 0 0 2.55 2.3c.96.34 1.88.34 2.12.34 3 0 6.48-1.87 6.48-6.48v-1.6c-.92 1.55-3.22 3.8-7.4 3.8-4.93 0-9.35-2.5-11.7-6.8l2.2 5.95h-9.6l-1.68-5.15h-12.45l-1.64 5.15H102L115.63 8h8.06l9.6 25.92a15.95 15.95 0 0 1-.38-3.52c0-9.13 6.53-14.37 13.45-14.37 2.98 0 5.92 1.05 7.45 3.36v-2.5h7.98V28c1.06-6.5 6.52-12.02 13.8-12.02 4.08 0 7.6 1.58 10.1 4.23z"/><path fill="#e15b29" d="M0 37h.95v7.6h3.22v.85H0V37m5 8.45h.84V39.3H5zM5 37h.84v1.18H5zm2.9 3.13H7v-.68h.9v-.5c0-1.9 1.5-1.95 2.16-1.95v.67c-.42.03-1.33.03-1.33 1.36v.42h1.33v.68H8.73v5.46H7.9v-5.47m7.7 2.68c-.05-1.06-1.1-2.1-2.36-2.08-1.32 0-2.3.97-2.38 2.1zm-2.36 2.95c.95 0 1.7-.46 2.1-1.26h.9a3.24 3.24 0 0 1-3 1.98A3.17 3.17 0 0 1 10 43.25 3.2 3.2 0 0 1 13.23 40c.87 0 1.67.3 2.25.87.7.68 1.05 1.63.96 2.6h-5.6a2.34 2.34 0 0 0 2.4 2.28zm8.6-2.5a2.4 2.4 0 0 0 2.4 2.45 2.4 2.4 0 0 0 2.43-2.46c0-1.4-1.05-2.45-2.42-2.45a2.4 2.4 0 0 0-2.42 2.44zm2.4-3.25a3.18 3.18 0 0 1 3.28 3.24 3.17 3.17 0 0 1-3.27 3.23A3.16 3.16 0 0 1 21 43.24 3.18 3.18 0 0 1 24.25 40zm4.76.17h.8v1.1c.34-.8 1.17-1.3 2.27-1.27 1.9.02 2.58 1.32 2.58 2.82v3.5h-.83v-3.33c0-1.33-.6-2.23-1.98-2.2-1.27 0-2 .76-2 2.04v3.47H29v-6.13m11.72 2.3L38 37h1.03l2.17 4.57L43.35 37h1.03l-2.72 5.48v2.97h-.94v-2.97m4.1.77a2.4 2.4 0 0 0 2.43 2.45 2.4 2.4 0 0 0 2.42-2.46c0-1.4-1.05-2.45-2.42-2.45a2.4 2.4 0 0 0-2.42 2.44zM47.26 40a3.18 3.18 0 0 1 3.27 3.24 3.17 3.17 0 0 1-3.27 3.23A3.16 3.16 0 0 1 44 43.24 3.18 3.18 0 0 1 47.25 40zm10.4 6.14h-.8v-1.1c-.33.8-1.16 1.28-2.26 1.27C52.66 46.3 52 45 52 43.5V40h.83v3.32c0 1.32.6 2.22 1.98 2.2 1.3 0 2.02-.77 2.02-2.05V40h.84v6.14M59 40.17h.8v1c.44-.9 1.24-1.15 1.96-1.17v.83h-.08c-1.18 0-1.85.75-1.85 2.14v3.34H59v-6.13m7.08-2.34H64V37h5.1v.83h-2.08v7.62h-.94v-7.62m8.52 4.98c-.05-1.06-1.1-2.1-2.36-2.08-1.32 0-2.3.97-2.38 2.1zm-2.36 2.95c.95 0 1.7-.46 2.1-1.26h.9a3.24 3.24 0 0 1-3 1.98A3.17 3.17 0 0 1 69 43.25 3.2 3.2 0 0 1 72.23 40c.87 0 1.67.3 2.25.87.7.68 1.05 1.63.96 2.6h-5.6a2.34 2.34 0 0 0 2.4 2.28zM77 40.17h.8v1c.44-.9 1.24-1.15 1.96-1.17v.83h-.08c-1.2 0-1.85.75-1.85 2.14v3.34H77v-6.13m3 0h.8v.97A2.2 2.2 0 0 1 82.74 40c.64 0 1.24.2 1.68.7.16.16.36.57.4.64.1-.18.2-.42.44-.65a2.3 2.3 0 0 1 1.7-.7c.62 0 1.22.18 1.65.62.54.53.7 1.2.7 2.28v3.4h-.84v-3.37c0-.65-.1-1.23-.46-1.63-.25-.32-.64-.5-1.22-.5a1.6 1.6 0 0 0-1.35.63c-.3.43-.36.77-.36 1.47v3.4h-.85v-3.4c.03-.7-.08-1.1-.32-1.46-.28-.4-.72-.64-1.34-.65a1.48 1.48 0 0 0-1.3.62c-.27.35-.42.82-.42 1.47v3.4H80v-6.13m14.13 1.54c0-.64-.44-1-1.05-1-.68 0-1.1.45-1.06 1 .02.57.46.8 1.2 1.03.88.24 1.87.5 1.9 1.8.06 1.13-.86 1.95-2.02 1.95-1 0-2.1-.62-2.1-1.9h.83c.04.83.67 1.2 1.28 1.2.72 0 1.2-.52 1.2-1.15-.02-.7-.48-.98-1.54-1.3-.88-.25-1.57-.6-1.6-1.57 0-1.1.9-1.76 1.93-1.76.85 0 1.8.47 1.86 1.7h-.83"/><path fill="#008f86" d="M188.2 18.1h.2a.78.78 0 0 0 .2-.06.3.3 0 0 0 .12-.12.4.4 0 0 0 .05-.2.32.32 0 0 0-.05-.2c-.04-.03-.08-.07-.13-.1a.47.47 0 0 0-.18-.03l-.2-.02h-.47v.72zm-.45 1.4h-.4v-2.47h.92c.3 0 .52.06.67.17.15.1.23.3.23.54 0 .22-.06.38-.18.5a.9.9 0 0 1-.47.17l.7 1.1h-.47l-.63-1.06h-.38zm2-2.02a1.7 1.7 0 0 0-.9-.96 1.67 1.67 0 0 0-.67-.13 1.6 1.6 0 0 0-1.2.5 1.5 1.5 0 0 0-.37.58 2.08 2.08 0 0 0 0 1.45c.07.22.2.42.34.58a1.52 1.52 0 0 0 1.24.55c.24 0 .46-.04.67-.13.2-.1.4-.2.54-.38a1.85 1.85 0 0 0 .48-1.32c0-.27-.04-.52-.13-.74zm.43 1.65c-.12.27-.27.5-.47.7a2.2 2.2 0 0 1-1.52.6 2.17 2.17 0 0 1-1.57-.63 2.3 2.3 0 0 1-.6-1.58 2.24 2.24 0 0 1 .65-1.6 2.2 2.2 0 0 1 3.06 0 2.27 2.27 0 0 1 .66 1.6c0 .33-.06.63-.18.9z"/></svg>