<svg xmlns="http://www.w3.org/2000/svg" viewBox="0 0 995 529"><path d="M274 234h182s24 27 41 27 41-28 41-28h183S731 1 497 1C265 0 274 234 274 234z" fill="#fff"/><path d="M283 223h427S709 11 497 11c-215 0-214 212-214 212z" fill="#013088"/><path d="M431 20c-3 37-3 74-2 110-34-14-69-24-104-32 20 32 41 62 65 90-36 10-72 20-106 35h426c-32-14-70-24-106-35 22-27 43-51 64-90-35 8-70 19-103 32 1-36 1-72-3-110-25 28-44 59-66 89-18-30-40-59-65-89z" fill="#b5c4eb"/><path d="M396 223c-26-19-49-37-66-54 30-4 57-5 87-5-13-27-16-54-23-82 26 16 54 30 74 51 4-28 16-58 29-85 12 28 24 56 29 83 24-22 48-34 73-48-5 30-12 58-23 82 29-1 58-1 88 5-23 22-45 37-67 53H396z" fill="#fff"/><path d="M497 249V130h-68c1 69 34 104 68 119z" fill="#e01a33"/><path d="M497 249V130h67c0 69-34 104-67 119z" fill="#b20032"/><path d="M0 281v117h23v-48h49v-20H23v-30h52l7-19H0z" fill="#013088"/><path d="M624 281v117h77v-20h-54v-31h49v-20h-49v-26h53l7-20h-83z" fill="#013186"/><path d="m156 281-47 119h26l9-25h47l9 24h26l-47-118h-23zm11 31 18 45h-36l18-45zm111-31v118h25v-45h11l31 46h30l-36-50s24-7 24-31c0-37-37-38-37-38h-48zm25 18h20s17 2 17 19-17 18-17 18h-20v-37zm461-18v118h25v-45h11l31 46h29l-35-50s24-7 24-31c0-37-37-38-37-38h-48zm25 18h20s17 2 17 19-18 18-18 18h-19v-37zm-334 27-6 74h-22l10-119h23l36 78 33-78h22l11 118h-25l-4-74-35 74h-10l-33-73zm452 60 11-17c22 14 38 15 51 5 3-9 1-14-4-18l-39-16c-16-13-23-29-4-50 17-14 39-14 65-2l-1 22c-15-6-29-17-47-7-8 11-1 17 5 20 25 9 44 17 48 27 7 20-1 30-7 38-28 22-60 11-78-2z" fill="#013088"/><path d="M166 464h13v64h-13v-65zm57 20v44h-11v-64h11l31 44v-44h11v64h-10l-32-44zm405 0v44h-11v-64h11l32 44v-44h10v64h-10l-32-44zm-333 38 6-10c12 8 19 9 26 3 3-2 4-7 1-10l-22-10c-11-5-13-15-3-27 10-8 22-8 36-2v13c-9-3-20-9-26-4-4 5-2 8 1 10 14 5 26 10 28 16 4 11-1 17-5 22-13 11-32 6-42-1zm103 7c-25 0-27-22-27-22v-44h13v44s1 11 14 11c11 0 13-10 13-10v-45h12v44s1 22-25 22zm58-66v65h14v-25h6l17 25h16l-19-27s13-4 13-17c0-20-20-21-20-21h-27zm14 10h11s9 1 9 10c0 10-9 10-9 10h-11v-20zm84-9-26 65h14l5-14h26l5 14h15l-26-65h-13zm6 17 10 25h-20l10-25zm141 16c-1-18 9-34 32-35 8 0 19 5 19 5v12s-11-6-19-5c-12 1-21 6-21 24 0 11 9 20 20 20 8 0 17-5 17-5l5 10s-12 6-21 6c-17 0-32-11-33-32zm84-33v64h42v-11h-29v-17h26v-11h-26v-14h28l4-11h-45z" fill="#e21931"/><path d="M965 255h2v2l2 1h4l2-1v-3l-2-1h-3l-2-1-2-2-1-2 1-2 2-1 3-1 3 1 2 1v3h-2l-1-2-2-1h-3l-1 2 1 1 3 2 3 1 2 1 1 2-1 3-2 1-3 1-3-1-3-1v-3zm15 5v-16h3l4 11v3l1-3 4-11h3v16h-2v-13l-5 13h-2l-4-13v13h-2z" fill="#013088"/></svg>