<svg xmlns="http://www.w3.org/2000/svg" xmlns:xlink="http://www.w3.org/1999/xlink" width="147" height="32" viewBox="0 0 147 32"><defs><path d="M0 0h147v32H0z" id="a"/></defs><g fill="none" fill-rule="evenodd"><mask fill="#fff" id="b"><use xlink:href="#a"/></mask><path d="m24.3 0-6.6 23.8c-.1.4-.4.7-.7.9-.3.2-.8.3-1.6.3h-1.9c-.4 0-.7-.1-1-.3a1 1 0 0 1-.6-.6.9.9 0 0 1 0-.3v-.2L18.5 0h-11L.3 26.6a4.3 4.3 0 0 0-.2 1v1c.4 1 1 1.8 2.2 2.5 1.1.6 2.5.9 4.2.9h12.3c3 0 5.1-.4 6.4-1 1.2-.7 2-2 2.5-3.7L35.3 0h-11zm39.8 0H40.5l-2 7h23.7l2-7zM31.5 32h11L46 19h13l2-7.1H37.1L31.5 32zM73 24.7a1 1 0 0 1-.6-.6.9.9 0 0 1 0-.3v-.2l4.3-15.4c.2-.4.4-.7.7-.9.3-.2.8-.3 1.6-.3h11.8l2-7H76.2c-3 0-5.1.4-6.3 1-1.3.7-2.1 2-2.6 3.7l-6.1 21.9-.2 1 .1 1c.3 1 1 1.8 2.1 2.5 1.1.6 2.5.9 4.2.9h17.4l2-7H74c-.4 0-.7-.1-1-.3zm26 .5c2.4 0 4.6-.4 6.4-1.1l2.5-8.9h-6.3l-.8 3.2h2.4l-.8 3c-.8.2-2 .3-2.7.3-1.7 0-2.2-.6-2-1.7v-1l1.8-6.1c.5-1.6 1.3-2.6 3.4-2.6 1.4 0 3.6.3 5 .7l1.3-3.4c-1.4-.4-3.7-.8-5.6-.8-4.8 0-7 2-7.8 5.2l-2.2 7.8-.2 1.1c-.3 2.6 1.4 4.3 5.6 4.3zm13.6-.2h4l1.3-5.2L127.1 7h-4.6l-5.5 8.3-1.2-8.3h-4l2.1 12.8-1.3 5.2zm15.6 0 3.3-9.9.8 7.5h4l5.2-7.5-2.1 9.9h3.9L147 7h-4l-7.6 11.6L134.2 7h-4l-5.9 18h4zm-38 7h53.4l1-3.5H91.2l-1 3.5z" fill="#1A1A1A" mask="url(#b)"/></g></svg>