<svg xmlns="http://www.w3.org/2000/svg" width="191" height="56"><path d="M0 6h8V0H0zm0 28.7h8V8H0zM24.8 7c-4.8 0-6.4 2.5-7.3 3.8v-3H10v26.7h8V20.1c0-2.8.6-5.6 4.5-5.6 3.6 0 4.2 2.6 4.2 5.5v14.6h8V17.9c0-3.6-.9-10.9-9.9-10.9m43.8 14.3c0-4 2.9-6.8 6.4-6.8 3.4 0 6.4 2.8 6.4 6.7 0 4-3 6.7-6.4 6.7a6.5 6.5 0 0 1-6.4-6.6zM99 24.5 93.8 8h-8.7l2.3 6c-2.2-3.8-6.3-7-12.4-7-9 0-13.5 6.4-14.3 12.4V18c0-3.6-.9-10.9-9.9-10.9-4.8 0-6.4 2.5-7.3 3.8V7.8H36v26.7h8V20.1c0-2.8.6-5.6 4.5-5.6 3.6 0 4.2 2.6 4.2 5.5v14.6h8V23A14 14 0 0 0 75 35.4a14 14 0 0 0 14.3-14.2 15 15 0 0 0-.3-3l6.2 16.4h7.5l10.1-26.7h-8.7z" fill="#003f44"/><path d="M181.6 27c-.2-1.3-1.8-4.3-6-4.3a6 6 0 0 0-6 4.3zM152 35a7 7 0 0 0 1.8-4.6c0-2-.6-3.7-1.7-5a6 6 0 0 0-4.8-2A6.5 6.5 0 0 0 141 30c0 4.3 3 6.9 6.4 6.9a6.3 6.3 0 0 0 4.6-1.8zm-28.8-3.9-4-12.4-3.8 12.4zm62.5-11a15 15 0 0 1 3.7 12.8h-19.8c.3 2.8 3 4.7 6.1 4.7a5.4 5.4 0 0 0 4.9-2.5h8.2a15.8 15.8 0 0 1-5.5 6.8 13 13 0 0 1-7.6 2.4 14.2 14.2 0 0 1-13.9-11.9v7.9c0 4-.3 6.5-1.6 8.8-2 3.3-6.9 6.3-13.5 6.3-9.3 0-12.8-5.6-13.3-9.4h9.2a4.3 4.3 0 0 0 2.6 2.3c1 .3 1.8.3 2 .3 3 0 6.6-1.8 6.6-6.5v-1.6a8.3 8.3 0 0 1-7.4 3.8 13 13 0 0 1-11.7-6.8l2.2 6h-9.6l-1.7-5.2H113l-1.6 5.2H102L115.6 8h8l9.7 26a16 16 0 0 1-.4-3.6c0-9.1 6.5-14.4 13.5-14.4 3 0 5.9 1 7.4 3.4v-2.5h8V28a14 14 0 0 1 23.8-7.8z" fill="#008f86"/><path d="M0 37h1v7.6h3.2v.8H0V37m5 8.4h.8v-6.1H5zM5 37h.8v1.2H5zm2.9 3.1H7v-.6h.9V39c0-2 1.5-2 2.2-2v.7c-.5 0-1.4 0-1.4 1.3v.5h1.4v.6H8.7v5.5H8V40m7.7 2.7c0-1-1.1-2.1-2.4-2-1.3 0-2.3.9-2.3 2zm-2.4 3c1 0 1.7-.5 2.1-1.3h1a3.2 3.2 0 0 1-3 2 3.2 3.2 0 0 1-3.3-3.3 3.2 3.2 0 0 1 3.2-3.2 3.2 3.2 0 0 1 3.2 3.5h-5.6a2.3 2.3 0 0 0 2.4 2.2zm8.6-2.5a2.4 2.4 0 0 0 2.4 2.4 2.4 2.4 0 0 0 2.5-2.5c0-1.4-1-2.4-2.4-2.4a2.4 2.4 0 0 0-2.5 2.4zm2.4-3.3a3.2 3.2 0 0 1 3.3 3.2 3.2 3.2 0 0 1-3.2 3.3 3.2 3.2 0 0 1-3.3-3.3 3.2 3.2 0 0 1 3.3-3.2zm4.8.2h.8v1c.3-.7 1.2-1.2 2.3-1.2 1.9 0 2.5 1.3 2.5 2.8v3.5h-.8V43c0-1.3-.6-2.2-2-2.2-1.2 0-2 .8-2 2v3.5H29v-6.1m11.7 2.3L38 37h1l2.2 4.6 2.1-4.6h1l-2.6 5.5v3h-1v-3m4.1.8a2.4 2.4 0 0 0 2.5 2.4 2.4 2.4 0 0 0 2.4-2.5c0-1.4-1-2.4-2.4-2.4a2.4 2.4 0 0 0-2.5 2.4zm2.5-3.3a3.2 3.2 0 0 1 3.2 3.2 3.2 3.2 0 0 1-3.2 3.3 3.2 3.2 0 0 1-3.3-3.3 3.2 3.2 0 0 1 3.3-3.2zm10.4 6.1h-.8v-1c-.4.7-1.2 1.2-2.3 1.2-2 0-2.6-1.3-2.6-2.8V40h.8v3.3c0 1.3.6 2.2 2 2.2 1.3 0 2-.7 2-2V40h.9v6.1m1.3-6h.8v1c.4-.8 1.2-1 2-1.1v.8h-.1c-1.2 0-1.9.8-1.9 2.2v3.3H59v-6.1m7-2.4h-2V37h5.1v.8h-2v7.7h-1v-7.7m8.5 5c0-1-1.1-2-2.4-2-1.3 0-2.3.9-2.3 2zm-2.4 3c1 0 1.7-.5 2.1-1.3h1a3.2 3.2 0 0 1-3 2 3.2 3.2 0 0 1-3.3-3.3 3.2 3.2 0 0 1 3.2-3.2 3.2 3.2 0 0 1 3.2 3.5h-5.6a2.3 2.3 0 0 0 2.4 2.2zm4.8-5.6h.8v1c.4-1 1.2-1.2 2-1.2v.8h-.1c-1.2 0-1.9.8-1.9 2.2v3.3H77v-6.1m3 0h.8v1a2.2 2.2 0 0 1 2-1.2 2 2 0 0 1 1.6.7l.4.6c.1-.1.2-.4.5-.6A2.3 2.3 0 0 1 87 40c.6 0 1.2.2 1.6.6.6.5.7 1.2.7 2.3v3.4h-.8v-3.4c0-.6-.1-1.2-.5-1.6-.2-.3-.6-.5-1.2-.5a1.6 1.6 0 0 0-1.4.6c-.3.5-.3.8-.3 1.5v3.4h-.9v-3.4c0-.7 0-1.1-.3-1.5-.3-.4-.7-.6-1.3-.6a1.5 1.5 0 0 0-1.3.6c-.3.3-.4.8-.4 1.5v3.4H80V40m14.1 1.6c0-.7-.4-1-1-1-.7 0-1.1.4-1 1 0 .5.4.8 1.1 1 .9.2 1.9.5 2 1.8 0 1.1-1 2-2.1 2-1 0-2.1-.7-2.1-2h.8c0 .9.7 1.3 1.3 1.3.7 0 1.2-.6 1.2-1.2 0-.7-.5-1-1.5-1.3-1-.2-1.6-.6-1.6-1.6S92 40 93 40c.9 0 1.8.5 1.9 1.7H94" fill="#e15b29"/><path d="M188.2 18.1h.2a.8.8 0 0 0 .2 0 .3.3 0 0 0 .1-.2.4.4 0 0 0 0-.2.3.3 0 0 0 0-.2h-.1a.5.5 0 0 0-.2-.1h-.7v.7zm-.5 1.4h-.3V17h.9c.3 0 .5 0 .6.2.2.1.3.3.3.5 0 .3 0 .4-.2.5a.9.9 0 0 1-.5.2l.7 1.1h-.5l-.6-1h-.4zm2-2a1.7 1.7 0 0 0-.8-1 1.7 1.7 0 0 0-.7-.1 1.6 1.6 0 0 0-1.2.5 1.5 1.5 0 0 0-.4.6 2 2 0 0 0 0 1.4c0 .2.2.4.4.6a1.5 1.5 0 0 0 1.2.5h.7l.5-.5a1.9 1.9 0 0 0 .5-1.3c0-.3 0-.5-.2-.7zm.5 1.6-.5.7a2.2 2.2 0 0 1-1.5.6 2.2 2.2 0 0 1-1.6-.6 2.3 2.3 0 0 1-.6-1.6 2.2 2.2 0 0 1 .7-1.6 2.2 2.2 0 0 1 3 0 2.3 2.3 0 0 1 .7 1.6c0 .3 0 .6-.2 1z" fill="#008f86"/></svg>