<svg xmlns="http://www.w3.org/2000/svg" viewBox="0 0 46 20.3"><g fill="#397db7"><path d="M28.4 14.8h5.4c1.3 0 2.8.5 2.8 2.5 0 2.2-1.4 2.8-2.8 2.8h-5.4v-1h1v-3.3h-1v-1zm3.1 4.2H33c.9 0 1.3-.7 1.3-1.6 0-.8-.4-1.5-1.3-1.5h-1.5V19M14 14.6c1 0 4 .1 4 2.8 0 2.7-3 2.9-4 2.9s-4.1-.2-4.1-2.9c0-2.6 3-2.8 4-2.8zm-1.8 2.8c0 1.3.8 1.8 1.8 1.8s1.7-.5 1.7-1.8-.8-1.7-1.7-1.7c-1 0-1.8.5-1.8 1.7M0 19h1v-3H0v-1.1h4.2v1h-1v1h3.1v-1h-1v-1h4.2v1h-1V19h1v1H5.3v-1h1v-1H3.1v1h1v1H0v-1m21.8 1h-3.3v-1h1v-3.2h-1v-1h4.2l3 4v-3h-1.1v-1h3.3v1h-1v4.3h-3.2l-3-4v3h1.1v1M46 19v1h-4.5v-1h1l-.3-.8h-2.8l-.4.7h1v1h-3.4v-1h1l1.9-3.1h-1.3v-1.1h4.4L45 19h1zm-4.4-1.8-.8-1.6-.9 1.6h1.7M22.4 7.6H22c-.6 0-.8.2-1 .6l-.6 2a42.3 42.3 0 0 1-1.2-.1c-.2-1.3-.5-6.8-.5-8.7h.7c.2.8.7 3.9 1.2 4.8.2.4.5.6 1 .6a16.3 16.3 0 0 0 1.6 0 1 1 0 0 0 1-.6c.4-1 1-4 1.1-4.8h.8c0 1.9-.4 7.4-.5 8.7h-1.2c-.2-1-.5-1.6-.6-1.9-.2-.4-.4-.5-1-.6a3.3 3.3 0 0 0-.4 0"/><path d="M22.4 11.5a40 40 0 0 1-4.6-.2c-.9-.2-1.5-.7-1.8-1.5a23.6 23.6 0 0 1-.6-7.2C15.7 1 16.5.3 18 .2a56.3 56.3 0 0 1 9 0c1.5.1 2.3.8 2.4 2.4a23.5 23.5 0 0 1-.6 7.2c-.3.8-.9 1.3-1.8 1.5-.8.2-3.4.2-4.5.2zm4.4-.9a1.7 1.7 0 0 0 1.3-1c.1-.5.4-1.5.5-3.9v-3c0-1.2-.6-1.7-1.8-1.8a55 55 0 0 0-8.9 0c-1.1 0-1.6.6-1.7 1.7a22.8 22.8 0 0 0 .5 7c.1.4.6.9 1.3 1a39.2 39.2 0 0 0 8.8 0"/></g></svg>