<svg xmlns="http://www.w3.org/2000/svg" viewBox="0 35 104 34"><g fill="#E61A27" fill-rule="nonzero" stroke="none"><path d="M40 64.7c-4-2.5-9.2-3-17.6-.6-9 2.2-12 3.5-16 .8-1.6-1.4-2.1-3.5-1.7-6.6 1-5.1 3.5-10 8-15.4a19 19 0 0 1 8-6.2c2.3-.6 2.1 1.2 1.8 1.5-.3 0-.8 0-1.2.3-.3.3-1.1 1-1.2 2.1 0 1.7 1.6 1.3 2.4.4.8-1 2-3 1-4.8-.4-.6-1-1-1.9-1.2-2.8-.2-5.4 1.2-7.9 2.7A34.7 34.7 0 0 0 1.7 52C.3 55.5-.9 60.4 1 64.3c1.5 2.7 4.5 4.2 8.1 4 2.6-.4 5.6-1.2 7.7-1.7 2-.5 12.6-4 16 2.2 0 0 1.2-2.2 4.1-2.3a13.3 13.3 0 0 1 8.3 2.5 22 22 0 0 0-5.2-4.3z"/><path d="M23.4 43.5c-2-1.3-6 1.2-9 5.5-3 3.8-4.2 8.2-2.9 10.2 2 2.4 5.8-1 7.4-3l.2-.2c1.1-1.1 2-2.5 2.8-3.9l.7-1.3a17.7 17.7 0 0 0 1.7-.4s-2.4 4-2.2 6c.1.7 0 3 2.2 3.6 3 .5 5.2-1.8 7.3-3.8l.5-.5v.5c-1 3 .2 3.5 1 3.8 2 .6 4.7-2.5 4.7-2.5 0 1-.3 1.8.8 2.4 1 .4 2-.2 2.7-.7 2.7-1.9 5-5 6.7-7.5h-1.1s-2.8 4-4.6 5h-.6c-.2-.3 0-.7 0-1l7-12h-3.3l-.4.6V44c-2.1-2.8-6.7 1.5-10.2 6.5a33 33 0 0 1-4.8 5.7s-2.6 2.4-3.7.7c-.4-.7-.3-1.8 0-2.5 1.2-3.7 3.5-7 6-9 .7-.6 1.5-.8 1.9-.6.4.3.4.8.2 1.2a1.8 1.8 0 0 0-1.5.5c-.7.8-1 1.6-.8 2.3 1.2 1.7 3.6-1.6 3.5-3.6a2.2 2.2 0 0 0-1-1.8c-1-.5-2.2-.3-3 0a13.4 13.4 0 0 0-4 3.1c-1.4 1.5-3.6 3.1-4.3 3 .2-.7 2.1-4.6.1-6zm15.9 5.8a30 30 0 0 1 3-3.6c1.4-1.4 2-.8 2.1-.4a300.8 300.8 0 0 1-4.7 8.1l-.5.8a7.3 7.3 0 0 1-2.5 2.6H36a.7.7 0 0 1-.3-.7c0-.8.9-3.3 3.5-6.8zm-18 1.6L20 53.4c-.9 1.1-2 2.6-3.3 3.3-.4.1-1 .2-1.2-.1-.6-.8-.3-1.7 0-2.5v-.3a23.7 23.7 0 0 1 3-5.3 4.7 4.7 0 0 0 3 2.3v.2zm1.4-2.8-.6 1.5h-.7c-.9-.4-1.5-1-1.7-1.6-.3-1.4.8-2.5 1.4-2.9.5-.3 1.2-.5 1.7-.2.2.4.4.8.4 1.2a6.5 6.5 0 0 1-.5 2zm41.6 4.4a2 2 0 0 0-1.9-1c-2.6.2-5.1 2.3-6.5 5.4a15.7 15.7 0 0 0-1.3 5c.8-1 2.5-2.5 4.3-3.3 0 0 .3-2 1.6-3.8.5-.7 1.5-2 2.6-1.6 1 .3.6 3-.7 5.6a18 18 0 0 1-3.9 5c-1.3 1.2-3.2 2.5-4.9 1.5-1-.6-1.6-2-1.5-3.6A30 30 0 0 1 58 48a35 35 0 0 1 11.5-11c1-.5 2-.6 2.7-.3 0 0-4.5 2.4-6.6 7-.6 1.2-1.3 2.8-.6 4.1.4.8 1.1.8 1.7.8 2.6-.6 4.3-3 5.7-5.3.8-1.7 1.5-3.4 1.5-5.3v-.8c1.3-.6 3.8.6 3.8.6 2 .6 6.3 3.9 7.8 4.5l2.5-2.7-1-.5c-1.5-1-3-1.8-4.6-2.7a9.4 9.4 0 0 0-8-.7l-1.1.4c-1.1-1.2-3-1.1-4.2-.8a29 29 0 0 0-14 10.5 38.4 38.4 0 0 0-6.8 12.3c-1 2.6-1.2 6.5 1 8.7 1.9 2 4.3 1.6 6 .9a19 19 0 0 0 8.8-10.4c.4-1.4.9-3.3.2-4.8zm8.6-14.3c-.5 5.7-5 9-6 9.3-.7.1-1.8-.2-.8-2.6 1.5-3.2 4-6 6.8-7.3v.6zm26.2.7a12.7 12.7 0 0 1-7.8 2 45.9 45.9 0 0 0-2.4 2.8c4.2 1 8.7-1.3 11.1-3.6a17.5 17.5 0 0 0 4-5s-2 2.2-4.9 3.8zm-45 4.7h-3l-1.8 3h3.1z"/><path d="M91.3 65c-.4.2-.8 0-.6-.5a27.2 27.2 0 0 1 2.1-4l5-8.7h-3.4l-.5.9-.8-1c-.8-.5-2-.2-2.9.2a28.7 28.7 0 0 0-8.2 9.5s-2.2 3.6-3.4 3.8c-1 .1-.8-1.1-.8-1.4a24.2 24.2 0 0 1 2-6 46 46 0 0 0 5.6-4.5 55 55 0 0 0 7.6-9s-.5.2-1.1.2c-3 4.2-9.1 10.3-11 11.2.8-2 6.1-11.5 10.7-16l.7-.7c1-1 2.2-2.1 3.1-2.3.1 0 .2 0 .3.2a4 4 0 0 1-.6 2.2l-.5 1 1.2-.3c.5-1 1.1-2.2 1-3.5a1 1 0 0 0-.9-.9c-1.4-.2-2.8.8-4 1.6A57.2 57.2 0 0 0 76 58c-.3.3-1.6.6-1.8.4.5-.9 1-2.1 1.3-3.5l.1-1.1c0-.8-.2-1.6-1-2.1s-1.8-.3-2.6 0a18.6 18.6 0 0 0-7.3 7.4 16 16 0 0 0-2.1 5.7c-.2 1.6.2 2.7 1.1 3.2 1 .5 2.2 0 2.7-.2a21 21 0 0 0 7.3-8.3s1 0 1.8-.3l-.4 1.3c-1.2 3.4-1.7 5.6-.6 7 1.5 1.9 4 0 6.1-2.7-.4 3.1 1.2 3.6 2.4 3.4a10 10 0 0 0 3.7-2.7c-.2 1-.1 2.5 1.1 2.7 1 .2 1.6-.3 2.3-.7 2.8-1.5 6-6.4 6.9-7.9h-1.2c-1.2 1.8-2.7 4.2-4.6 5.4zm-24.5-.4-.2-.8c0-1.9 2-5.2 3.4-7 .6 1.3 2 2.1 2.7 2.5-1 2.2-4.5 7-5.9 5.3zm6.5-6.3s-1.8-.5-2.1-2.1c-.3-1.4.6-2.4 1.5-3a1.6 1.6 0 0 1 1.4-.2c.4.2.5.7.5 1.2v1a16 16 0 0 1-1.3 3zM86.9 64l-.3.3c-.5.4-1 .9-1.5.7a.5.5 0 0 1-.3-.5c0-1.1.5-2.2 1-3.3l.1-.3c1.5-2.4 3.2-5.3 5.7-7.3.4-.3.9-.6 1.4-.4l.2.5a.8.8 0 0 1 0 .3c-.8 1-1.4 2.3-2 3.4a48 48 0 0 1-4.3 6.6z"/></g></svg>