<svg id="Layer_1" data-name="Layer 1" xmlns="http://www.w3.org/2000/svg" viewBox="0 0 630.82 133.94"><defs><style>.cls-1{fill:#d51e48;}</style></defs><path class="cls-1" d="M281.11,319.05A11.12,11.12,0,1,1,270,307.78a11.12,11.12,0,0,1,11.11,11.27Z" transform="translate(-215.97 -197.59)"/><ellipse class="cls-1" cx="146.01" cy="121.46" rx="11.12" ry="11.26"/><path class="cls-1" d="M269.33,245.12a2.57,2.57,0,0,1,.62-2,2.52,2.52,0,0,1,1.9-.87H302a2.52,2.52,0,0,1,2.2,1.29,2.62,2.62,0,0,1,0,2.57l-15.53,27.26a2.53,2.53,0,0,1-3.45,1,2.63,2.63,0,0,1-.4-.28,45.65,45.65,0,0,1-15.34-27.68C269.44,246.07,269.39,245.62,269.33,245.12Zm48.78,39.61a44.08,44.08,0,0,1-21.69-3.44,2.56,2.56,0,0,1-1.42-1.55,2.61,2.61,0,0,1,.21-2.1l18-31.53a2.52,2.52,0,0,1,4.4,0L335,276.63a2.55,2.55,0,0,1-1.07,3.56,44.62,44.62,0,0,1-15.82,4.54Zm30.51-16.28a45.62,45.62,0,0,1-3.53,3.83A2.5,2.5,0,0,1,343,273a2.53,2.53,0,0,1-1.84-1.26L326.55,246.1a2.57,2.57,0,0,1,0-2.57,2.52,2.52,0,0,1,2.2-1.29h27.39a2.54,2.54,0,0,1,1.91.87,2.65,2.65,0,0,1,.62,2,45.73,45.73,0,0,1-10.05,23.34Z" transform="translate(-215.97 -197.59)"/><path class="cls-1" d="M367.64,242.24c-1.78,26-22,47.68-48.41,50.15-29.33,2.74-55.43-19.23-58.13-49C258.65,216.51,241.36,199,216,197.78v18.73c15.69,1.15,25.19,11.25,26.77,28.6,3.43,37.73,34.84,66.16,71.54,66.16q3.29,0,6.65-.31c36-3.36,63.38-33.2,65.18-68.75Z" transform="translate(-215.97 -197.59)"/><path class="cls-1" d="M566.5,252c19-18.52,46.09-3.21,46.09,15.4V319c0,4.81,1.23,7.85,4,10.63H584.72c2.88-2.15,3.65-5.82,3.65-10.63V267.44c0-14.2-19.5-14.24-19.5,0v51.62a13.39,13.39,0,0,0,4.91,10.63H541c2.73-2.11,4.55-5.82,4.55-10.63V267.44c0-14.24-19.12-14.23-19.12,0v51.62c0,4.81.66,8.48,2.73,10.63H497.62c3.75-3.67,4.55-5.82,4.55-10.63V272.75c0-9.44-2.07-14.49-7.46-18L526.4,245l.05,7.42c9.37-10.63,28.89-12.78,40-.46" transform="translate(-215.97 -197.59)"/><path class="cls-1" d="M622.46,226.86c0-8,5.57-14.43,12.46-14.43s12.44,6.46,12.44,14.43-5.58,14.42-12.44,14.42-12.46-6.46-12.46-14.42" transform="translate(-215.97 -197.59)"/><path class="cls-1" d="M699.47,318.7c-4,3.16-13.83,1.48-13.83-7.38V253.61h12l4-8.44H685.09V224.49l-29.51,29.33h3.93c2.07,0,3,1.24,3,4.76v53.16c0,10.34,9.48,19.62,21.31,19.62s14.94-4.85,17.85-8.44a30.59,30.59,0,0,0,2-3.8l-2.36-1.89s-.55.41-1.83,1.47" transform="translate(-215.97 -197.59)"/><path class="cls-1" d="M731.69,251.3V209.42l-31,12.66c5.47,2.11,6.74,5.27,6.74,12.66v84.32c0,4.81-1.12,7.47-4.55,10.63h31.51c-2.36-2.41-2.73-5.82-2.73-10.63V267.43c0-14.2,19.11-14.19,19.11,0v51.63c0,4.81-1.57,8.1-4.55,10.63H777.7a14.3,14.3,0,0,1-4.7-10.63V267.43c0-19.56-24.81-33.15-41.34-16.13" transform="translate(-215.97 -197.59)"/><path class="cls-1" d="M775.1,244.35c-5.88-1.4-9.62-5.11-9.62-12.09s4.81-12.54,10.83-12.54,10.83,5.57,10.83,12.54c-.67,9.3-3.62,16.27-10.16,22-.94.93-2-.31-.27-2.63A7.23,7.23,0,0,0,778,245.9c-.26-.93-1.2-1.24-2.94-1.55" transform="translate(-215.97 -197.59)"/><path class="cls-1" d="M841.33,324.88c.8,0,1.51-.06,1.51-1.15,0-.87-.7-1-1.36-1H840.2v2.19Zm-1.13,3.95h-.94v-7h2.37c1.46,0,2.2.61,2.2,2a1.77,1.77,0,0,1-1.57,1.94h0l1.77,3.09h-1.05l-1.64-3H840.2Zm1.15,1.57c2.44,0,4.36-2.16,4.36-5.1s-1.92-5.07-4.36-5.07-4.41,2.18-4.41,5.07,1.94,5.1,4.41,5.1m-5.49-5.1c0-3.5,2.51-6.09,5.49-6.09s5.44,2.59,5.44,6.09-2.51,6.12-5.44,6.12-5.49-2.59-5.49-6.12" transform="translate(-215.97 -197.59)"/><path class="cls-1" d="M467.68,301.49c0-30-46.23-37.17-51.9-66.88-5.92-31.09,27.81-43,44-34.2,10.7,5.79,14.74,2.59,20.22-.41v40.12a1.33,1.33,0,0,1-2.64.37c-4-11.65-8.46-23.27-17.89-30.08-19.06-13.76-32.45,8.2-8.41,27.48C464,248.22,491.27,264.06,493.52,288c.11,1.12,3.77,25.09-16.08,38.1-6.46,4.23-17.77,6.55-29.08,4.9-14.67-2.14-15.08-7-22.24-7.88-6-.78-10.8,5.8-12,6.58.12-.28,0-28.43,0-42.4a2.14,2.14,0,0,1,2.81.73,49,49,0,0,0,18.38,28.37c7,5.1,32.41,8.42,32.41-14.88" transform="translate(-215.97 -197.59)"/><path class="cls-1" d="M817.89,311.7c-1.4-19.78-32-24.22-35-43.91-3.36-22.1,21.92-28.24,33.42-22.46,7.58,3.8,10.43,1.72,14.34-.28V271.4a1,1,0,0,1-1.19.77,1,1,0,0,1-.68-.53C826,264,823,256,816.14,251.89c-12.18-7.3-22.13,6.58-5.08,17.19C825.42,278,837.48,289,838.8,302.82c.06.74,2.66,16.48-11.42,25-4.58,2.78-12.59,4.3-20.62,3.23-10.4-1.41-10.69-4.57-15.77-5.18-4.28-.52-7.66,3.33-8.53,3.83.08-.18,0-18.18,0-27.35a1.61,1.61,0,0,1,2,.48,32.26,32.26,0,0,0,13,18.63c5,3.35,21.49,5.49,20.41-9.77" transform="translate(-215.97 -197.59)"/><path class="cls-1" d="M650.5,245.08l-31.68,9.71c5.45,3.53,7.47,8.59,7.47,18V319.1c0,4.81-1.13,7.53-4.56,10.63H656c-3.91-2-5.47-5.82-5.47-10.76Z" transform="translate(-215.97 -197.59)"/></svg>