<?xml version="1.0" encoding="UTF-8" standalone="no"?>
<svg
   width="645.70746"
   height="717.97003"
   version="1.1"
   id="svg848"
   sodipodi:docname="Flag-map_of_New_Mexico.svg"
   inkscape:version="1.1.1 (3bf5ae0d25, 2021-09-20)"
   xmlns:inkscape="http://www.inkscape.org/namespaces/inkscape"
   xmlns:sodipodi="http://sodipodi.sourceforge.net/DTD/sodipodi-0.dtd"
   xmlns:xlink="http://www.w3.org/1999/xlink"
   xmlns="http://www.w3.org/2000/svg"
   xmlns:svg="http://www.w3.org/2000/svg">
  <defs
     id="defs852">
    <clipPath
       id="state_clip_path">
      <g
         id="state_outline">
        <path
           id="New Mexico"
           d="m -25179,-27898 4528,121 1390,32 1150,28 815,17 293,8 318,7 472,11 329,8 318,7 h 159 l 621,8 h 159 l 1385,16 h 159 l 1452,17 400,3 529,4 h 36 l 56,2 82,3 246,-1 1612,21 1390,14 303,2 h 174 l 134,2 169,2 605,4 31,40 31,35 303,-1 h 210 l 1750,2 148,-1 965,2 h 149 l 2437,-11 369,-4 159,-2 139,-1 164,-3 328,-4 503,-7 139,-3 -61,1 1179,-8 169,-1 873,-1 343,-1 4443,-25 683,-4 374,-2 313,-1 298,19 6244,-92 1303,-58 1585,-43 8194,-244 759,-27 24,720 63,1884 34,1010 30,918 33,990 -359,21 43,1140 51,1362 12,463 33,1327 20,639 112,3497 1,15 41,1298 143,4841 1,16 77,2564 62,1916 12,372 130,4210 22,639 3,87 64,2178 v 157 l -2,363 14,408 25,237 20,1680 3,284 8,819 13,1218 12,737 31,2036 30,2012 34,2299 14,475 143,4850 141,4833 27,954 -2307,56 -172,4 -122,3 -365,10 -164,4 -3033,70 -2277,58 -173,5 -169,3 -61,1 h -11 l -92,3 -148,3 h -15 l -316,4 -812,12 -2399,38 -3118,40 -146,2 -786,12 -158,3 -138,2 -475,7 -81,1 -77,1 -159,3 h -148 l -480,11 -153,-1 h -154 l -153,5 h -164 l -634,10 -71,1 -116,3 -198,3 -277,6 -321,6 h -46 l -80,1 h -691 l -168,5 -164,1 h -634 l -159,5 -163,1 h -476 l -476,5 -471,3 -164,1 -71,5 h -184 l -480,1 h -158 l -200,6 -179,1 -203,-1 h -416 l -218,1 h -158 l -465,2 H 1634 l -1157,-1 -521,2 -876,3 h -560 l -796,2 h -317 l -470,1 -163,1 h -170 l -409,-4 2,35 -24,22 -47,10 -39,16 -23,24 -30,41 -2,5 -18,46 -5,45 20,30 36,10 36,1 41,-3 36,8 25,14 8,14 -3,41 -18,32 -23,9 -25,21 -20,25 -8,36 13,25 20,8 25,-2 30,-17 25,-1 12,24 1,10 -14,21 -14,17 -23,36 -16,35 -5,40 -7,49 -3,25 -15,17 -19,16 -22,15 -15,20 5,23 15,8 31,-6 36,3 25,2 15,10 19,19 1,26 -14,16 -24,16 -32,15 -34,5 -38,15 -31,15 -49,33 -43,49 -14,30 -15,35 5,25 20,26 36,25 14,13 39,48 19,40 7,34 -13,42 -19,35 -14,31 -3,7 17,24 31,44 124,139 70,63 37,1 30,-2 22,14 2,35 -4,28 -5,45 v 46 l 3,18 18,34 31,8 25,-6 26,11 16,6 19,19 24,19 39,48 30,49 62,16 29,-6 31,-8 24,-5 12,-1 7,-1 h 49 l 36,5 64,40 23,20 21,18 28,49 28,44 23,19 21,18 12,14 10,20 v 15 l -10,20 -15,26 -2068,-5 -2404,-14 -1297,-11 -158,-5 -811,-7 h -159 l -316,-4 -531,-3 -158,-5 -797,-7 h -158 l -332,-4 -301,-4 -158,-5 -1465,-15 -475,-3 h -168 l -1282,-31 -510,-8 -159,-4 -796,-18 -158,1 -827,-17 -158,-5 -235,-4 h -36 l -4,192 -5,167 1,172 -37,1776 -5,167 -11,805 -33,1716 -1107,-21 -806,-17 -5790,-117 -302,-7 10,-422 3,-121 18,-612 4,-152 13,-405 8,-219 16,-728 8,-252 6,-174 96,-3337 10,-329 6,-204 4,-172 20,-714 11,-392 56,-1962 5,-161 14,-501 5,-162 10,-353 10,-321 4,-167 2,-48 6,-212 54,-1926 28,-1008 17,-629 11,-387 24,-749 5,-206 8,-279 1,-54 2,-93 7,-240 2,-93 5,-140 10,-325 72,-2573 9,-315 72,-2633 4,-148 37,-1331 51,-1848 14,-495 72,-2566 14,-501 11,-468 26,-811 11,-328 7,-232 8,-263 6,-171 3,-75 4,-167 6,-302 8,-343 3,-102 2,-65 34,-1159 7,-238 14,-428 3,-116 3,-91 2,-70 2,-60 3,-107 68,-2394 9,-317 8,-282 27,-998 65,-2273 4,-151 5,-161 5,-151 4,-166 5,-146 38,-1300 96,-3446 114,-3797 4,-120 214,-7365 31,-1057 z" />
      </g>
    </clipPath>
    <clipPath
       clipPathUnits="userSpaceOnUse"
       id="clipPath6363">
      <path
         style="color:#000000;opacity:0.5;fill:#ffffff;stroke-width:39.7001;stroke-linejoin:round;-inkscape-stroke:none"
         d="m 70.721527,9.8676043 13.539019,0.3618037 4.156192,0.09569 3.438576,0.08372 2.436903,0.05082 0.876089,0.02392 0.950842,0.02093 1.411312,0.03289 0.983733,0.02392 0.950839,0.02093 h 0.47542 l 1.856838,0.02392 h 0.47541 l 4.14125,0.04784 h 0.47542 l 4.34157,0.05083 1.19603,0.009 1.58174,0.01194 h 0.10765 l 0.16744,0.006 0.24518,0.009 0.73556,-0.003 4.81999,0.0628 4.15619,0.04185 0.90599,0.006 h 0.52027 l 0.40067,0.006 0.50532,0.006 1.80899,0.01193 0.0927,0.119597 0.0927,0.10465 0.90599,-0.0029 h 0.62791 l 5.23262,0.006 0.44253,-0.003 2.88541,0.006 h 0.44552 l 7.28679,-0.03289 1.10333,-0.01193 0.47542,-0.006 0.41563,-0.0029 0.49037,-0.009 0.98074,-0.01193 1.504,-0.02095 0.41562,-0.009 -0.18239,0.003 3.52528,-0.02392 0.50533,-0.003 2.61032,-0.0029 1.02559,-0.003 13.28487,-0.07475 2.04221,-0.01193 1.11829,-0.006 0.93589,-0.003 0.89104,0.0568 18.66998,-0.275083 3.89605,-0.173417 4.73926,-0.128574 24.50061,-0.7295756 2.26945,-0.080741 0.0718,2.1528516 0.18837,5.633294 0.10167,3.019952 0.0897,2.744887 0.0987,2.960168 -1.07344,0.0628 0.12858,3.408665 0.15248,4.072476 0.0359,1.384403 0.0987,3.967812 0.0598,1.910657 0.33488,10.456257 0.003,0.04485 0.1226,3.881102 0.42758,14.474913 0.003,0.04785 0.23023,7.666531 0.18539,5.728963 0.0359,1.112308 0.38871,12.588177 0.0658,1.910647 0.009,0.260136 0.19136,6.512376 v 0.46943 l -0.006,1.08539 0.0419,1.21995 0.0747,0.70865 0.0598,5.02332 0.009,0.84917 0.0239,2.44886 0.0389,3.64191 0.0359,2.20367 0.0927,6.08778 0.0897,6.01601 0.10166,6.87416 0.0419,1.42028 0.42757,14.50182 0.4216,14.45098 0.0807,2.85257 -6.89809,0.16742 -0.51429,0.0118 -0.36479,0.009 -1.09137,0.0299 -0.49037,0.0118 -9.06888,0.20931 -6.80838,0.17342 -0.51728,0.015 -0.50532,0.009 -0.1824,0.003 h -0.0329 l -0.27508,0.009 -0.44253,0.009 h -0.0448 l -0.94486,0.0118 -2.42794,0.0359 -7.17316,0.11364 -9.32303,0.11958 -0.43655,0.006 -2.3502,0.0359 -0.47242,0.009 -0.41263,0.006 -1.42029,0.021 -0.24219,0.003 -0.23023,0.003 -0.47543,0.009 h -0.44253 l -1.43523,0.0329 -0.45748,-0.003 h -0.46047 l -0.45748,0.015 h -0.49037 l -1.8957,0.0299 -0.2123,0.003 -0.34685,0.009 -0.59203,0.009 -0.82825,0.0179 -0.95981,0.0179 h -0.13754 l -0.23921,0.003 h -2.06635 l -0.50233,0.015 -0.49037,0.003 h -1.8957 l -0.47542,0.015 -0.48738,0.003 h -1.42328 l -1.42327,0.015 -1.40832,0.009 -0.49037,0.003 -0.21229,0.015 h -0.55018 l -1.43523,0.003 h -0.47243 l -0.59801,0.0179 -0.53522,0.003 -0.60699,-0.003 H 156.677 l -0.65184,0.003 h -0.47243 l -1.39038,0.006 h -3.26814 l -3.45951,-0.003 -1.55782,0.006 -2.6193,0.009 h -1.67444 l -2.38009,0.006 h -0.94785 l -1.40533,0.003 -0.48739,0.003 h -0.50831 l -1.22293,-0.0118 0.006,0.10466 -0.0718,0.0658 -0.14053,0.0299 -0.11662,0.0479 -0.0688,0.0718 -0.0897,0.12259 -0.006,0.015 -0.0538,0.13756 -0.015,0.13455 0.0598,0.0897 0.10764,0.0299 0.10765,0.003 0.12259,-0.009 0.10764,0.0239 0.0747,0.0419 0.0239,0.0419 -0.009,0.12261 -0.0538,0.0957 -0.0688,0.0269 -0.0747,0.0628 -0.0598,0.0747 -0.0239,0.10765 0.0389,0.0748 0.0598,0.0239 0.0748,-0.006 0.0897,-0.0508 0.0747,-0.003 0.0359,0.0718 0.003,0.0299 -0.0419,0.0628 -0.0419,0.0508 -0.0688,0.10765 -0.0478,0.10466 -0.015,0.11961 -0.0209,0.1465 -0.009,0.0748 -0.0448,0.0508 -0.0568,0.0478 -0.0658,0.0448 -0.0448,0.0598 0.015,0.0688 0.0448,0.0239 0.0927,-0.0179 0.10764,0.009 0.0748,0.006 0.0448,0.0299 0.0568,0.0568 0.003,0.0777 -0.0419,0.0478 -0.0718,0.0478 -0.0957,0.0448 -0.10166,0.015 -0.11363,0.0448 -0.0927,0.0448 -0.14651,0.0987 -0.12857,0.14651 -0.0419,0.0897 -0.0449,0.10465 0.015,0.0748 0.0598,0.0777 0.10764,0.0748 0.0419,0.0389 0.11662,0.14353 0.0568,0.11961 0.0209,0.10166 -0.0389,0.12557 -0.0568,0.10466 -0.0419,0.0927 -0.009,0.021 0.0508,0.0717 0.0927,0.13159 0.37077,0.41562 0.20931,0.18835 0.11063,0.003 0.0897,-0.006 0.0658,0.0419 0.006,0.10466 -0.012,0.0837 -0.0149,0.13454 v 0.13756 l 0.009,0.0538 0.0538,0.10165 0.0927,0.0239 0.0748,-0.0179 0.0777,0.0329 0.0478,0.0179 0.0568,0.0568 0.0718,0.0568 0.11661,0.14353 0.0897,0.1465 0.18538,0.0478 0.0867,-0.0179 0.0927,-0.0239 0.0718,-0.015 0.0359,-0.003 0.0209,-0.003 h 0.14651 l 0.10765,0.015 0.19136,0.11961 0.0688,0.0598 0.0628,0.0538 0.0837,0.14652 0.0837,0.13158 0.0688,0.0568 0.0628,0.0538 0.0359,0.0418 0.0299,0.0598 v 0.0448 l -0.0299,0.0598 -0.0448,0.0777 -6.18346,-0.015 -7.18811,-0.0419 -3.87812,-0.0329 -0.47243,-0.015 -2.42495,-0.021 h -0.47541 l -0.94487,-0.0118 -1.58772,-0.009 -0.47243,-0.015 -2.38308,-0.021 h -0.47244 l -0.9927,-0.0118 -0.90001,-0.0118 -0.47243,-0.015 -4.38044,-0.0448 -1.42029,-0.009 h -0.50233 l -3.833263,-0.0927 -1.524931,-0.0239 -0.475424,-0.0118 -2.38009,-0.0538 -0.472431,0.003 -2.472784,-0.0508 -0.472432,-0.015 -0.702665,-0.0118 h -0.107641 l -0.01196,0.5741 -0.01496,0.49934 0.003,0.5143 -0.110633,5.31036 -0.01496,0.49934 -0.03289,2.407 -0.09867,5.13094 -3.310004,-0.0628 -2.409995,-0.0508 -17.312482,-0.34984 -0.903,-0.021 0.0299,-1.26183 0.009,-0.3618 0.05382,-1.8299 0.01196,-0.4545 0.03887,-1.21098 0.02392,-0.65481 0.04784,-2.17677 0.02392,-0.75349 0.01796,-0.52027 0.287046,-9.97787 0.0299,-0.98372 0.01793,-0.60998 0.01196,-0.51428 0.0598,-2.13492 0.03289,-1.1721 0.167444,-5.86651 0.01496,-0.48138 0.04186,-1.49805 0.01496,-0.48438 0.0299,-1.05549 0.0299,-0.95983 0.01196,-0.49931 0.006,-0.14353 0.01793,-0.63392 0.161464,-5.75887 0.08372,-3.01399 0.05083,-1.88075 0.03289,-1.15715 0.07176,-2.23955 0.01496,-0.61596 0.02392,-0.83423 0.003,-0.16147 0.006,-0.27807 0.02092,-0.71762 0.006,-0.27808 0.01496,-0.4186 0.0299,-0.97177 0.215286,-7.69344 0.02691,-0.94187 0.215285,-7.87285 0.01196,-0.44253 0.110633,-3.97978 0.152494,-5.52564 0.04186,-1.48008 0.215283,-7.67251 0.04186,-1.49802 0.03289,-1.39935 0.07774,-2.42495 0.03289,-0.98075 0.02093,-0.69369 0.02392,-0.786389 0.01795,-0.511293 0.009,-0.224263 0.01196,-0.499342 0.01793,-0.902992 0.02392,-1.025597 0.009,-0.304991 0.006,-0.194354 0.101661,-3.465482 0.02093,-0.711631 0.04186,-1.279754 0.009,-0.346844 0.009,-0.272099 0.006,-0.209302 0.006,-0.17941 0.009,-0.319935 0.203324,-7.158222 0.02691,-0.947842 0.02392,-0.843205 0.08073,-2.98408 0.194355,-6.796418 0.01196,-0.451509 0.01496,-0.481402 0.01496,-0.451493 0.01196,-0.496349 0.01496,-0.436561 0.113622,-3.887083 0.287046,-10.303768 0.340868,-11.353278 0.01196,-0.358808 0.639873,-22.021833 0.09269,-3.160507 z"
         id="path6365" />
    </clipPath>
  </defs>
  <sodipodi:namedview
     id="namedview850"
     pagecolor="#ffffff"
     bordercolor="#666666"
     borderopacity="1.0"
     inkscape:pageshadow="2"
     inkscape:pageopacity="0.0"
     inkscape:pagecheckerboard="0"
     showgrid="false"
     inkscape:zoom="0.4975"
     inkscape:cx="159.79899"
     inkscape:cy="419.09548"
     inkscape:window-width="1366"
     inkscape:window-height="697"
     inkscape:window-x="-8"
     inkscape:window-y="-8"
     inkscape:window-maximized="1"
     inkscape:current-layer="svg848" />
  <g
     id="g6343"
     transform="matrix(3.8040201,0,0,3.8040201,-248.59737,-36.297938)"
     clip-path="url(#clipPath6363)">
    <path
       fill="#ffd700"
       d="M 0,0 H 300 V 200 H 0 Z"
       id="path6323" />
    <g
       transform="matrix(0.25015,0,0,0.25015,150,100)"
       stroke="#bf0a30"
       id="g6330">
      <path
         id="a"
         d="M 164.75226,38.281583 H -164.75225 M 191.37691,12.750128 h -382.75382 m 382.75305,-25.500255 h -382.75228 m 356.12839,-25.531455 h -329.5045"
         stroke-linecap="round"
         stroke-width="17.0002" />
      <use
         transform="rotate(90)"
         xlink:href="#a"
         id="use6326"
         x="0"
         y="0"
         width="100%"
         height="100%" />
      <circle
         r="61.542633"
         fill="#ffd700"
         stroke-width="10.1674"
         id="circle6328"
         cx="0"
         cy="0" />
    </g>
  </g>
</svg>
