<svg xmlns="http://www.w3.org/2000/svg" xmlns:xlink="http://www.w3.org/1999/xlink" width="736" height="936.5" version="1.1"><defs><linearGradient id="a"><stop offset="0" stop-color="#000" stop-opacity="1"/><stop offset="1" stop-color="#fbfbfb" stop-opacity="1"/></linearGradient><linearGradient id="b"><stop offset="0" stop-color="#826f30" stop-opacity="1"/><stop offset=".5" stop-color="#c8b369" stop-opacity="1"/><stop offset="1" stop-color="#826f30" stop-opacity="1"/></linearGradient><linearGradient id="c"><stop offset="0" stop-color="#333" stop-opacity="1"/><stop offset=".6" stop-color="#bbb" stop-opacity="1"/><stop offset="1" stop-color="#333" stop-opacity="1"/></linearGradient><linearGradient id="d"><stop offset="0" stop-color="#ff2d2d" stop-opacity="1"/><stop offset=".5" stop-color="#8e0e0e" stop-opacity="1"/><stop offset="1" stop-color="#560000" stop-opacity="1"/></linearGradient><linearGradient id="f"><stop offset="0" stop-color="#fff" stop-opacity=".7"/><stop offset="1" stop-color="#fff" stop-opacity=".2"/></linearGradient><linearGradient id="e"><stop offset="0" stop-color="#fd5" stop-opacity="1"/><stop offset=".5" stop-color="#ffcc01" stop-opacity="1"/><stop offset="1" stop-color="#dcb000" stop-opacity="1"/></linearGradient><linearGradient xlink:href="#a" id="g" x1="394.4" x2="430.2" y1="861.5" y2="805" gradientUnits="userSpaceOnUse"/><linearGradient xlink:href="#a" id="h" x1="379.1" x2="378.6" y1="855" y2="804.8" gradientUnits="userSpaceOnUse"/><linearGradient xlink:href="#a" id="i" x1="370.1" x2="352.8" y1="855.1" y2="804" gradientUnits="userSpaceOnUse"/><linearGradient xlink:href="#a" id="j" x1="387.1" x2="404.1" y1="855.8" y2="804.8" gradientUnits="userSpaceOnUse"/><linearGradient xlink:href="#a" id="k" x1="366.9" x2="340.4" y1="857.8" y2="804.1" gradientUnits="userSpaceOnUse"/><linearGradient xlink:href="#a" id="l" x1="374.3" x2="365.3" y1="854.2" y2="803.6" gradientUnits="userSpaceOnUse"/><linearGradient xlink:href="#a" id="m" x1="383.5" x2="390.8" y1="854.4" y2="803.9" gradientUnits="userSpaceOnUse"/><linearGradient xlink:href="#a" id="n" x1="391.1" x2="416.9" y1="856.6" y2="804.1" gradientUnits="userSpaceOnUse"/><linearGradient xlink:href="#a" id="o" x1="364" x2="328.3" y1="863.3" y2="804" gradientUnits="userSpaceOnUse"/><linearGradient xlink:href="#b" id="p" x1="379.1" x2="388.4" y1="850.8" y2="850.8" gradientTransform="matrix(1 0 0 .84969 0 126.5)" gradientUnits="userSpaceOnUse"/><linearGradient xlink:href="#c" id="q" x1="356.1" x2="396.2" y1="874.6" y2="874.6" gradientUnits="userSpaceOnUse"/><linearGradient xlink:href="#d" id="A" x1="298.2" x2="457.3" y1="783.3" y2="783.3" gradientUnits="userSpaceOnUse"/><radialGradient xlink:href="#e" id="r" cx="391.6" cy="453.4" r="52.4" fx="391.6" fy="453.4" gradientTransform="matrix(1 0 0 5.71983 0 -2139.8)" gradientUnits="userSpaceOnUse"/><radialGradient xlink:href="#e" id="s" cx="287.7" cy="454.5" r="73.2" fx="287.7" fy="454.5" gradientTransform="matrix(1 0 0 4.09989 0 -1408)" gradientUnits="userSpaceOnUse"/><radialGradient xlink:href="#e" id="t" cx="489" cy="453.7" r="66.7" fx="489" fy="453.7" gradientTransform="matrix(1 0 0 4.47545 0 -1577.7)" gradientUnits="userSpaceOnUse"/><radialGradient xlink:href="#e" id="u" cx="576" cy="454.6" r="95.5" fx="576" fy="454.6" gradientTransform="matrix(1 0 0 3.12473 0 -965)" gradientUnits="userSpaceOnUse"/><radialGradient xlink:href="#e" id="v" cx="204.5" cy="457.8" r="100.1" fx="204.5" fy="457.8" gradientTransform="matrix(1 0 0 2.97403 0 -904.4)" gradientUnits="userSpaceOnUse"/><radialGradient xlink:href="#e" id="w" cx="625.5" cy="456.5" r="100.4" fx="625.5" fy="456.5" gradientTransform="matrix(1 0 0 2.94525 0 -888)" gradientUnits="userSpaceOnUse"/><radialGradient xlink:href="#e" id="x" cx="108.2" cy="458" r="114.8" fx="108.2" fy="458" gradientTransform="matrix(1 0 0 2.59664 0 -731.9)" gradientUnits="userSpaceOnUse"/><radialGradient xlink:href="#e" id="y" cx="677.2" cy="456" r="109.5" fx="677.2" fy="456" gradientTransform="matrix(1 0 0 2.6952 0 -773)" gradientUnits="userSpaceOnUse"/><radialGradient xlink:href="#e" id="z" cx="83.7" cy="461.9" r="118.5" fx="83.7" fy="461.9" gradientTransform="matrix(1 0 0 2.49316 0 -689.7)" gradientUnits="userSpaceOnUse"/><radialGradient xlink:href="#f" id="B" cx="233.2" cy="436.2" r="63.9" fx="233.2" fy="436.2" gradientTransform="matrix(1 0 0 4.63685 0 -1662.3)" gradientUnits="userSpaceOnUse"/><radialGradient xlink:href="#f" id="C" cx="165.9" cy="426.1" r="94.5" fx="165.9" fy="426.1" gradientTransform="matrix(1 0 0 3.0975 0 -967)" gradientUnits="userSpaceOnUse"/><radialGradient xlink:href="#f" id="D" cx="97.6" cy="421.5" r="113.7" fx="97.6" fy="421.5" gradientTransform="matrix(1 0 0 2.52994 0 -714.6)" gradientUnits="userSpaceOnUse"/><radialGradient xlink:href="#f" id="E" cx="340.5" cy="213.1" r="19.1" fx="340.5" fy="213.1" gradientTransform="matrix(1 0 0 3.08284 0 -443.8)" gradientUnits="userSpaceOnUse"/><radialGradient xlink:href="#f" id="F" cx="399.8" cy="156" r="12.7" fx="399.8" fy="156" gradientTransform="matrix(1 0 0 .65072 0 57.3)" gradientUnits="userSpaceOnUse"/></defs><path d="M260 713.8h229l-21.9 21.9h-182z" fill="#5d5d00" fill-opacity="1"/><path d="M393.3 863.6 431 804" fill="none" stroke="url(#g)" stroke-linecap="butt" stroke-linejoin="miter" stroke-opacity="1" stroke-width=".8" transform="translate(-78.1 -184.5) scale(1.20146)"/><path d="M378.8 855.6v-50.7" fill="none" stroke="url(#h)" stroke-linecap="butt" stroke-linejoin="miter" stroke-opacity="1" stroke-width=".8" transform="translate(-78.1 -184.5) scale(1.20146)"/><path d="M370.2 856.8 353.1 804" fill="none" stroke="url(#i)" stroke-linecap="butt" stroke-linejoin="miter" stroke-opacity="1" stroke-width=".8" transform="translate(-78.1 -184.5) scale(1.20146)"/><path d="m386.8 856.8 17.2-51.6" fill="none" stroke="url(#j)" stroke-linecap="butt" stroke-linejoin="miter" stroke-opacity="1" stroke-width=".8" transform="translate(-78.1 -184.5) scale(1.20146)"/><path d="m367.2 859.3-26.7-55" fill="none" stroke="url(#k)" stroke-linecap="butt" stroke-linejoin="miter" stroke-opacity="1" stroke-width=".8" transform="translate(-78.1 -184.5) scale(1.20146)"/><path d="m374.5 856.2-8.9-51.6" fill="none" stroke="url(#l)" stroke-linecap="butt" stroke-linejoin="miter" stroke-opacity="1" stroke-width=".8" transform="translate(-78.1 -184.5) scale(1.20146)"/><path d="m382.5 855.9 8-51.3" fill="none" stroke="url(#m)" stroke-linecap="butt" stroke-linejoin="miter" stroke-opacity="1" stroke-width=".8" transform="translate(-78.1 -184.5) scale(1.20146)"/><path d="m390.5 858 26.1-52.8" fill="none" stroke="url(#n)" stroke-linecap="butt" stroke-linejoin="miter" stroke-opacity="1" stroke-width=".8" transform="translate(-78.1 -184.5) scale(1.20146)"/><path d="M365 864.8 328.8 804" fill="none" stroke="url(#o)" stroke-linecap="butt" stroke-linejoin="miter" stroke-opacity="1" stroke-width=".8" transform="translate(-78.1 -184.5) scale(1.20146)"/><path d="M379.1 841.5h9.3v15.9H379z" fill="url(#p)" fill-opacity="1" fill-rule="nonzero" transform="translate(-78.1 -184.5) scale(1.20146)"/><path d="M381.9 853.7c-4.6-.4-9.5 0-13 1.4a6.4 6.4 0 0 0-3.6 3.2c-1 1.5-1.6 3.2-2.3 5-1.4 4-2.6 8.6-3.6 13.3-2 9.3-3.3 18.2-3.3 18.2l5 .7s1.2-8.8 3.1-17.9a100.4 100.4 0 0 1 5.3-16.6c.6-1 1.2-1.3 1-1.2 2.5-1 7-1.4 11-1 4 .2 7.3 1.7 8 2.5a94 94 0 0 1 1.7 15.3c.1 6.9-.1 13.3-.1 13.3l5 .2s.2-6.6 0-13.6c0-3.6-.2-7.3-.6-10.4-.3-3.2-.5-5.6-2-7.7-2.5-3.4-7-4.3-11.6-4.7z" fill="url(#q)" fill-opacity="1" baseline-shift="baseline" color="#000" direction="ltr" display="inline" font-family="Sans" font-size="medium" font-stretch="normal" font-style="normal" font-variant="normal" font-weight="400" letter-spacing="normal" overflow="visible" style="text-indent:0;text-align:start;line-height:normal;text-transform:none;block-progression:tb;marker:none;-inkscape-font-specification:Sans" text-anchor="start" text-decoration="none" transform="translate(-78.1 -184.5) scale(1.20146)" visibility="visible" word-spacing="normal" writing-mode="lr-tb"/><path d="M356.3 870.1c-2.7 3.3-3.6 19.7-5.6 29.6l22.2.1s.4-5-1.5-7.7c-2-2.6-9.9-7.2-10-10 0-2.6 2.4 0 4.2-5.6 1.8-5.4-5.6-8.3-9.3-6.4zm30.3-11.5s-2.4-4-6.2-3c-3.9 1-5.7 2-5.8 5.3 0 3.2 4 3.2 3.9 6.4-.2 3-6.2 4.4-6.2 8.6 0 4 3.8 9.3 4 11l.1 4h11.3z" fill="#584433" fill-opacity="1"/><path d="M347.7 157.4c-6.3 3-32 7-32 225 0 85.3 25.3 249 48.1 370.2 5 4.6 30.4 3.5 32.9-.1 10.1-138.7 23-245.8 23-374.2 0-186-34.4-221.5-34.4-221.5a58 58 0 0 0-37.6.6z" fill="url(#r)" transform="translate(-78.1 -184.5) scale(1.20146)"/><path d="M350.3 156.2c-7.3 0-132.2-34.8-132.2 232.2 0 113 110.1 346 118.7 364 3.2 3.9 23 3.1 27.2.3-11.4-124.3-46.2-246.2-48.3-370.2 0-244.6 34.6-226.3 34.6-226.3z" fill="url(#s)" transform="translate(-78.1 -184.5) scale(1.20146)"/><path d="M419.6 378.3c0-177.8-34.3-221.5-34.3-221.5s132.5-34.5 132.5 224.9c0 106.6-32 261.8-92.2 371-5.7 3.8-22.6 3-28.8 0 9-135.3 22.8-245.7 22.8-374.4z" fill="url(#t)" transform="translate(-78.1 -184.5) scale(1.20146)"/><path d="M426 752.1s91.8-229.5 91.8-370.4c0-228.4-109.6-225.2-109.6-225.2s190.1-18.3 190.1 230.2c0 144.7-149.7 366-149.7 366-7.4 3.6-14.7 2.6-22.6-.6z" fill="url(#u)" transform="translate(-78.1 -184.5) scale(1.20146)"/><path d="M310.5 752.5C294.6 731.4 138.1 520 138.1 394.9c0-235.8 162.8-234 162.8-234S218 177.3 218 388.4c0 111.5 109.4 344.6 118.7 363.8-2.8 3.8-23 4-26.3.3z" fill="url(#v)" transform="translate(-78.1 -184.5) scale(1.20146)"/><path d="M466.7 752.5s182.9-205.4 182.9-361c0-223.8-190.5-230.2-190.5-230.2S598.3 179 598.3 385c0 147.9-149.6 367.2-149.6 367.2 7 2.8 12.9 4.4 18 .3z" fill="url(#w)" transform="translate(-78.1 -184.5) scale(1.20146)"/><path d="M310.5 752.5c-16-21.5-172.4-234.6-172.4-357.6 0-236.5 162.8-234 162.8-234S83.3 168.4 83.3 404c0 136.9 188.3 323 215 348.6 4.7 3.6 10.3 3.9 12.2-.2z" fill="url(#x)" transform="translate(-78.1 -184.5) scale(1.20146)"/><path d="M468.4 750.7S677.2 569.4 677.2 397c0-215-218-235.7-218-235.7s190.4 7.7 190.4 230.3c0 154-181.2 359-181.2 359z" fill="url(#y)" transform="translate(-78.1 -184.5) scale(1.20146)"/><path d="M286.9 752.5c-30.7-27-221.5-199.9-221.5-344C65.4 191 265 167 265 167S83.3 192 83.3 404c0 136 187.9 322.5 214.9 348.6-3.6 3.4-8.5 2.4-11.3-.1z" fill="url(#z)" transform="translate(-78.1 -184.5) scale(1.20146)"/><path d="M189.8 645.7c4.8-.7 8.8-4 12.4-8 11.7 4 22.1 0 32.6-4.4 15.5 6.8 33.4 4.2 52.2-2 17.4 7.8 37 6 57.2-.5 21 7.7 42 6.6 63.5-1.2 21.7 6.7 41.5 7.2 58.8.4 22 8.3 38 6 50.5-2 13.2 9.8 24.5 10 34.8 4.5 2.8 4.2 6 7.6 10.4 7.2 15-16 28.4-32.4 41.2-48.9-5.2-1-10.8-5-15.4-10.6-11 7.6-24.9 7-42.7-4.3-16.7 9-36 11.2-61-1.4a77.8 77.8 0 0 1-72.3-1 79.8 79.8 0 0 1-76.7 1.4c-24.5 10.3-47.8 13.3-69.5 5.3-25.3 8.4-46.9 9.8-63.7.5a51 51 0 0 1-41.1 7.6 21.3 21.3 0 0 1-15 9.2 1682 1682 0 0 0 43.8 48z" fill="#f60" fill-opacity=".5"/><path d="M103.2 544.2c6.1 0 13.2-1 17.8-8.4 14.3 6.6 31.6 2.4 50.4-6.9 21.4 9.6 45.8 4.8 72.4-3a115.3 115.3 0 0 0 83.1-4.2 129.6 129.6 0 0 0 89.2-2c30 12 58 11.4 84.5 0 26.5 11.8 50.4 12.8 71.7 1.8 18.5 11 34 12.5 47.4 7.5a50.1 50.1 0 0 0 22.4 10.1 816.4 816.4 0 0 1-38.7 51.7 27.6 27.6 0 0 1-15-10c-12.7 8.4-27.6 4.7-43.2-4.9-16.3 10.6-36.7 9.6-60.7-1.4a78.7 78.7 0 0 1-72-1A81.3 81.3 0 0 1 335 575c-25 10.9-48.2 13.3-69.7 5.3-25.5 8.4-47.4 10.2-63.2.5-15.5 8.4-29.3 11.2-41.3 7.6a20.7 20.7 0 0 1-14.7 9.2 1038.7 1038.7 0 0 1-42.9-53.3zm606.6-377a53 53 0 0 0-25.7 1.8c-2.9-12-26-19.5-59.5-10.4-15.1-11.7-44-14.7-91.4-6a179.4 179.4 0 0 0-112.3-3.2c-38.5-9-77.2-9.7-116.6 1.7-38-3.8-75.5-5.7-110.1 4-42.1.5-81 2-91.1 12.8-28.3-2.7-52.5-2-61 12.4a32.8 32.8 0 0 0-18.3-.6 231.9 231.9 0 0 1 32-56c5.6-.1 9 2 13 4 13.7-12.6 32-17 55-12.4 23.3-12 51.4-13.5 82.5-8.4 24.7-15 60.4-15 102.2-6.3a161.1 161.1 0 0 1 105.9-3.1c33.9-12 68.5-10.8 103.7 3.5 27.6-9.4 55.6-10.2 84.4 5.4 23.8-8.7 44.5-5 55.9 9.7 5.4-3.2 8.8-4 16.8-3.2a230.6 230.6 0 0 1 34.6 54.3z" fill="green" fill-opacity=".5"/><path d="M729.8 229.3a66 66 0 0 0-31.6-.3c-4.8-13-27.8-15-61-10.8-24.1-11-57.7-11.3-95.7-6.5a265.4 265.4 0 0 0-116.5-2 373.6 373.6 0 0 0-123 1.4c-42.9-1.5-82.5-.7-115.7 5.6-37.2-.4-69.6 2.9-95 11.6C65.6 227 42.8 230 26.2 241c-6.7-1-13.2-2.2-20.4.8 4.2-21.7 9.8-42.6 18-62a33.6 33.6 0 0 1 18.2.6c8-12.3 29.1-16 61-12.4 11.9-10.2 45.4-13.5 91.2-12.9 29.3-8 67.1-8.4 110-4a225.8 225.8 0 0 1 116.7-1.6c39.1-11 76.5-9.3 112.3 3.1 46.4-8.5 75.7-5.8 91.4 6 31.6-6.7 52.5-4 59.7 10.8a43.1 43.1 0 0 1 25.5-2.1 266 266 0 0 1 20 62z" fill="#f60" fill-opacity=".5"/><path d="M327.9 804.3H431a233 233 0 0 1 25.8-42h-158a182 182 0 0 1 29 42z" fill="url(#A)" transform="translate(-78.1 -184.5) scale(1.20146)"/><path d="m343.6 933.5 36.8 1.8 1.8-50.5h-8.8l-2.6 11-18 .4-1.3-12.2h-7.9z" fill="#d45500"/><path d="m380.4 935.3 27.6.7-1.8-51.2h-24z" fill="#520"/><path d="M346.5 754.4S258.6 533 258.6 384.5c0-148.5 44-223.6 44-223.6s-80.3 20-80.3 226.7c0 98.7 115.4 365 115.4 365 3.1 1 5.8 1.7 8.8 1.8z" fill="url(#B)" transform="translate(-78.1 -184.5) scale(1.20146)"/><path d="M260.3 168.8s-76.5 79.7-76.5 222c0 176.6 126.1 339 144.5 361.6l1.4 1.8a62 62 0 0 1-19-1.5c-14.2-20-169.4-239.8-169.4-356.7 0-197.4 119-227.2 119-227.2z" fill="url(#C)" transform="translate(-78.1 -184.5) scale(1.20146)"/><path d="M309.7 752c-21.3-21.7-198.6-207.5-198.6-353 0-176.5 110.1-219 110.1-219s-136 63.6-136 220.1c0 115.8 186.6 323.3 213 352.2 5.6 2.8 8.5 2.9 11.5-.2z" fill="url(#D)" transform="translate(-78.1 -184.5) scale(1.20146)"/><path d="M346.9 271.3c-2.6-54 .3-95.4 22.5-116.3-38.9-3.6-48.6 52.9-22.5 116.3z" fill="url(#E)" transform="translate(-78.1 -184.5) scale(1.20146)"/><path d="M410.9 171.7a126 126 0 0 1-23.2-15.2c8.4.3 29.3-4 23.2 15.2z" fill="url(#F)" transform="translate(-78.1 -184.5) scale(1.20146)"/><path d="M456.3 6.5a4772.2 4772.2 0 0 0-35.8-3c16.7 6.3 25.2 6.6 35.8 3z" fill="#f2e2a3" fill-opacity="1"/><path d="m482.3 720.6-12 10.7m-9-12-7.5 11.6m-20-11.7-4.6 11.5M398 719.6l-1 11.3m-38.1-11 .7 11m-33.4-11.3 3.8 11.3m-35.5-11.3 7.8 11M279 719.3l12.2 12M268.6 721l12.7 10.7" fill="none" stroke="#000" stroke-linecap="butt" stroke-linejoin="miter" stroke-opacity="1" stroke-width="1"/></svg>