<svg xmlns="http://www.w3.org/2000/svg" xml:space="preserve" version="1.0" viewBox="0 0 199 267"><path d="m119 216 44-58 20-30c5-9 11-20 13-31 6-29-2-64-33-76l-47 161-11 38 14-4" fill="#ff7021"/><path d="m109 219 13-57 29-99 12-42c11 4 18 11 22 21 4 12 6 23 5 35-1 25-16 47-27 68l-25 39-13 21-6 11-10 3" fill="#eb490c"/><path d="m106 219 23-31 13-18c3-3 5-4 9-2 5 4 0 6-2 10l-11 14-11 14c-3 3-6 10-10 11l-11 2" fill="red"/><path d="M198 83c-3-4-6-7-12-8-2 0-2 0-2-2l-4-9-17-43c13 6 21 14 28 25 6 11 7 24 7 37" fill="#ffd900"/><path d="m149 167-18 28-9 15-4 6-9 3c1-5 2-7 6-12l15-21 13-18c2-2 4-1 5-1" fill="#bf0000"/><path d="M179 30c9 14 11 30 11 46l-6-1-6-17-15-37 16 9" fill="#ffa300"/><path d="m115 216 38-63 18-32c5-10 10-22 12-33 4-24-2-49-20-67-2-3-20-15-21-7l-5 27-31 176-1 3 10-4" fill="#ff7021"/><path d="M107 218c7-55 18-109 28-163l6-36 1-7c1-2 11 2 13 3 10 5 14 18 16 29 3 11 3 24 1 35-4 24-16 47-26 69l-31 66c-1 3-5 4-8 4" fill="#eb490c"/><path d="M144 137c4-2 9-2 13 1 4 2 3 3 1 7l-15 27-17 25-8 14c-1 2-2 5-4 6l-9 3 5-26c1-6 6-13 9-18l12-21c3-6 7-14 13-18" fill="red"/><path d="m150 136-20 44-9 21-5 12-2 4-7 1 2-15 1-10a1051 1051 0 0 1 27-47c3-5 6-10 13-10" fill="#bf0000"/><path d="M184 75c-3-5-11-6-16-5-3 1-6-11-7-13l-19-45c8 0 13 2 19 6a62 62 0 0 1 21 36c1 5 4 15 2 21" fill="#ffd900"/><path d="M149 12c12 3 17 14 20 24l4 18v16c-2 1-6 1-7-1l-7-17-17-40h7" fill="#ffa300"/><path d="m110 216 29-66c5-12 11-23 15-35 5-10 10-22 11-34 4-21 1-52-17-68-4-3-9-6-15-7-2 0-9 0-9 3l-2 22-19 182v5l7-2" fill="#ff7021"/><path d="M110 216h-7l17-166 3-35 1-6c0-3 9-3 11-2 10 2 14 15 17 24 3 11 3 23 3 35 0 11-4 22-7 33a1315 1315 0 0 1-34 104l-4 13" fill="#eb490c"/><path d="m103 218 2-21c0-5 2-9 4-14l14-33c2-4 4-12 9-13 1 0 13 0 12 3l-15 33-11 25-5 12-3 6-7 2" fill="red"/><path d="M110 216h-7l1-13 1-12 10-22 10-23c3-6 5-11 12-9l-14 39-7 22-6 18" fill="#bf0000"/><path d="M136 7c27 9 30 39 30 64-2-3-6-4-10-5l-7 1-10-24-13-30c-1-2-3-4-1-5 4-2 7-2 11-1" fill="#ffd900"/><path d="M136 7c3 0 6 5 8 7 4 5 6 11 8 17l3 16v19l-7 1-6-16-17-42c-2-3 9-3 11-2" fill="#ffa300"/><path d="M106 216c15-46 32-92 42-140 2-12 0-24-1-36-1-11-6-24-14-31-4-4-9-6-15-6l-7 1c-3 2-3 5-3 8l-3 39-8 143v16c-1 2-2 5 1 5l8 1" fill="#ff7021"/><path d="M99 216c2-48 2-96 5-145l2-34 1-18c1-4-1-14 4-15l7-1c3 0 5 4 7 6 3 4 5 10 6 16 3 11 3 24 3 36-1 23-5 46-9 69-5 24-10 48-17 72l-3 12c-1 3-3 2-6 2" fill="#eb490c"/><path d="M106 216h-7c1-11 4-21 7-32l4-15 3-6 7-1c5 1 1 7 0 10l-5 15-4 14-5 15" fill="red"/><path d="M104 216h-5l2-14 5-18 5-17c1-4 3-5 7-5l-6 27-4 15-4 12" fill="#bf0000"/><path d="M120 3c28 6 29 43 29 65-5-5-16-6-22-2a508 508 0 0 1-17-56c-1-3-2-5 2-6l8-1" fill="#ffd900"/><path d="M119 3c12 8 14 26 14 39l1 19c0 2 0 2-2 3l-5 2-11-36-6-19c-1-3-2-5 1-7l8-1" fill="#ffa300"/><path d="m71 214-41-62C18 133 4 110 1 87c-4-29 10-60 39-70l37 164 9 37-15-4" fill="#eb490c"/><path d="m50 164 18 28 12 18c1 3 3 6 6 8l-12-3c-4-1-4-3-6-6l-13-19-12-17c-2-2-5-4-3-7s7-3 10-2" fill="#bf0000"/><path d="M40 17 23 54c-1 3-6 16-9 16-7-1-11 3-14 9 2-28 13-52 40-62" fill="#ffa300"/><path d="m75 215-33-66-16-33c-5-11-9-22-10-33-3-24 5-49 23-66 4-4 10-6 15-8 3-1 7-1 7 2a1994177 1994177 0 0 1 25 205v2l-11-3" fill="#eb490c"/><path d="M83 215c-10-22-22-43-33-65l-16-34c-4-10-9-22-10-33-3-24 5-49 23-66 5-4 10-6 16-7 2-1 6-2 7 1l3 27 21 178v2l-11-3" fill="#ff7021"/><path d="M37 140c-1-5 13-6 15-3l11 26c8 18 18 36 23 55l-11-3-6-12-11-22-11-20c-3-6-6-15-10-21" fill="#bf0000"/><path d="M85 216c-3 0-9-16-10-19l-10-19-22-42h8l2 4 13 28 13 31c2 5 6 12 6 17" fill="red"/><path d="M55 9h6l1 6-1 12-6 26-4 11c0 2-12 2-13 2-8 1-16-1-23 4-1-5 1-14 2-19 2-7 5-13 8-18 6-12 17-20 30-24" fill="#ffa300"/><path d="m61 10 1 11c1 4-1 8-2 11-1 7-3 15-6 22l-3 9c0 3-7 2-9 3H24c2-12 4-23 11-34 3-5 7-10 12-14 4-4 9-5 14-8" fill="#ffd900"/><path d="m80 215-25-68-13-35c-3-11-7-23-8-35-3-22 3-52 21-67 4-2 11-6 16-6 2 1 8 1 8 4l1 23 7 182v4l-7-2" fill="#eb490c"/><path d="m87 215-25-68c-8-22-19-46-22-71-1-12 1-24 5-36 3-11 8-23 18-30 4-3 10-6 16-5 2 0 7 0 7 3l1 24 7 182v3l-7-2" fill="#ff7021"/><path d="M49 131c7-5 15-2 21 3 2 2 4 3 4 5l3 15c4 21 9 42 10 63l-6-1c-2-1-2-3-3-5a741 741 0 0 0-13-35l-9-23c-2-7-4-16-7-22" fill="#bf0000"/><path d="M87 216c-2-3-2-7-3-10l-4-10-9-24-16-43c7-2 11 2 17 7 4 4 4 14 5 20l8 39c1 6 3 14 2 21" fill="red"/><path d="M68 5c3-1 7-1 10 1 2 1-2 9-3 11L64 40 53 61l-2 3h-7l-11 2c2-23 8-55 35-61" fill="#ffa300"/><path d="m75 5 3 1c2 1-1 5-1 7L66 35 56 56l-3 5c-1 2-1 4-3 3H40c2-12 3-24 9-36 3-5 6-11 10-15 5-4 10-6 16-8" fill="#ffd900"/><path d="M84 216c-11-48-26-95-33-143-1-12 1-24 3-36 2-11 8-23 17-30 4-4 10-6 16-5 2 0 5 1 7 3 2 1 1 5 1 7a3836 3836 0 0 1-1 184v15c0 3 1 4-2 4l-8 1" fill="#eb490c"/><path d="m89 215-18-72c-5-23-11-47-13-71-1-11 0-24 3-34 3-12 6-25 17-32 4-3 9-5 14-3 4 2 3 6 3 11a2946 2946 0 0 1-1 185v16h-5" fill="#ff7021"/><path d="m92 210 1 5h-5c-2 1-4 2-4-1l-7-24-12-48 6-2 4 1a860 860 0 0 1 7 26l6 23c1 6 5 15 4 20" fill="#bf0000"/><path d="M93 215h-4l-2-6-2-8-5-22-9-39 4 1c2 1 3 7 3 10l6 24c4 13 6 27 9 40" fill="red"/><path d="M83 2c3 0 14 0 12 5l-7 18-16 39c-5-3-16-4-21 1 0-23 6-59 32-63" fill="#ffa300"/><path d="M58 62c1-12 1-25 6-36C68 16 74 4 87 2c2 0 7 1 7 3 1 2-1 5-2 8l-9 23-11 28c-4-3-10-3-14-2" fill="#ffd900"/><path d="M90 216c-9-48-16-96-18-145 0-11 1-23 3-34 2-12 5-25 14-33 3-3 12-6 14-1s2 11 2 17l-1 36-8 147-1 15-5-2" fill="#eb490c"/><path d="M79 57c1-12 2-24 6-36 2-6 4-11 8-16 2-1 4-3 7-3 3-1 3 0 4 3v35l-2 39-7 135A808 808 0 0 1 79 57" fill="#ff7021"/><path d="M95 136c4 5 4 10 3 17l-1 23-2 42-5-2-2-9-2-12-5-28-4-28c0-4 1-4 6-5 3-1 9 0 12 2" fill="#bf0000"/><path d="m99 144-4 70-9-53-3-27c3-1 9 0 12 2 2 1 3 5 4 8M73 57c1-12 2-24 6-35 2-10 10-24 22-21 7 1 4 24 3 29l-7 34c-7-3-18-4-25 0l1-7" fill="red"/><path d="M102 1c3 4 3 11 3 16l-1 17-1 30-15-2c-5 0-11-1-16 2 0-12 2-23 4-34 3-13 10-32 26-29" fill="#ffa300"/><path d="M79 57c0-11 1-23 5-33 1-6 3-11 7-16 2-3 9-10 12-5 3 3 2 12 2 16l-1 17-1 28c-8-2-17-2-25-2l1-5" fill="#ffd900"/><path d="M100 216c12-47 23-95 27-143V38c-2-12-4-24-13-33-1-2-4-3-7-4h-3c-3 0-2 1-3 3a311 311 0 0 0-4 52c-2 49-1 99-2 148v14l5-2" fill="#eb490c"/><path d="m100 216 1-147c1-23 1-46 5-68 12 2 17 15 19 25a455 455 0 0 1-14 148l-5 21-4 15-2 6" fill="#ff7021"/><path d="M120 134c-2 15-6 29-9 44l-6 21-3 12-2 5-5 2-1-58v-13c0-3-1-13 1-14 9-4 17-2 25 1" fill="#bf0000"/><path d="M120 134a430 430 0 0 1-14 62l-3 10c-1 3-1 8-3 10v-81c0-3 0-3 2-4h7c4 0 8 1 11 3" fill="red"/><path d="M81 263c-1 5 7 3 10 3 2 0 14 3 13-2H92l-11-1" fill="#84442f"/><path d="M102 251v-10c1-5 1-5-5-5v9c0 2 1 7-2 6l1-14c0-3 1-3 4-2 3 0 4-1 4 1v15h-2" fill="#c1d8f1"/><path d="M102 251v-10c1-5 1-5-5-5v9c0 2 1 7-2 6l1-14c0-3 1-3 4-2 3 0 4-1 4 1v15h-2" fill="none" stroke="#000" stroke-linecap="square" stroke-miterlimit="10" stroke-width="1"/><path d="m89 241 1 4 2 3v4l-8 2 2-9c0-2 0-6 3-4" fill="#ffd900"/><path d="m89 241 1 4 2 3v4l-8 2 2-9c0-2 0-6 3-4" fill="none" stroke="#000" stroke-linecap="square" stroke-miterlimit="10" stroke-width="1"/><path d="M86 250c-1 1 0 4-2 4l1-7 1 3m0-8c2 1 3 3 1 4l-1-4"/><path d="M88 243h-1v2-1l1-1" fill="#ffb8bd"/><path d="m90 245-1 5 2-1c-1 2-2 4-4 4l1-4h-2c3 1 3-2 4-4" fill="#ffa300"/><path d="m90 251 1-11c0-5 0-4-5-4v9c0 1 1 6-2 6v-15c0-3 5-2 7-2 3 0 2 3 2 5s0 13-3 12" fill="#c1d8f1"/><path d="m90 251 1-11c0-5 0-4-5-4v9c0 1 1 6-2 6v-15c0-3 3-2 6-2s3 1 3 4l-1 9c0 2 1 5-2 4" fill="none" stroke="#000" stroke-linecap="square" stroke-miterlimit="10" stroke-width="1"/><path d="M98 241c2 1 1 2 1 3l1 2c1 3 2 5-1 6s-3 0-6-2l1-3c0-2 2-1 2-2 1-1-1-5 2-4" fill="#ff7f00"/><path d="M98 241c2 1 1 2 1 3v1l1 1c0 2 2 5 0 6-3 1-3 0-6-1-2-2 0-5 1-6 2 0-1-5 3-4" fill="none" stroke="#000" stroke-linecap="square" stroke-miterlimit="10" stroke-width="1"/><path d="M99 242c-4 0-1 6 0 0"/><path d="m98 244 1-1c-1 0-2 1-1 2v-1" fill="#ffb8bd"/><path d="M89 249v13c0 3-1 3-5 3-3-1-3 0-3-4l1-12h7" fill="#bf7242"/><path d="M89 256v-3h-6c-2 0-2 1-2 3h8m0-6v-1c-2 0-8-2-7 1h7" fill="#84442f"/><path d="m105 250-1 15h-8c-1 0-9 1-9-1l1-15c4 0 13 2 17 0" fill="#ffc461"/><path d="M104 257v-3l-11-1c-4 0-5-1-5 3l16 1m0-6 1-2H88c0 2 6 1 8 2h8" fill="#e3622d"/><path d="m81 265 1-12v-4h17c4 1 6-1 6 4l-1 12c-1 2-1 1-3 1-3 0-19 1-20-1" fill="none" stroke="#000" stroke-linecap="square" stroke-miterlimit="10" stroke-width="1"/><path d="m85 236-12-19c0-1-6-10-3-8 2 1 3 5 4 7l8 12 5 7-2 1m6-1 9-20c0-1 4-11 4-7a185225 185225 0 0 0-9 20l-3 8c-1 1-1 0-1-1"/><path d="M102 1c15-2 22 17 24 29l1 25v11c-7-6-22-6-30-2-1-9 0-18 1-27l1-19c1-5 4-12 3-17" fill="#ffa300"/><path d="M102 56c0-18 1-37 4-55 15 2 18 21 20 33l1 21v11c-6-6-18-5-25-4v-6" fill="#ffd900"/><path d="M71 214c2 2 6 3 10 3 2 1 10 4 8 0-1-5-18-10-18-3" fill="none" stroke="#000" stroke-linecap="square" stroke-miterlimit="10" stroke-width="3"/><path d="M71 214c2 2 6 3 10 3 2 1 10 4 8 0-1-5-19-9-18-3" fill="#bf0000"/><path d="m71 214-41-62C18 133 4 110 1 87c-3-24 5-49 25-63l15-9c4-2 9-5 14-6l3-1 4-1 6-2 4-1 5-1 10-1h5c3-1 5-2 8-1 4 0 8-1 12 2h10l5 2 5 1 10 4 4 2h4a40 40 0 0 1 13 8l7 5c23 14 29 37 28 62 0 11-6 24-11 33l-20 32a718 718 0 0 1-48 63c-1 3-8 1-10 1l-38-2" fill="none" stroke="#000" stroke-linecap="square" stroke-miterlimit="10"/><path d="m119 216-13 16-4 4c-4 0-4 0-6-3-5-11-13-19-25-19 4-9 49-7 48 2" fill="none" stroke="#000" stroke-linecap="square" stroke-miterlimit="10"/><path d="M119 216c-7-6-21-5-30-5l-15 1c-2 1-3 2-4 0l-5-7c4-3 9-3 14-3h16c9 0 23 0 31 6l-7 8" fill="none" stroke="#000" stroke-linecap="square" stroke-miterlimit="10"/></svg>