<svg xmlns="http://www.w3.org/2000/svg" version="1.1" viewBox="0 0 376 405"><path d="M171 0c-3 0-7 1-12 4-4 0-6 3-7 5h-1l-3 1-4 1h-6l-6 2-2 2 1 3v1h-2c-3 1-6 3-7 6l-1 4c0 1 1 3 3 3l3 1h-1l-1 3h-6l-3 1v4l6 5h1-1l-3 3-1 2 1 2-3 2-1 1v-2c1-2 2-4 1-5l-3-2h-2c-2 1-5 2-6 4-3-2-6-4-9-4-4-1-7-1-10 1l-2 2v5c1 1 2 3 5 4l-1 2 1 1-6 3c-3 1-4 3-5 6l2 4-2-1c-4-1-8 0-11 2-1-2-3-3-5-3l-6 2-6 9c-4-1-7-1-10 1-3 1-5 4-4 7l-7 3-4 4 1 3 2 1-18 9c-5 3-8 6-9 9l-1 4 2 3 7 4 5 1 5-1c5 1 8 2 11 0l2 1 3 2v4l3 3 2 1-1 3v1l-13 2c-5 1-8 3-11 5l-2 4 1 3 2 1-4 3-3 3v4l2 3h2c-1 3-1 6 1 9l8 4-1 7 2 4 1 1v3l2 4-4 4c-1 3 0 6 2 10v5c1 1 2 3 4 3h4c-1 3 0 7 2 9 3 4 9 6 17 4 4 2 9 3 13 2 3 0 6-1 9-4 1 3 3 5 6 6 4 0 7-1 11-3l2 1c2 1 3 0 5-1l1-1c3 2 6 3 9 2 2 0 4-2 4-3l1-2v3l3 5h7l6-2 1 3c1 2 4 2 6 2l7-1 1-1 1 4c1 2 3 3 5 3 3 0 6-3 9-5l7 6 5 10 3 10-1 21-3 5c-7 5-8 9-10 13h-1l-1 1-4 2-3 2-3 2-7 3a1065 1065 0 0 0-21-31l-2-1-1 1-1 1v2l1 2 5 8 7 11-2 1-1 1 1 2v1l2 2-2 1-1 2-10-5h-1l-2-1-1 1-1 1v2l1 1 6 4-2 1-15 3a1833 1833 0 0 0-82 21h-3v1a2 2 0 0 0-1 3l2 2 2 4c1 1 2 3 5 3l9 1 6 2h4a2 2 0 0 0 1 2c21 8 28 13 80 18l8 6c4 1 9 1 18-1 6-3 13-3 20-8a2 2 0 0 0 3 2l1-1 1 8a2 2 0 0 0 2 1c30 0 54 15 109-1h25c4 0 7-1 10-3 3-3 5-6 5-11a2 2 0 0 0 0-1l-2-5c7 0 12 1 16 6a2 2 0 0 0 1 1c17-1 26-5 30-12 4-6 4-13 4-19a2 2 0 0 0-2-2l-33-12-12-4-6-1 1-1 2-1 2-2v-2l-1-1h-4l-5 2v-1l-2-1 11-12a87 87 0 0 0 3-4l1-1v-1l-2-1h-2l-7 7-14 13a218 218 0 0 0-32-6l-5-6-8-5-6-4c-1-2-3-3-6-4l-5-2a861 861 0 0 1-2-30c0-6 3-16 5-26l9-3c5 1 9-1 12-4v2l2 5c2 2 7 3 13 4 3 4 6 6 9 6 3 1 6 0 9-2 4-3 7-9 9-13 9 3 16 1 21-2 5-4 7-9 6-13 7-5 16-9 23-15 3-3 6-6 7-11 1-4 0-9-2-14 9-5 14-12 13-18a8 8 0 0 0-8-8l3-4c2-3 3-7 3-11 0-3-3-7-6-8l-9 1 1-1 4-5v-3l-1-3-7-2h-7c2-3 3-6 1-8 0-3-3-5-5-6h-4c2-2 3-3 3-5 0-3-2-5-4-7 4-4 8-9 8-14 0-3-1-6-4-8l-10-5 5-5v-7l-8-4h-3 1c3-3 6-6 7-10l-1-5c-1-2-2-3-5-4-4-2-11-3-22-2l-1-3c0-1-1-2-3-2h-3l-3 3-4 4v-2c-1-1-3-3-6-3h-3l1-2c1-3 0-6-2-7s-6-3-10-1l-3 2v-1l-2-1-3 1-3 1-5 4-5-4c-2-2-5-2-8-2-3 1-5 3-6 6l1 4-4-2-1-4-4-4-5 1v1l-1-1-2-2h-3l-6 4-2-2h-6l1-2-2-3h-4v-2l-2-5-7-2-8-3-4 2-1-4c-2-2-4-3-8-3zm23 106 4 2-2 4-2-2v-4zm-52 21 1 2-1-1v-1zm62 29 3 1v6a2 2 0 0 0 2 2h2l-2 1-7-1v-1h1l2-3-1-3-1-1 1-1zm-93 39 4 1 5 1-8 2-1-1v-3zm163 30-3 4-2 3 1-6 4-1z" fill="#000"/><path d="m260 62-14-6-82-9-102 78-12 65c-14 5-37 10-14 21l76 18c6 4-5 25 19 13-5 10 11 7 15 2-1 15 8 8 16 0l74-5c5 2 5 9 18 3 13 1 17-13 12-20l36-45h-42V62zm-71 39c6 5 14 1 14 1l13 16s-20 8-20 6c3-13-4-13-10-12 4-1 11-2 3-11zm-46 17c-1 10 7 14 12 20l-20 3c3-4 18-6 3-13 8-1-1-9-4-4-3-7 4-6 9-6zm20 30 25 26c10 3 16-8 12-10 3-2 6-4-3-7 9 1 4-5 3-8l17 5c-8-3-8 3-8 9 12-3-1 7-3 12l-63 30c-11-1-19-9-32-3-3-7-3-11 5-8 11 3 6-3 5-6l30-12-2-20 14-8z" fill="#052"/><path d="m165 52-99 76-12 63a4 4 0 0 1-3 3l-20 8 7 4 75 19a4 4 0 0 1 1 0c4 3 4 6 5 9v7c1 0 4 0 10-3a4 4 0 0 1 6 6l5-1 2-1a4 4 0 0 1 8 3v3l9-7a4 4 0 0 1 2-1l74-6a4 4 0 0 1 2 1c2 0 4 2 5 3l2 2h2l6-2a4 4 0 0 1 3-1c4 1 6-1 8-4v-8a4 4 0 0 1 0-5l30-38h-33a4 4 0 0 1-4-5V65l-11-5-80-8zm24 44a4 4 0 0 1 3 1c2 2 4 2 6 2l2-1a4 4 0 0 1 6 1l13 16a4 4 0 0 1-2 7s-4 2-9 4l-7 3h-6l-2-2-1-3v-8l-5 1a5 5 0 0 1-2-9l3-1-2-4a4 4 0 0 1 3-7zm-46 18a4 4 0 0 1 4 4c0 4 1 6 3 9l8 8a4 4 0 0 1-3 7l-19 4a4 4 0 0 1-5-7c2-3 4-3 6-4l2-2-3-1a4 4 0 0 1-2-3 4 4 0 0 1-4-3l-1-7c0-3 3-4 5-4 4-2 7-1 8-1a4 4 0 0 1 1 0zm20 30a4 4 0 0 1 3 1l24 25 6-2v-1a4 4 0 0 1 0-5 5 5 0 0 1 1-9l-1-3a4 4 0 0 1 6-5l16 5-1 4-1 4h-2l4 3v5l-2 3-4 5-2 3a4 4 0 0 1-2 2l-63 30a4 4 0 0 1-2 0c-7 0-12-3-16-4-5-1-9-2-14 1a4 4 0 0 1-6-2c-2-4-3-7-2-11 1-3 4-4 6-4 2-1 4 0 6 1v-1a4 4 0 0 1 3-5l27-11-2-17a4 4 0 0 1 2-4l14-7a4 4 0 0 1 2-1z" fill="#003a17"/><path d="M260 62v115h42l14-17c22-8 75-38 28-33 8-5 8-18-10-14 13-5 8-12 1-16l-75-35z" fill="#00943b"/><path d="M317 131c5 1 21-3 12 4 38-5 30 2 24 8 27-14 22 14 8 20 17-6 20 12-1 23 13 23-13 28-26 39 2 7-8 21-27 13-4 10-12 25-24 11-29-4-7-17-6-26-15 1-31 2-12-7-11 1-22 2-26-8-27-9-20-22-28-33 5-8 8-21 16-16l-1-22z" fill="#00ac45"/><path d="M238 138h-10v14c3-5 6-9 10-6v-9zm-15 21h-1l-3 4-7 11c4 6 4 12 7 17 2 6 6 11 20 15a2 2 0 0 1 1 1c2 4 5 6 9 7h15a2 2 0 0 1 1 3l-7 5h19a2 2 0 0 1 1 1c0 3-2 6-4 8l-4 7-1 3 1 2c2 1 6 3 13 4a2 2 0 0 1 1 1c2 3 5 4 7 5l5-2c3-2 5-5 7-9-3 0-5-2-9-5-28-4-7-17-5-26-15 1-31 2-13-7-11 1-21 1-26-8-27-9-19-22-28-34l2-3h-1zm137 44c-5 4-11 6-15 10l1 2 9-7 5-5zm-41 23c-2 4-4 9-7 12 7 2 12 0 15-2s4-5 5-8c-4 1-8 0-13-2z" fill="#008033"/><path d="M237 303s12 3 15 7 10 5 14 9c3 2 7 9 7 9l-23-1-16-14z" fill="#917c6f"/><path d="M244 312c3 2 5 6 9 8 3 1 7 1 10 3l4 5h-23l-7-18 7 2zm-65-19c-6 5-6 8-7 11-8 5-8 8-11 13l-7 3c-2 1-2 3-6 4-10 4-9 7-12 9l46-4z" fill="#6c5d53"/><path d="M16 359c1-1 105-28 108-25l50-12s72 0 107 5l24 5c23-22 34-33 2 1 12-7 6 0 5 2 21-9 12-3 3 1 8 2 18 2 23 6l34 12c0 12 2 28-31 29-5-6-12-8-21-6l3 8c-1 16-21 11-38 11-54 16-78 1-108 1-3-5-1-9 3-14-3 2-6 3-9 7l1-5c-8 7-16 7-24 10-16 5-19-1-24-5-52-5-58-9-79-18l4-3c-9 4-12 0-16-1-17 1-12-6-17-9z" fill="#0a4"/><path d="M118 296c-1 0 8 16 19 32-18-18-3 1-2 3-6-5-9-6-6 1-8-2-30-16-5 1-3-1-32 6-53 12 3 3 5 7 16 2 9 1 9-1 8-4 9 7 11 0 10-3 2 5 5 14 10 2 2 6 6 1 7-2 3 9 10 1 15 1l41-19h-4c-10-1-22 4-34 6-15-24-22-32-22-32z" fill="#008033"/><path d="M176 223c0 34 1 68-3 102 25 8 46 14 69 5l-4-58c2-18 16-63 16-63 11-18 22-27 38-33-3 1-5 2-6-3-11 2 1-9 6-12 0 0-23 14-37 20-10 5-2-35-2-35l-7 4-5-1-6 38c-2 3-19 33-24 35s-35 1-35 1z" fill="#917c6f"/><path d="m291 162-12 7s-5 4-4 6 6 0 6 0c1 1 1 2 6 2-16 4-24 16-28 24 8-9 17-21 36-25-8 1-10 0-7-6-3 0-11 2 4-8zm-46-15-5 6-1 14-4 21-10 17-47 26-5 87 22 2v-25l-1-11-1 10-1 2 1-20 3-20 1 3-1 11 2-4 1-16c1-3 3-3 4-4v5l2 1 1-7 12-5 10-20 5-14h4l2-5c-2-1-3-2-7-1 0 0 7-9 9-14 2-7 1-20 1-20 3 2 9 8 7-6z" fill="#6c5d53"/><path d="m216 229-5 10c-9 6-10 4-19 5l-12-15z" fill="#483e37"/><path d="M165 158a1 1 0 0 0-1 0l-13 7a1 1 0 0 0 0 1l-10 4a1 1 0 0 0-1 1l-9 3a1 1 0 0 0-1 2 1 1 0 0 0-1-1l-10 5a1 1 0 0 0-1 1v4a1 1 0 0 0 1 1h3v8a1 1 0 0 0 0 1l1 8a1 1 0 0 0 0 1v9a1 1 0 0 0 1 1l1 10a1 1 0 0 0-1 1v5a1 1 0 0 0 2 1v-1l48 2 52-1a1 1 0 0 0 2-1s0-1 0-3l1-2h-1a1 1 0 0 0 1-1l-1-9a1 1 0 0 0 0-1l-1-9a1 1 0 0 0 0-1v-13a1 1 0 0 0 0-1l-1-8 4-1a1 1 0 0 0 1-2l-1-4a1 1 0 0 0-1-1l-64-16z" fill="#000"/><path d="m226 190-4 1 4 13-12 3 12 7-8 1 9 9-4 1-48-4 3-40z" fill="#28170b"/><path d="m196 193 1-3 8-2v-5l-44-15-10-1v4l-8 2-3-1v4l1 17z" fill="#502d16"/><path d="M123 194h2l-1 9h2l8 22 37-9-4-1-2-11 5-1-3-1-2-10 5-1h-4l-1-12 5-1-3-1z" fill="#28170b"/><path d="m130 180 66 13-11 4-65-12zm10-4 65 12-7 4-66-12zm11-5 66 13-11 4-64-13zm1-1 68 13 9-3-64-15z" fill="#241f1c"/><path d="m167 178-43 16v9l42-12zm1 25-42 11v10l41-9zm-2-12-42 13v9l43-11zm0-26-43 21v8l44-17z" fill="#784421"/><path d="m223 190-54 19v8l54-13zm1 24-47 8 2 6 46-4zm0-10-55 13 1 7 54-11zm-2-23-54 20 2 8 53-19z" fill="#502d16"/><path d="m126 229 48 2 52-1-58-9z" fill="#28170b"/><path d="m167 216-42 9 1 4 42-8zm-38-39 1 3-10 5-1-4zm11-5v4l-8 4-1-4zm11-5v4l-9 4-1-4zm1-1 13-7v6l-13 5z" fill="#784421"/><path d="m171 216 16 2-1 1-15-3zm0-13 14 2-1 1-14-3zm0-12 15 3h-2l-14-3zm36 30h3l14 2-1 1zm-1-10h3l14 2-3 1zm-1-11h2l16 3-2 1zm17-10h-2l-50-12 1-1 51 13z" fill="#28170b"/><path d="m167 216 1 5 58 9 1-6-60-8z" fill="#a05a2c"/><path d="m171 166-1 2v10l1-1zm0 12-1 1v12h1zm-1 14h-1l1 11h1zm1 11v13z" fill="#502d16"/><path d="m206 187-2 1 1 12h2zm4 25h-3v9h3zm-2-10h-3l1 9h3z" fill="#784421"/><path d="m168 203 3 1v12l-4-1zm-2-12 3 1 1 11-3-1zm1-13h3v13h-4zm-1-13 5 1-1 12-3-1zm5 38v13l16 2v-12zm0 0 14 2 1-10-16-3zm0-12 15 3v-13l-15-3zm0-14 51 13v-10l-51-14zm35 10 1 13 16 3-1-13zm2 15 1 9 14 2v-9zm2 10v9l14 2v-8z" fill="#a05a2c"/><path d="m165 165 64 15v-5l-64-16z" fill="#784421"/><path d="m224 214 2 1 1 9h-2zm0-10 1 1 1 9-2-1zm-1-14 2 1 1 13h-3zm-1-9 2 1 2 8h-3z" fill="#a05a2c"/><path d="m166 165 1 12 3 1 1-12zm5 1v11l13 3c5 0 4-4 3-8 1 6 9 13 10 7 12 6 10-1 7-3zm37 11c0 1-1 5 3 3l1 7 9 2h1v-9zm-41 1v1l3 1v-2zm4 0v3c1 5 5 5 5 1 1 3 5 2 5-2zm51 3 1 9h3l-2-8zm-10 7c2 2 4 3 8 2zm-46 0v3h2l-2-3zm57 2v1l2 2v-2zm-57 1 1 5 1-5z" fill="#784421"/><path d="M180 229c-1-1-27-14-35-24-14-19-12-52-12-52l-13 3c2 17 4 30 8 46 1 6-9 6-10 5 0 0-4-5-9-7l-19-15 4 9s13 8 14 13c0 3-5 3-7 4-5 3-17 3-17 3l1 7c-1-1 24-10 39 2 14 10 31 19 43 32 6 7 7 28 13 22 32-32 1-45 0-48z" fill="#6c5d53"/><path d="M51 131c-15 3-19 7-5 13-7 0-3 3-2 6-4-4-4 0-4 0-18-2-39 16-10 10-13 3-27 11-14 15-3 6 0 10 9 12-2 9-4 17 15 8 3 2 5 5 13-1-7 5-10 10-2 12l36-4c6-3 18-3 7-11 1-4 4-8-11-8 3-1 18-6-6-9 8 0 8-5-2-8 9 2 10-2 9-7-1-3 2-8-11-9 16-4 8-14 11-20z" fill="#006529"/><path d="m50 132-8 3-3 2v1l2 1h7s0-3 4 0c-2-2-5-5 1-5l-3-2zm31 7-1 1h1v-1zm-51 13-3 1-9 4-1 1 2 1c2-3 6-5 11-7zm-7 12-9 4-1 2c-1 0-1 0 0 0v1l3 1a2 2 0 0 1 2 3c-2 3-2 5-1 6 1 2 4 3 8 4a2 2 0 0 1 2 3l-2 5 1 3h2l10-3a2 2 0 0 1 2 0l4 2c2 1 4 0 7-3l1 2 2 2c-4 2-6 4-6 5v1l3 2 36-4 4-2 4-2h1l-4-4-34 4c-7-2-5-6 1-11-7 5-9 2-12 0-19 8-17 1-14-8-10-2-13-6-9-13h-1z" fill="#052"/><path d="M101 87c-4-10-18-9-17-2-1-9-11-11-17-6-6-9-14 2-16 9-7-5-15-1-13 6-13 3-13 8-2 8-45 19-35 25-26 28 4 1 7 3 9 1 11 2 11-1 12-4 2 4 2 9 10 5 0 10 11 10 30 5 14 5 20-2 16-5 5 6 11 6 19 2 17 7 22-1 18-6 12-9 4-8-2-11 1-4-1-6-15-2 4-2 10-4 5-9 8 4 14 1 19-2 10 3 7-1 2-6 5-8-2-6-6-4 6-6 0-6-2-8 1-6-12-6-14 1 2-8-10-8-10 0z" fill="#009f3f"/><path d="M40 91v2a3 3 0 0 1 0 1c2 0 5-1 7-3h-7zm84 5c4 4-1 7-5 9l6-1 1-1 4-1a3 3 0 0 1 1-1l2 1-3-3a3 3 0 0 1 0-1l-7-2zM14 115l-1 1c-5 3-8 5-8 7v2l6 2 4 2 2-1a3 3 0 0 1 2 0h9v-2a3 3 0 0 1 5 0l2 4 1 1 3-2a3 3 0 0 1 4 3l1 3 5 2c4 1 12 0 21-3a3 3 0 0 1 2 0c6 2 11 2 12 1l1-1v-1l1-2 2-1 7 4 9-3a3 3 0 0 1 2 0c8 4 13 3 15 2l1-2v-2a3 3 0 0 1 0-3v-1l-5-1c-7 3-13 3-18-1 3 3-4 8-16 3-19 6-30 5-31-4-8 4-8-2-9-5-1 2-1 6-12 3-3 2-6 1-9 0s-7-3-8-5z" fill="#008033"/><path d="M133 45c-15 4-18 8-1 12l15 14 13-2 22 4 22-1c14-6 32-7 41-20 8-1 16-5-10-21-2-8-5-12-11-2 2-12-6-5-10-1-3-7-7-4-14 0 12-12 0-8-9-6 7 0 15-10 1-11-5-6-10-3-13 1 0-9-4-13-19-6-6 1-7 8-10 12 5-10 0-7-5-4-9-2-19 2-7 7-11-5-27 16-1 9-18 6-5 11 1 12-27-12-24 4-5 3z" fill="#00c44e"/><path d="M122 54c-4 3-11 13-8 0 3-8-6-4-9 0-11-11-31-2-10 6-7-2-4 5 1 3-24 3-14 15-6 18-5 10 13 12 23 8-6 3 0 11 9 6 8 7 9 10 15 9-5 8 12 9 11 3-1 18 16 7 18 2 14 6 14-21 6-23 12 7 14 11 17 5 13 8 29 1 25-5 9 11 29-8 11-8 12-4 4-11-3-8 10-9 3-15-9-12 11-10-19-8-9-4-6-1-13-4-14 0 4-14-12-12-16 1 3-7-7-11-8-1 0-10-17-4-16 1-8 8-9 4-11-1 3-5-23-8-17 0z" fill="#00b046"/><path d="M92 52h-3l5 4 4-3a16 16 0 0 0-6-1zm4 13v1l-11 3c-2 1-1 2-1 2l2 4 5 3a3 3 0 0 1 2 4l-1 3 4 2c5 1 11 1 16-1a3 3 0 0 1 2 6l-1 1c1 0 3 1 7-1a3 3 0 0 1 4 1l8 6c2 1 2 2 5 2a3 3 0 0 1 2 5l2 1h3l1-1v1l3-1 3 1 1 6h3l5-2 3-3a3 3 0 0 1 4-2h4l3-5c-6 4-15 6-14-6-2 5-16 4-11-3-6 0-8-3-15-9-10 5-16-3-9-6-11 3-28 1-23-9l-6-3zm129 9h1-1zm-40 1c3 2 4 8 4 13a3 3 0 0 1 1 0c6 4 12 4 16 3l5-3v-1a3 3 0 0 1 5-3c1 2 3 2 5 2s5-1 6-3l1-1c1 0 0 0 0 0l-4-1a3 3 0 0 1-2-1c-5 3-14 4-21-1-3 5-5 2-16-4z" fill="#00943b"/><path d="M240 52c-9 3-8 16 0 12-6 10 1 12 6 15-11-5-8 3-10 6l21 16c22 1 38 14 67 5 12-4 40-26 7-33 13-12 8-17-11-15 8-2 34-25-13-21-1-15-11 4-16 7 3-6 4-12-11-11 11-3 3-22-17 0 11-13 7-12-6-2-1-11-25-10-11 6-12-9-22 11-6 15z" fill="#00d756"/><path d="M177 272c0 13-2 37-3 38-3 3-3 5-4 7h9l2-45h-4z" fill="#554941"/><path d="M178 312c-6 4-12 5-19 14-4 5-7 3-11 8-4 4-9 3-14 3-4 1-9 5-1 8 7 2 14 6 24 1 4-2 8 1 10-8 0-2 4-2 6-2 8-1 16 7 25 2 4-2 15-3 17-4 1-1-3-20-15-20-3 0-1-7-6-8-12-4-18 5-16 6z" fill="#917c6f"/><path d="M231 308c-10 2-20 16-17 26 2 5 12 4 17 8 3 1 2 6 3 8 1 3 3 5 5 6 3 2 8 0 10-3 1-2-3-7-2-8l6-3c7 5 13 6 20 6 1 0 5-1 5-3-2-6-11-6-16-10l-15-16c-5-4-10-12-16-11z" fill="#917c6f"/><path d="M130 340s11 6 17 6c4 0 11-4 11-4l6-1c2-1 1-6 4-8 5-4 20-4 20-4s5 7 7 7l21-5 7-2c5 1 11 8 12 10s0 10 4 14l5 2s-3 4-8-2c-3-3-3-10-4-11-3-3-13-4-13-4l-4-4c-1-1-16 3-21 5-4 1-9-1-12-2s-10-3-14 0c-3 1-1 4-4 7l-6 1-11 3c-5 0-13-2-17-6v-2z" fill="#6c5d53"/><path d="M132 130c-10-4-13-1-13 4-6-5-15 0-17 8-9-10-35 8-23 18-7 5 0 17 13 12-5 7 10 18 21 4-1 1 8-1 11-8 4 6 17 6 18-6 0 0 14 5 16-7 9 9 25 6 13-6 14 2 22 2 17-5 10 7 19 18 39 9 11-8 2-18-9-27-3-4 2-9-20-6-1-3-11-6-20 1 12-6 3-10-4-3 13-15-1-13-11-9 2-7-26-7-18 2-6 0-11 12 4 14-1 8-6 11-13 11-2-2 4-8-4-6z" fill="#00973c"/><path d="M146 112a2 2 0 0 1-2 1l-2 1-1 3 1 3 2 1c3-1 4-4 5-8l-3-1zm41 20c6 7-3 7-17 5 5 5 6 8 4 10l12 1 1-1-1-2a2 2 0 0 1 2-3l16 10c6 2 12 3 22-1l3-5v-6h-1l-1 1c-20 9-29-2-40-9zm-30 11c-2 12-16 7-16 7-1 12-13 13-17 6-3 7-13 9-12 8-11 14-25 3-21-4-4 2-7 2-10 1a2 2 0 0 1-1 1l-2 3 1 3c2 3 6 4 12 2a2 2 0 0 1 2 3v4l4 3c3 1 9 1 14-6l1 2 2 1v-2l-1-1c-1 0 0 0 0 0l3-1c2-1 5-3 6-6a2 2 0 0 1 3 0c2 2 5 3 8 3 3-1 6-3 6-8a2 2 0 0 1 3-2s3 1 6 1l5-2 2-4a2 2 0 0 1 4-1c4 4 10 5 12 4l2-1v-1l-4-6a2 2 0 0 1-1-1c-3-1-7-2-11-6z" fill="#008033"/><path d="M201 93c-3 6-15 8 2 15-6 3-7 6 2 8-17 3-12 9-5 10-8 5-11 21 15 22-7 11 17 12 17 2-2 3 0 14 13 5-4 14 19 12 16 0 4 15 18 6 25-1 10 4 31 1 29-18 10-1 39-23 7-19 23-16-7-12-13-9 10-2 19-14-16-13 0-8 6-19-18-12-10-18-20-3-23 2 2-10-4-9-8-2 1-5-10-13-16-1-15-8-20-4-18 12-2-7-6-15-9-1z" fill="#00cc52"/><path d="M204 231h-3l1 5-10-1-1-1v-2h-3v2l-1 1-1 1v5l2 2h1v12l-1 1-1 1v3l1 2 1 1a453 453 0 0 1 0 14h-1v1l-1 3v4h2a491 491 0 0 1-3 14l-1 1v4l1 3-1 11h-1l-1 1v4l2 2v14c0 2-1 4 1 6l5 4 4 1h2l1-1v-2l-1-1-4-1-4-2-1-6v-11l1-1 9-1v12c0 2-1 5 1 6l5 4 4 1 1 1 1-1 1-1v-2h-1a1 1 0 0 0 0-1l-4-1-4-2-1-5v-11h1l1-1 1-1v-2c0-1 0-3-2-3v-1h-1a288 288 0 0 1 2-10h1l2-1v-2l-2-4v-1a233 233 0 0 0 2-13 1 1 0 0 0 1 0v-1l1-3v-2l-2-1v-1a258 258 0 0 0 1-14l1-1v-2c1-1 0-3-1-4l-2-1v-11l1-1 1-2-1-4-2-2v-4zm-11 11 9 1v13a141 141 0 0 1-10-1v-13h1zm4 21h5l1 9-1 6h-9v-15h4zm4 22h1l-2 14h-10l2-13 1-1h8zm-4 21h3l-2 11-10 1v-1l1-9 2-1 6-1z" fill="#000"/><path d="M170 227c4 5 8 10 10 16 1-2 3-2 3-6-2-4-8-7-13-10zm-39-47 4-1v5l-3 2z" fill="#917c6f"/><path d="M201 221c2 10 2 48 2 51 0 24-6 43-5 64l1 6c3 3 10 5 10 5l1-1v-2s-7-1-8-3c-2-2-2-4-2-6-1-20 5-37 5-58l-2-43-1-14-3-1c-1-1-3 1-3 1h4l1 1zm-13-2 2 50c0 25-6 47-5 70l1 6c2 3 9 4 9 4h2v-2s-7-1-9-3l-1-7c-2-21 5-42 5-63l-2-43-1-14-2-2v3l1 1z" fill="#c8beb7"/><path d="m188 235 17 2c2 2 1 6 0 6-9-1-8-2-17-1z" fill="#a05a2c"/><path d="m190 239-2 3-1-3 1-4 2 4z" fill="#784421"/><path d="M189 235h1v7h-2l2 1 2-5c0-1 0-3-2-3h-1zm14 2h1v6h-1 1l2-3-2-4-1 1z" fill="#c8beb7"/><path d="M189 256h17c3 2 2 6 0 6-8 0-7-1-16 1z" fill="#a05a2c"/><path d="m191 260-1 3c-1 0-2-1-2-3l1-4 2 4z" fill="#784421"/><path d="M190 256h1v7h-1 1c2 0 2-3 2-4 0-2 0-4-2-4l-1 1zm14 1 1-1v6h-1l1 1c2-1 2-2 2-4l-2-3-1 1z" fill="#c8beb7"/><path d="M188 284h18c2-2 2-6 0-6h-17z" fill="#a05a2c"/><path d="m191 281-1-3c-1 0-2 1-2 3l1 4 2-4z" fill="#784421"/><path d="M189 284h2v-6h-2l2-1c2 1 2 3 2 5l-2 3-2-1zm14 0h1c2-2 2-4 1-6h-1 1l2 3-2 4-2-1z" fill="#c8beb7"/><path d="m186 300 18-1c2 2 2 6 0 6-9 0-8-1-17 2z" fill="#a05a2c"/><path d="m188 303-1 3-2-2 1-4 2 3z" fill="#784421"/><path d="M187 300h1c2 2 2 5 1 6l-1 1h1c2-1 2-3 2-5l-2-3-2 1zm14 0 1-1c2 3 2 5 1 6h-1l1 1c2-1 2-3 2-4l-2-3c-1-1-2 0-2 1z" fill="#c8beb7"/><path d="m184 319 18-2c2 1 2 6 0 6l-16 2z" fill="#a05a2c"/><path d="m187 322-1 3c-1 0-2 0-2-2v-4l3 3z" fill="#784421"/><path d="m185 319 2-1v7h-1l2 1 1-5c0-2-1-3-2-3l-2 1zm14-2h1c2 2 2 4 1 6s0 1 1 0l1-3-2-4-2 1z" fill="#c8beb7"/><path d="M127 198s6 10 2 16c-3 5-14-1-19-1l-20 3-2 2c6-1 9-3 16-3 5 1 13 3 18 6 17 10 32 20 46 33 5 4 7 24 12 22 7-3 5-26 5-26s-16-8-21-13c-15-13-26-16-32-36 0-2-5-3-5-3z" fill="#554941"/><path d="M251 339c-1 3-4 4-3 5s4-1 5-3c5 5 16 8 22 6 4-1 1-2 1-2-8 2-16-4-23-9l-2 3z" fill="#6c5d53"/><path d="m214 80 1 2-1-2zm-11 14a2 2 0 0 1-1 0l-3 4-3 3v1l7 3 7-1c-9-3-8-5-3-8l-4-2zm-7 7zm135 18-11 4-1 9a38 38 0 0 0 13-9l2-3c0-1 0 0 0 0l-3-1zm-132 0-2 1-1 1v1l3 1v-4zm-3 2zm4 7c-3 2-5 6-4 9 1 2 2 4 5 5s7 3 14 3a2 2 0 0 1 2 4c-2 2-1 3-1 3 0 1 1 2 3 2h6c2 0 3-2 4-3a3 3 0 0 1 5 2c-1 1 0 2 1 2 1 1 3 1 8-3a3 3 0 0 1 4 3v5l5 2 5-2c1-1 2-3 1-5a3 3 0 0 1 5-1c1 3 2 5 4 6h5c4-1 9-5 12-8a2 2 0 0 1 3 0c4 1 11 2 17-1 4-2 8-5 8-11-6 4-16 4-21 2-7 6-21 16-25 0 3 13-21 14-17 0-10 7-13 3-13-2-4 7-23 6-16-4-11-1-17-4-20-8z" fill="#0a4"/><path d="M288 152c-6 9-4 11 3 10-8 6-11 9-4 9-1 5 0 8 5 6-8 10 5 25 20 10 13 11 28 3 19-13 18 9 23-4 13-7 10 0 18-1 12-11 13-10 2-17-18-8 12-16-18-14-29-11-6-9-16-1-9 7-8-7-25 6-12 8z" fill="#00c64f"/><path d="M86 218c5-2 5-9-6-6-4-2-5-4 2-8 9 5 11 3 14 1 8-1 2-10-7-12 6-1-15-19-18-3-11 1-14 5-11 12-9-5-16-5-18 6-6-5-24 1-15 12-2 9 4 9 9 6-6 6 0 18 16 14 8 4 16 4 22-4 1 8 11 12 17 2-2 4 6 7 6 1 8 7 15 3 13-3 12 5 21 2 13-6 5-3 3-8-10-12 3-5-7-9-11-2-4 3-14 8-16 2z" fill="#008033"/><path d="m292 144-5 2-2 2v1l3 1a2 2 0 0 1 1 3l-3 5v2h4a2 2 0 0 1 1 4l-4 3-1 1 1 1a2 2 0 0 1 2 2l-1 3v1h3a2 2 0 0 1 3 3c-4 4-3 9 0 11 2 2 4 2 7 2l9-6a2 2 0 0 1 3 0c6 5 12 6 15 4 2-1 3-3 3-5v-4c-4 0-9-2-13-6-15 16-28 1-19-9-6 2-7-1-5-6-7 0-5-4 3-9-6 1-8-1-5-6zm-4 31zm63-20 3 1a2 2 0 0 1 0-1h-3zm4 5c0 2-1 3-3 4l2-1 1-1v-2zm-18 2c3 5 3 9 2 13 4 0 6-1 7-2v-2c0-1-1-2-3-2a2 2 0 0 1 1-4h2l-9-3z" fill="#0a4"/><path d="M67 193h-3l3 2v-2zm23 4c-5 2-6 4-5 6l4 1h2l3-2a2 2 0 0 1 1 0l2-1-1-1v-1l-6-2zm-58 12-3 1-3 3c-1 1 0 3 2 6a2 2 0 0 1 1 2v4c1 0 3 0 5-2a3 3 0 0 1 3 4c-2 3-2 6 0 8s7 4 14 2a2 2 0 0 1 1 1l11 2 8-5-11-2c-16 4-22-8-16-15-5 4-11 4-10-5l-2-4zm50 19c-2 3-4 5-7 6a2 2 0 0 1 1 1c0 4 2 6 4 6 3 1 6 0 9-4-4-1-7-4-7-9zm36 1c1 3-1 5-3 6h8l-2-4a2 2 0 0 1-1-1l-2-1zm-19 2c-2 3-5 5-7 5a2 2 0 0 1 1 3v1h1v-1a2 2 0 0 1 4-2c4 3 7 3 8 3l1-1v-3a2 2 0 0 1 1-2l-3-2c0 6-9 3-6-1z" fill="#00692a"/></svg>