<svg xmlns="http://www.w3.org/2000/svg" width="14in" height="816" version="1.1" viewBox="0 0 1260 765"><defs><pattern id="a" width="2" height="1" patternTransform="scale(10)" patternUnits="userSpaceOnUse"><path d="M0-1h1v2H0z" fill="#000" stroke="none"/></pattern></defs><g stroke-dasharray="none" stroke-linejoin="miter" stroke-miterlimit="4" stroke-opacity="1" stroke-width="6" transform="translate(848 -201) scale(.6026)"><path d="m-785 1344 62 4 404-190-527-80zm495 133-27-7-18-295 196 2-149 301" fill="#000" fill-rule="evenodd" stroke="#000" stroke-linecap="butt" stroke-width="6"/><g fill-rule="evenodd" stroke="#000" stroke-linecap="butt" stroke-width="6"><path d="M-570 1204h52c17 4 27 37 30 55 8 68 14 141-29 201l-56 1z" fill="#000" stroke-width="6"/><path d="m-647 1195 48 2c16 4 26 35 28 52 7 65 8 137-31 193l-52 1z" fill="#000" stroke-width="6"/><g stroke-width="7"><path d="M-280 1230c74 3 64 294-2 301-38-1-42-69-43-146-1-67 13-153 45-155z" fill="#333" opacity="1" transform="matrix(.80382 0 0 .8547 -345 153)"/><path d="M-284 1305c41 1 35 162-1 166-21 3-24-39-24-81-1-37 7-85 25-85z" fill="gray" opacity="1" transform="matrix(.80382 0 0 .8547 -345 153)"/></g><g stroke-width="8"><path d="M-280 1230c74 3 64 294-2 301-38 5-42-69-43-146-1-67 13-153 45-155z" fill="#333" opacity="1" transform="matrix(.72069 0 0 .82064 -448 186)"/><path d="M-284 1305c41 1 35 162-1 166-21 3-24-39-24-81-1-37 7-85 25-85z" fill="gray" opacity="1" transform="matrix(.72069 0 0 .82064 -448 186)"/></g></g><path d="m-233 972 10-220 488 14 41 222z" fill="teal" fill-opacity="1" fill-rule="evenodd" stroke="#000" stroke-linecap="butt" stroke-width="6" opacity="1"/><path d="m105 947 30 15m-232-15 51 11" fill="none" stroke="#000" stroke-linecap="round" stroke-width="6"/><g fill-rule="evenodd" stroke="#000" stroke-linecap="butt" stroke-width="6"><path d="M-629 1205h52c17 4 27 37 30 55 8 68 14 141-29 201l-56 1z" fill="#000" stroke-width="6"/><path d="m-708 1196 50 2c16 4 26 35 28 52 7 65 8 137-31 193l-52 1z" fill="#000" stroke-width="6"/><g stroke-width="7"><path d="M-280 1230c74 3 64 294-2 301-38-1-42-69-43-146-1-67 13-153 45-155z" fill="#333" opacity="1" transform="matrix(.80382 0 0 .8547 -404 154)"/><path d="M-284 1305c41 1 35 162-1 166-21 3-24-39-24-81-1-37 7-85 25-85z" fill="gray" opacity="1" transform="matrix(.80382 0 0 .8547 -404 154)"/></g><g stroke-width="8"><path d="M-280 1230c74 3 64 294-2 301-38 5-42-69-43-146-1-67 13-153 45-155z" fill="#333" opacity="1" transform="matrix(.72069 0 0 .82064 -507 187)"/><path d="M-284 1305c41 1 35 162-1 166-21 3-24-39-24-81-1-37 7-85 25-85z" fill="gray" opacity="1" transform="matrix(.72069 0 0 .82064 -507 187)"/></g></g><rect fill="#000" fill-opacity="1" width="86" height="21" x="-1228" y="1209" opacity="1" ry="3"/><rect fill="#000" fill-opacity="1" width="30" height="64" x="-1121" y="1121" opacity="1" ry="3"/><g fill-rule="evenodd" stroke="#000" stroke-linecap="butt" stroke-width="9"><path d="M-1044 1166h35c11 3 18 25 20 37 5 46 9 95-20 135l-37 1z" fill="#000" stroke-width="6"/><path d="M-1098 1161h34c11 3 18 24 19 35 5 44 5 93-21 130l-35 1z" fill="#000" stroke-width="6"/><g stroke-width="11"><path d="M-280 1230c74 3 64 294-2 301-38-1-42-69-43-146-1-67 13-153 45-155z" fill="#333" opacity="1" transform="matrix(.54107 0 0 .57532 -893 459)"/><path d="M-284 1305c41 1 35 162-1 166-21 3-24-39-24-81-1-37 7-85 25-85z" fill="gray" opacity="1" transform="matrix(.54107 0 0 .57532 -893 459)"/></g><g stroke-width="12"><path d="M-280 1230c74 3 64 294-2 301-38 5-42-69-43-146-1-67 13-153 45-155z" fill="#333" opacity="1" transform="matrix(.48511 0 0 .55239 -962 481)"/><path d="M-284 1305c41 1 35 162-1 166-21 3-24-39-24-81-1-37 7-85 25-85z" fill="gray" opacity="1" transform="matrix(.48511 0 0 .55239 -962 481)"/></g><path d="M-1084 1166h35c11 3 18 25 20 37 5 46 9 95-20 135l-37 1z" fill="#000" stroke-width="6"/><path d="m-1138 1160 34 1c11 3 18 24 19 35 5 44 5 93-21 130l-35 1z" fill="#000" stroke-width="6"/><g stroke-width="11"><path d="M-280 1230c74 3 64 294-2 301-38-1-42-69-43-146-1-67 13-153 45-155z" fill="#333" opacity="1" transform="matrix(.54107 0 0 .57532 -933 459)"/><path d="M-284 1305c41 1 35 162-1 166-21 3-24-39-24-81-1-37 7-85 25-85z" fill="gray" opacity="1" transform="matrix(.54107 0 0 .57532 -933 459)"/></g><g stroke-width="12"><path d="M-280 1230c74 3 64 294-2 301-38 5-42-69-43-146-1-67 13-153 45-155z" fill="#333" opacity="1" transform="matrix(.48511 0 0 .55239 -1002 481)"/><path d="M-284 1305c41 1 35 162-1 166-21 3-24-39-24-81-1-37 7-85 25-85z" fill="gray" opacity="1" transform="matrix(.48511 0 0 .55239 -1002 481)"/></g></g><path d="m-614 434 116 4-26 706-110-13z" fill="#ccc" fill-opacity="1" fill-rule="evenodd" stroke="#000" stroke-linecap="butt" stroke-width="6"/><path d="m-606 1101 67-1-1 61-66 5zm20-701 656 41v41l-658-37z" fill="gray" fill-opacity="1" fill-rule="evenodd" stroke="#000" stroke-linecap="butt" stroke-width="6"/><rect fill="#999" fill-opacity="1" width="45" height="102" x="-451" y="370" stroke="#000" stroke-dashoffset="0" stroke-linecap="round" stroke-width="6" opacity="1" ry="7"/><path d="m-772 1148-7 195-289-41-6-172z" fill="#ccc" fill-rule="evenodd" stroke="#000" stroke-linecap="butt" stroke-width="6"/><path d="m-215 1435 76 11c-8 35-11 68-40 106l-85 1 48-118" fill="#000" fill-rule="evenodd" stroke="#000" stroke-linecap="butt" stroke-width="6"/><path d="M-256 1252c73 3 64 294-3 301-38 5-42-69-43-146-1-67 14-153 46-155z" fill="#333" fill-rule="evenodd" stroke="#000" stroke-linecap="butt" stroke-width="6" opacity="1"/><path d="M448 1476c-3 37-2 96-83 96-81 1-67-45-66-84z" fill="#000" fill-rule="evenodd" stroke="#000" stroke-linecap="butt" stroke-width="6"/><path d="M-231 1284c557 109 607 51 720 16 15 6 21 119-35 185-362 34-491 1-655-23-22-28-41-158-30-178z" fill="gray" fill-rule="evenodd" stroke="#000" stroke-linecap="butt" stroke-width="6"/><path d="M387 1104c14 127-14 182-44 232-94 13-188 6-282-6-60-49-70-187-69-234 115-24 236-37 395 10" fill="#4d4d4d" fill-opacity="1" fill-rule="evenodd" stroke="#000" stroke-linecap="butt" stroke-width="6"/><path d="M387 1107c14 126-14 181-44 231-94 13-188 6-282-6-60-49-70-186-68-234 114-24 235-37 394 10" fill="url(#a)" fill-opacity="1" fill-rule="evenodd" stroke="#000" stroke-linecap="butt" stroke-width="6"/><path d="m-8 1123 395 7-1-24a746 746 0 0 0-394-7z" fill="#999" fill-rule="evenodd" stroke="#000" stroke-linecap="butt" stroke-width="6"/><g stroke-width="6" transform="matrix(-1 0 0 1 -10 43)"><path d="M-336 747h-1c-7 1-12 5-16 11-3 5-4 13-4 20l-6 125v-1c-1 7-1 14 2 20 3 7 9 12 19 16h1l29 2 1-8-29-1c-8-3-12-7-14-12-2-4-2-10-1-16l6-125c-1-7 1-12 3-17 2-4 5-6 10-7l53 1v-7l-53-1z" fill="gray" fill-opacity="1" fill-rule="evenodd" stroke="#000" stroke-dashoffset="0" stroke-linecap="butt" stroke-width="6" baseline-shift="baseline" clip-rule="nonzero" color="#000" color-interpolation="sRGB" color-interpolation-filters="linearRGB" color-rendering="auto" direction="ltr" display="inline" font-family="sans-serif" font-size="medium" font-stretch="normal" font-style="normal" font-variant="normal" font-weight="400" image-rendering="auto" letter-spacing="normal" opacity="1" overflow="visible" shape-rendering="auto" style="line-height:normal;text-indent:0;text-align:start;text-decoration-line:none;text-decoration-style:solid;text-decoration-color:#000;text-transform:none;block-progression:tb;white-space:normal;isolation:auto;mix-blend-mode:normal;solid-color:#000;solid-opacity:1" text-anchor="start" text-decoration="none" text-rendering="auto" visibility="visible" word-spacing="normal" writing-mode="lr-tb"/><path d="m-379 764 49-1-5 144-49-1z" fill="#000" fill-rule="evenodd" stroke="#000" stroke-linecap="butt" stroke-width="6"/><rect fill="#ffa100" fill-opacity="1" width="10" height="88" x="-329" y="798" opacity="1" ry="3" transform="matrix(.99962 .0276 -.0395 .99922 0 0)"/></g><rect fill="#999" fill-opacity="1" width="39" height="98" x="-7" y="392" stroke="#000" stroke-dashoffset="0" stroke-linecap="round" stroke-width="6" opacity="1" ry="7"/><path d="M-252 732c-91-4-184 0-276 11l6-305c2-10 10-19 56-19l527 19c60-1 79 38 96 80 23 61 49 123 63 184l-38 17z" fill="#a90000" fill-opacity="1" fill-rule="evenodd" stroke="#000" stroke-linecap="butt" stroke-width="6"/><path d="m-252 732-81-3c-67-1-70-73 20-57 113 13 218 34 325 41 67-1 131 2 208-13-1 15-3 31-6 44z" fill="#790001" fill-opacity="1" fill-rule="evenodd"/><path d="m-249 754 34 2-8 379-33-2z" fill="#800" fill-opacity="1" fill-rule="evenodd" stroke="#000" stroke-linecap="butt" stroke-width="6"/><path d="m-241 737-12 397c-31 25-36 56-45 85l-226-23c-30-4-23-39-24-62l20-392c102-9 193-16 287-5zm501 31 13 2 36 208-13-1z" fill="#800" fill-opacity="1" fill-rule="evenodd" stroke="#000" stroke-linecap="butt" stroke-width="6"/><path d="M-247 728c-7 3-8 14-2 32 131-4 246-10 539 15-1-17-7-20-11-26-203-37-373-30-526-21Z" fill="#800" fill-opacity="1" fill-rule="evenodd" stroke="#000" stroke-linecap="butt" stroke-width="6"/><rect fill="#ffa100" fill-opacity="1" width="33" height="12" x="-243" y="735" stroke="#000" stroke-dashoffset="0" stroke-linecap="round" stroke-width="6" opacity="1" ry="6"/><rect fill="#ffa100" fill-opacity="1" width="31" height="13" x="13" y="732" stroke="#000" stroke-dashoffset="0" stroke-linecap="round" stroke-width="6" opacity="1" ry="7" transform="rotate(3)"/><rect fill="#ffa100" fill-opacity="1" width="30" height="13" x="306" y="738" stroke="#000" stroke-dashoffset="0" stroke-linecap="round" stroke-width="6" opacity="1" ry="6" transform="matrix(.99837 .0571 -.0778 .99697 0 0)"/><rect fill="#ffa100" fill-opacity="1" width="31" height="13" x="77" y="729" stroke="#000" stroke-dashoffset="0" stroke-linecap="round" stroke-width="6" opacity="1" ry="7" transform="rotate(4)"/><rect fill="#ffa100" fill-opacity="1" width="31" height="13" x="155" y="723" stroke="#000" stroke-dashoffset="0" stroke-linecap="round" stroke-width="6" opacity="1" ry="7" transform="rotate(5)"/><path d="m-264 956-96-7c0-60 2-120 5-176 29-4 62 1 97 0z" fill="teal" fill-rule="evenodd" stroke="#000" stroke-linecap="butt" stroke-width="6"/><path d="M-495 738c-10 138-24 274-20 420l97 11 131 9" fill="none" stroke="#000" stroke-linecap="butt" stroke-width="6"/><path d="M-298 781h-1c-7 1-12 5-16 11-3 6-4 13-4 21v-1l-6 125c-1 6-1 13 2 20 3 6 9 12 19 15h1l41 2v-8l-40-1c-9-3-12-7-14-11-2-5-2-10-2-17h1l6-125c-1-6 1-12 3-16s5-7 10-8l45 2v-8l-45-1z" fill="gray" fill-opacity="1" fill-rule="evenodd" stroke="#000" stroke-dashoffset="0" stroke-linecap="butt" stroke-width="6" baseline-shift="baseline" clip-rule="nonzero" color="#000" color-interpolation="sRGB" color-interpolation-filters="linearRGB" color-rendering="auto" direction="ltr" display="inline" font-family="sans-serif" font-size="medium" font-stretch="normal" font-style="normal" font-variant="normal" font-weight="400" image-rendering="auto" letter-spacing="normal" opacity="1" overflow="visible" shape-rendering="auto" style="line-height:normal;text-indent:0;text-align:start;text-decoration-line:none;text-decoration-style:solid;text-decoration-color:#000;text-transform:none;block-progression:tb;white-space:normal;isolation:auto;mix-blend-mode:normal;solid-color:#000;solid-opacity:1" text-anchor="start" text-decoration="none" text-rendering="auto" visibility="visible" word-spacing="normal" writing-mode="lr-tb"/><path d="M-355 979c-3 0-6 2-8 4l-3 8a89 89 0 0 0-1 43l4 8c1 2 3 4 7 4a4 4 0 1 0-1-7v-1l-2-6c-2-5-2-12-2-19l2-20 3-6v-1a4 4 0 1 0 1-7z" fill="gray" fill-opacity="1" fill-rule="evenodd" stroke="#000" stroke-dashoffset="0" stroke-linecap="round" stroke-width="6" baseline-shift="baseline" clip-rule="nonzero" color="#000" color-interpolation="sRGB" color-interpolation-filters="linearRGB" color-rendering="auto" direction="ltr" display="inline" font-family="sans-serif" font-size="medium" font-stretch="normal" font-style="normal" font-variant="normal" font-weight="400" image-rendering="auto" letter-spacing="normal" opacity="1" overflow="visible" shape-rendering="auto" style="line-height:normal;text-indent:0;text-align:start;text-decoration-line:none;text-decoration-style:solid;text-decoration-color:#000;text-transform:none;block-progression:tb;white-space:normal;isolation:auto;mix-blend-mode:normal;solid-color:#000;solid-opacity:1" text-anchor="start" text-decoration="none" text-rendering="auto" visibility="visible" word-spacing="normal" writing-mode="lr-tb"/><path d="m-341 798 49-1-5 144-50-1z" fill="#000" fill-rule="evenodd" stroke="#000" stroke-linecap="butt" stroke-width="6"/><rect fill="#ffa100" fill-opacity="1" width="10" height="88" x="-290" y="831" opacity="1" ry="3" transform="matrix(.99962 .0276 -.0395 .99922 0 0)"/><path d="M-243 766c-44-2-82-2-120-2-8 130-15 265-6 406" fill="none" stroke="#000" stroke-linecap="butt" stroke-width="6"/><path d="M214 738c4-12 5-20 7-34l-2-7" fill="none" stroke="#000" stroke-linecap="round" stroke-width="6"/><path d="M311 978c62 56 61 90 76 128a772 772 0 0 0-395-7c-68-53-137-103-210-136 177-6 353-10 529 15z" fill="#800" fill-opacity="1" fill-rule="evenodd" stroke="#000" stroke-linecap="butt" stroke-width="6"/><path d="M-218 962c75 37 144 84 210 136-5 52 12 105 21 158-33-51-68-99-113-136-90-66-137 1-154 14l5-170z" fill="#800" fill-opacity="1" fill-rule="evenodd" stroke="#000" stroke-linecap="butt" stroke-width="6"/><path d="M-298 1220c11-60 65-134 134-128 50 4 106 52 177 164 5 27 21 54 45 74-94-14-190-24-281-46-17-64-32-96-67-60z" fill="#a10000" fill-opacity="1" fill-rule="evenodd" stroke="#000" stroke-linecap="butt" stroke-width="6" opacity="1"/><g fill="gray" fill-opacity="1" stroke="#000" stroke-dashoffset="0" stroke-width="6"><path d="m-122 1067-5 4 64 65 5-5-64-64z" fill-rule="evenodd" stroke-linecap="butt" baseline-shift="baseline" clip-rule="nonzero" color="#000" color-interpolation="sRGB" color-interpolation-filters="linearRGB" color-rendering="auto" direction="ltr" display="inline" font-family="sans-serif" font-size="medium" font-stretch="normal" font-style="normal" font-variant="normal" font-weight="400" image-rendering="auto" letter-spacing="normal" opacity="1" overflow="visible" shape-rendering="auto" style="line-height:normal;text-indent:0;text-align:start;text-decoration-line:none;text-decoration-style:solid;text-decoration-color:#000;text-transform:none;block-progression:tb;white-space:normal;isolation:auto;mix-blend-mode:normal;solid-color:#000;solid-opacity:1" text-anchor="start" text-decoration="none" text-rendering="auto" visibility="visible" word-spacing="normal" writing-mode="lr-tb"/><path d="m-127 1009-3 165h7l2-165h-6z" fill-rule="evenodd" stroke-linecap="butt" baseline-shift="baseline" clip-rule="nonzero" color="#000" color-interpolation="sRGB" color-interpolation-filters="linearRGB" color-rendering="auto" direction="ltr" display="inline" font-family="sans-serif" font-size="medium" font-stretch="normal" font-style="normal" font-variant="normal" font-weight="400" image-rendering="auto" letter-spacing="normal" opacity="1" overflow="visible" shape-rendering="auto" style="line-height:normal;text-indent:0;text-align:start;text-decoration-line:none;text-decoration-style:solid;text-decoration-color:#000;text-transform:none;block-progression:tb;white-space:normal;isolation:auto;mix-blend-mode:normal;solid-color:#000;solid-opacity:1" text-anchor="start" text-decoration="none" text-rendering="auto" visibility="visible" word-spacing="normal" writing-mode="lr-tb"/><rect width="75" height="43" x="-165" y="982" stroke-linecap="round" opacity="1" ry="6"/></g><path d="M-8 1293c-18-47-64-75-141-81 4 21 2 37-4 50 49 21 97 28 145 31z" fill="#f2f2f2" fill-rule="evenodd" stroke="#000" stroke-linecap="butt" stroke-width="6"/><path d="M-149 1212c-28-2-37 2-39 8-3 17 18 29 35 42 5-13 8-12 4-50z" fill="#f60" fill-rule="evenodd" stroke="#000" stroke-linecap="butt" stroke-width="6"/><path d="M392 1134c-6 70-1 142-49 204 46-8 92-18 139-39 5-66-33-118-90-165z" fill="#a10000" fill-opacity="1" fill-rule="evenodd" stroke="#000" stroke-linecap="butt" stroke-width="6"/><path d="M470 1230c-70 10-74 64-79 73 41 1 69-13 89-37-2-12-3-24-10-36z" fill="#f2f2f2" fill-opacity="1" fill-rule="evenodd" stroke="#000" stroke-linecap="butt" stroke-width="6"/><path d="M-260 1327c40 1 35 162-2 166-21 3-23-39-23-81-1-37 7-85 25-85z" fill="gray" fill-rule="evenodd" stroke="#000" stroke-linecap="butt" stroke-width="6" opacity="1"/><path d="m-299 1220-226-25c-2 18-14 28-32 35-4 55-21 169 28 186l219 56c-12-88 7-223 21-248z" fill="#800" fill-opacity="1" fill-rule="evenodd" stroke="#000" stroke-linecap="butt" stroke-width="6"/><path d="m-299 1219-226-25c-2 18-15 28-32 35l255 38s9-37 12-43z" fill="#a10000" fill-opacity="1" fill-rule="evenodd" stroke="#000" stroke-linecap="butt" stroke-width="6"/><path d="m-436 1224-75-9m188 24-75-9" fill="none" stroke="#000" stroke-linecap="round" stroke-width="6"/><path d="m-1225 620 639-218-21 763-633-39z" fill="#ccc" fill-rule="evenodd" stroke="#000" stroke-linecap="butt" stroke-width="6"/><path d="m-1226 618 639-218-1 44-640 209z" fill="gray" fill-rule="evenodd" stroke="#000" stroke-linecap="butt" stroke-width="6"/><path d="m-1238 1083 633 17-1 65-634-42z" fill="gray" fill-opacity="1" fill-rule="evenodd" stroke="#000" stroke-linecap="butt" stroke-width="6"/><path d="M30 948c45-2 113-4 171 5m-388-2c52-6 104-5 156-1" fill="none" stroke="#000" stroke-linecap="round" stroke-width="6"/><path d="m-1230 1101 41 1v-13l-41-1zm82 2 41 2v-13l-41-1zm82 3 41 1v-13l-41-1zm82 2 41 1v-12l-41-2zm82 3 41 1v-13l-41-1zm82 2 41 1v-12l-41-2zm82 2 42 2v-13l-42-1zm83 3 41 1v-13l-41-1z" fill="red" fill-opacity="1" fill-rule="evenodd" stroke="#000" stroke-dashoffset="0" stroke-linecap="butt" stroke-width="6" baseline-shift="baseline" clip-rule="nonzero" color="#000" color-interpolation="sRGB" color-interpolation-filters="linearRGB" color-rendering="auto" direction="ltr" display="inline" font-family="sans-serif" font-size="medium" font-stretch="normal" font-style="normal" font-variant="normal" font-weight="400" image-rendering="auto" letter-spacing="normal" opacity="1" overflow="visible" shape-rendering="auto" style="line-height:normal;text-indent:0;text-align:start;text-decoration-line:none;text-decoration-style:solid;text-decoration-color:#000;text-transform:none;block-progression:tb;white-space:normal;isolation:auto;mix-blend-mode:normal;solid-color:#000;solid-opacity:1" text-anchor="start" text-decoration="none" text-rendering="auto" visibility="visible" word-spacing="normal" writing-mode="lr-tb"/><g fill="#ffa100" fill-opacity="1" stroke="#000" stroke-dashoffset="0" stroke-linecap="round" stroke-width="6"><rect width="33" height="12" x="-687" y="219" opacity="1" ry="6" transform="matrix(.9542 -.2992 .13096 .99139 0 0)"/><rect width="31" height="13" x="-544" y="453" opacity="1" ry="7" transform="rotate(4)"/><rect width="33" height="12" x="-1037" y="225" opacity="1" ry="6" transform="matrix(.9542 -.2992 .13096 .99139 0 0)"/><rect width="28" height="12" x="-1320" y="174" opacity="1" ry="6" transform="matrix(.93997 -.34125 .11336 .99355 0 0)"/></g><g fill="#ffa100" fill-opacity="1" stroke="#000" stroke-dashoffset="0" stroke-linecap="round" stroke-width="6" transform="translate(-27 369)"><rect width="33" height="12" x="-441" y="831" opacity="1" ry="6" transform="matrix(.99863 .0523 -.22295 .97483 0 0)"/><rect width="31" height="13" x="-592" y="769" opacity="1" ry="7" transform="rotate(-2)"/><rect width="33" height="12" x="-760" y="828" opacity="1" ry="6" transform="matrix(.9985 .0546 -.2252 .97431 0 0)"/><rect width="29" height="12" x="-1170" y="843" opacity="1" ry="6" transform="matrix(.99693 .0783 -.0487 .99881 0 0)"/></g></g></svg>